<mxfile host="app.diagrams.net" modified="2020-08-28T07:38:40.603Z" agent="5.0 (Macintosh; Intel Mac OS X 10_15_5) AppleWebKit/537.36 (KHTML, like Gecko) Chrome/84.0.4147.135 Safari/537.36" etag="iDJnpieSA1uAcsw9kTXk" version="13.6.2" type="github">
  <diagram id="C5RBs43oDa-KdzZeNtuy" name="Page-1">
    <mxGraphModel dx="9825" dy="5813" grid="1" gridSize="10" guides="1" tooltips="1" connect="1" arrows="1" fold="1" page="1" pageScale="1" pageWidth="827" pageHeight="1169" math="0" shadow="0">
      <root>
        <mxCell id="WIyWlLk6GJQsqaUBKTNV-0" />
        <mxCell id="WIyWlLk6GJQsqaUBKTNV-1" parent="WIyWlLk6GJQsqaUBKTNV-0" />
        <mxCell id="-5Hmd3j96fy0O7xBrkAN-0" value="" style="shape=image;verticalLabelPosition=bottom;labelBackgroundColor=#ffffff;verticalAlign=top;aspect=fixed;imageAspect=0;image=https://miro.medium.com/max/600/1*639721ZNZ3XLjcvgqWumMw.png;" vertex="1" parent="WIyWlLk6GJQsqaUBKTNV-1">
          <mxGeometry x="52" y="400" width="224" height="140" as="geometry" />
        </mxCell>
        <mxCell id="-5Hmd3j96fy0O7xBrkAN-3" value="" style="edgeStyle=orthogonalEdgeStyle;rounded=0;orthogonalLoop=1;jettySize=auto;html=1;" edge="1" parent="WIyWlLk6GJQsqaUBKTNV-1" source="-5Hmd3j96fy0O7xBrkAN-1" target="-5Hmd3j96fy0O7xBrkAN-2">
          <mxGeometry relative="1" as="geometry" />
        </mxCell>
        <mxCell id="-5Hmd3j96fy0O7xBrkAN-1" value="" style="shape=image;html=1;verticalAlign=top;verticalLabelPosition=bottom;labelBackgroundColor=#ffffff;imageAspect=0;aspect=fixed;image=https://cdn0.iconfinder.com/data/icons/software-engineering-and-video-gaming/512/77_hacker_user_gammer_programmer-128.png" vertex="1" parent="WIyWlLk6GJQsqaUBKTNV-1">
          <mxGeometry x="100" y="30" width="128" height="128" as="geometry" />
        </mxCell>
        <mxCell id="-5Hmd3j96fy0O7xBrkAN-4" style="edgeStyle=orthogonalEdgeStyle;rounded=0;orthogonalLoop=1;jettySize=auto;html=1;" edge="1" parent="WIyWlLk6GJQsqaUBKTNV-1" source="-5Hmd3j96fy0O7xBrkAN-2" target="-5Hmd3j96fy0O7xBrkAN-0">
          <mxGeometry relative="1" as="geometry" />
        </mxCell>
        <mxCell id="-5Hmd3j96fy0O7xBrkAN-2" value="" style="whiteSpace=wrap;html=1;verticalAlign=top;labelBackgroundColor=#ffffff;" vertex="1" parent="WIyWlLk6GJQsqaUBKTNV-1">
          <mxGeometry x="104" y="272" width="120" height="60" as="geometry" />
        </mxCell>
        <mxCell id="-5Hmd3j96fy0O7xBrkAN-5" value="Jenkins" style="text;html=1;align=center;verticalAlign=middle;resizable=0;points=[];autosize=1;" vertex="1" parent="WIyWlLk6GJQsqaUBKTNV-1">
          <mxGeometry x="216" y="400" width="60" height="20" as="geometry" />
        </mxCell>
        <mxCell id="-5Hmd3j96fy0O7xBrkAN-6" value="" style="shape=image;verticalLabelPosition=bottom;labelBackgroundColor=#ffffff;verticalAlign=top;aspect=fixed;imageAspect=0;image=https://miro.medium.com/max/1200/1*BCZkmZR1_YzDZy22Vn4uUw.png;" vertex="1" parent="WIyWlLk6GJQsqaUBKTNV-1">
          <mxGeometry x="128.05" y="287" width="71.89" height="30" as="geometry" />
        </mxCell>
        <mxCell id="-5Hmd3j96fy0O7xBrkAN-7" value="PUSH" style="text;html=1;align=center;verticalAlign=middle;resizable=0;points=[];autosize=1;" vertex="1" parent="WIyWlLk6GJQsqaUBKTNV-1">
          <mxGeometry x="165" y="200" width="50" height="20" as="geometry" />
        </mxCell>
        <mxCell id="-5Hmd3j96fy0O7xBrkAN-8" value="觸發規則" style="text;html=1;align=center;verticalAlign=middle;resizable=0;points=[];autosize=1;" vertex="1" parent="WIyWlLk6GJQsqaUBKTNV-1">
          <mxGeometry x="170" y="360" width="60" height="20" as="geometry" />
        </mxCell>
        <mxCell id="-5Hmd3j96fy0O7xBrkAN-9" value="" style="shape=image;verticalLabelPosition=bottom;labelBackgroundColor=#ffffff;verticalAlign=top;aspect=fixed;imageAspect=0;image=https://rickhw.github.io/images/DevOps/cover_CICD-Overview.png;" vertex="1" parent="WIyWlLk6GJQsqaUBKTNV-1">
          <mxGeometry x="560" y="47.5" width="520" height="325" as="geometry" />
        </mxCell>
        <mxCell id="-5Hmd3j96fy0O7xBrkAN-11" value="" style="shape=image;verticalLabelPosition=bottom;labelBackgroundColor=#ffffff;verticalAlign=top;aspect=fixed;imageAspect=0;image=data:image/png,iVBORw0KGgoAAAANSUhEUgAAAggAAAFcCAYAAACtC0YfAAAgAElEQVR4XuxdB3gU1Rb+d7anV5JAIPTeu0pTsYCioAgoiIggvRNBpPciCNIRUEBFUUBFQClKVXrvvQVIL5vtU9537uymQCAbCLwIc9+XZ8jOTjlzy3/P+c9/VJIkSVCaYgHFAooFFAsoFlAsoFggiwVUCkBQ+oNiAcUCigUUCygWUCxwpwUUgKD0CcUCigUUCygWUCygWOAuC6isVquUkpICijSoVCrFRIoFFAsoFlAsoFhAscBTZgHCAGq1Gn5+fjAYDOzpVcuXL5emTp0Kp9MJrVb7lJlEeVzFAooFFAsoFlAsoFiA53mGAaKjo/H+++/LAGHo0KHS9OnTER4ejubNm0Ov1zNvgtIUCygWUCygWECxgGKBJ9sCtN5zHIejR49i7969DCCMHTtWBghTpkyR6B+9evXC0KFDGUBQmmIBxQKKBRQLKBZQLPB0WEAURSxevBgjR45kAGHEiBEyQJg6dao0fvx49kG/fv2g0WieDosoT6lYQLGAYgHFAooFFAuAAMK8efMwbNiwewOE/v37M5KC0hQLKBZQLKBYQLGAYoGnwwIKQHg63rPylIoFFAsoFlAsoFggTxZQAEKezKUcrFhAsYBiAcUCigWeDgsoAOHpeM/KUyoWUCygWECxgGKBPFlAAQh5MpdysGIBxQKKBRQLKBZ4OiygAISn4z0rT6lYQLGAYgHFAooF8mQBBSDkyVzKwYoFFAsoFlAsoFjg6bCAAhCejvesPOUTbAG3wikNZkEQWO4y/VBT0f84FdScGpyaY8po7O9KfZV87xGkMysIIhy8AEVzNgfzSoBarYJOowb3gP2PurVdAJiBH6ZEkOv7WjWgkYeE0nKwgAIQlG6hWOA/aAECBTR4bTYbEhMTkZ6WhtuxsYi5EYP4hHikm0wQSENdp4evry9CQkNQJDISYYXC4O3jheDgYBgMRkXfJJ/ePYGCmJR0HLsWj/1XbsFscz7cApZP91WQTkNK/cWCfNGoXFGUCPVHkLchT0CVvh+TIuGHfRIsdgK5D/50hA/UKqBeKRWeK62CUSk3lKMxFYDw4H1M+aZigcdqATcoSE9PR0JCAo4fO4ZjR4/i0MGDuBkTg9S0NAYYqLgKL/BQSSo2AZPImUarhl5nQGBQEMLCwlCnbh1Uq1YdVatVRWhoKAxGY4Z34bE+1H/8YvRO0u0ObDl5FYu3H8P52GQGDsSH3eH+x+2S0+2TrbRqDoFeerxcpQR6vFADUcF+0Kg928KTTQ9dFfHRXBFpJoDVFczmqpH/QcAhowoxgQj3MezvrjtTAU4RKFZMhaFvcmhYloNR9wQa/SEfSQEID2lA5euKBR6HBWjRJ1Bw4vhx/L5uPQ4c2I/bt27BYbOx+Y9c26IowGDQISQ4AD6+PlBrNMyLYE43IzklDelmGyRJhErFQc1x8PLyQmRUMTRt2hStWrVC6TJloNMps2Re3qfJ5sDKf09i/pbDSLTYwWk4qMC5dsZKoOFOW5JFJAqF8SKqRoZgfOtGqB5VyCNPAgGEI1dFdJ0v4vmqwKsVJeYFcDcCBbLF2VXk3xgioL/LiI36P4tQSMDh6yqs2KFFsC+HAS04vFZNAQl3vi8FIORlNlCOVSzwGC1AkxtxCmJjY/HvP/9g7dq12L5tO5wOBwx6PZtUWcU1jRpRRYugwbP1UKVqNVStEImQ0ABwGi1E3omkxDRcuBKH85ev4vqVSzh06ARuxsbBZrHCyfNw8DyqVKmMDz74AM2aNUdooVDFm+DBexZFCbvO30D0yr9xM9UMnVYDkRYp9uPBCZ7CQ4gPw6k4tlBbbU68XacsJrRuCH8jhRvubxA3QPh4noh3Gono8xLHcAAvinAKAC+IcIoSeF4CL0hw0t/pd5F+l+AUJAi8/Dtd62KcFl/+ocftFDXKRwBD3uDwQkUO3sw1oTSygAIQlH6gWKAAWoAGZkpyMvbt24evv/4G+/buYQXTwkILwWQyISkpCRqNFuXLlMA7bVqgQYNGKBzkBZUkglOJbAKmyZO5W8G5fgCRU+N2sh23bt3Aru27sH3nHly8dA1Wm5UBjRZvvIGBAweiZMmSCj8hl36RZrVj4u97sHzXSeh1GrZHpYo1Yf7e8DMSgCuAHev/eEtkjhtJJiRb7NBq1BBEEf4GHaa/9zxeKF+MebXu1wggHCUPwjwRbzcU0e9lDkRadPIEDFQyUBAF8E4CCAQcJNiZt0KCgwEIAU4e4Nm4kHAhVot5m/W4bVGD44GSvkD/lhzerK2Cl055eQpA+D8OFuXSigVysoAoCIxLcPLkSaxdvQYbNm6Aj7c3alSrxngDBoMXVv/8M27fvIEWrzfFW2+9gqgiEVA5nJBEcp7K/lNy4zLXKtvNElign0wXrFpvhKDR4ebtWOzYsQ8b/tyB02cvItVkQuMmTTBkyBBUrVZNqeJ6j25Kdr2RlI7+32/F3ku3oNGomX1b1CiFjs9WRmSgz0OR7J/I0aEC/r14ExPX7kacxcEyGkRBRJ+Xa6HXCzVg0N6/YnBWgNC6oYi+r3CQBMAhiOAFGSA4REH2EtC/BTEDIDAAIfBwOAGBkBznAgib9LhtVkNF2MQJlAoCBjTn0KyGCv5eCkhQPAhP5EhUHuq/ZgFacBwOBy6cP49VP/6IX3/9DTqtFo2bNMarzV5FQEAg/t66Bb/9+hsqlI3CBx1aoWLFctCrAAIVEAVIlOIoOCEJPOMjQORd6WBuYEBJj65oLPOBq6BSa6A26BGXbMKv67biu5834fqt26hVuzYmTJyIqlWrKiAhh85EoYRTMQno+91WXIhNZWAsIsAbs9q/iLolIsBxyuKS0xi0OnnM+nM/5m8+BLVex0Jcr1UvhYlvNUSQj9FjD0K+AwRXsWKVEyiiB3q34NDuORV8aIA9xU0BCE/xy1cevWBYgMABhQy2btmCFcuX4/Lly6hXpzZea9ECxaOK4+SpU/jt13WIvX0dzV5qgDZvv4bI8EIQHA6IAg+Jd0Lk7ZAIEJAGgiTHWGWtg1wmOEqXlCRotFrwkoT1W/7F/G9+wcWrN1Crdi2MGjUKtevUUcINd3QVstmJG/Ho+/1fuBSXCkpbKB8RhHkfvITSYYEFo2MVwLtwCiK+3X0CY37aAc6oh5MX0LRiMUxt0wShfl6PFyDc1mLun3rEWtUZ4SAGm3mgqA/Q4xUOreqpEOJLwPrpbApAeDrfu/LUBcQCMjhIxLKvl2Hp0iUw6g1o3/49vPzKy7h+/Qb2HziETZv+hNWUiuiBXfDqK42hkwDR6YQgOCE4rIDgYAsUOCaL9EAJ4jQRMECh02DLtv2YOHMFYm7Ho3rN6liwcCGioqIU4mKWPuMGCP2+/wsX41OZ37pCRCDmdnwJpcODCkjvKni3QQBh+e7jGPvzLqgNOjidAppWisLUNo0fL0BQSbgUq8XCTXrEmykd2BWdI4BA3Ecn4KtWocfranR9gYPXU5rcowCEgjeGlDt6iiyQmpqKFcuXYf7ceShcuDA+/rgrSpcug2PHjjPPwcULl2AxJ6F39w5o9EwtaIhHQDoHThtEp5V5DGh2yw9lRDdIEDUcVq7Zii8W/ACzxYbXX38No8aMQZHIIvlynSfh9eYVIMhckKcjtYH64r36Y0EACDx1QFGCxaHG0StqWBxyGiS9U0GUsTbRIXaf1qGQQYd5PdWIDMwEEU9C//X0GRSA4KmllOMUC+SzBUjbYNOff2LokCEIDAjA4EGDUK5COWzfvhvHjx+H2ZyO06dOYkC/j/DGSw0g2m2MfMjbzOCdVnIYyCGEDPKhfINuOeW83q5biElN4QajH6bNXIYV360BVBK6d+uOQZ9Ew8vbO6+nfSKP9xQguG1qSjchOTlZFvB5Qh3WbqYLKXcG+Acw7sqdQKGgAATSYSDeiAgCBXJaJJEcKUXS5pQQ7KfGmn99EBtvxILeapQIUQBCdHQ0RowYwcazaurUqdL48eMxcuRI9O/fX4lBPpHTnPJQ/08LkL7BkE+iceTwEZZaWKVyZWzfvh1Hjx5jk1ZMzHW8+uIz6NypLbxBQki8CxzY2BLDdBBcHgROrWGEQ4lo3Twvy8LkIc+O7W4pRVLnBc7LF2l2AddjEjF+/OfYf+gYAzBfzp2DF158UZkL2AZU5iDcL8TAVBbT03Hs2DEcPXYUN2JuQGISi09uI5AQEhyC8uXLo1atWkzaOytgLQgAgXJ9HE7SSBDZOCN9hEytBBE2u4DwAC3WH/BDXIIB8xWAgGHDhkEBCE/uuFWerIBZgASQ9uzdi+4ff4wSxaLwzLPPMsnkAwcPwuF0suJKFcuVxMJF0xHmrWOCR7zdDMFmzggpsIJMnBp6Hz9A74X45DTwDhvCjJT+JRdt8hQkuI/VBIRg9/5TWPvLRiQnpcJstuDQsdMsRkvZFNNmzEBQkBJj9wQgUFbKtm3bsPaXtbBarexdePo+Clh3zdPtsL7EqfDcs8+hzTtt4Ofnl/H9ggQQKA2SF1WMKOkkwSUSVxJIwIlHeKAWGxSAoAgl5annKwcrFsgHC9jtduzetQsLFyzAnn//hVqtYZUWqSZC6VKlUIwyF06cQFpqIpYvm4UQnQa83QKn1cTcou5kRbXWAHj54tTFq1i/cRuOHDkFm82BZ2tVQKfWLyEowDf3LAbX81BapNbghf2nrmH42C+QlmaC3cnDZncwVUASsSFgMG/hAtStV++Bwxj5YL4CcQpPAAKBglU/rcIff/4Bg97APC9u9csC8RD5eBNu4OPmWtCzlytXDj179kRoSGjBBAis+qkMEBwMIABOQcgECAf9EBeveBDmzZuneBDycawop1IscE8LOJ1OBgqiBw3G1StX2EJbvHhxtHyrJRo3bMR2W4nJKYybsO63tVi+aCpKF4uANTmOhQBUpDZHcWxabLyDsPXfw5g5azGOnTjLdBMMOi30Bg0mDe2Opg1rZRatyeWdsDoORi9s2nkYZy5dQa0q5WB1OnDs1Hl8u3Ij0kwW6HQafNytGwYMHgyD4enWo/UEINBO+tq1a0wim0IM9O4JJDypzQ0O6L+U9dKyZUvUqFEDWk1mqcQC5UFQAEKuXVEhKeZqIuUAxQL5YwGaOC9euIjevXrh6JEjMBoMaPpSU7Rr1w46vR4XL1zAtes3YEozITYuDocO7MG0iZ+hQa1ycKQmguNocZH1k7Xevvh770mMmzKfFWNq/mI91K9ZCUH+PrDa7ChdvAhCgwM8dmm7GfYOBw+NTsOUASUVIKiAwycuYO6iVdi9/ziaNGmCOfPmMW/H09w8AQhkHwolpaSk4ObNm+wnITGBuW2ftOYmXlKRsMIRhRFROIJVDdVps+cH5gdA6EK1GFxKiqQHRkqK5AlgSoqCINdiYMqJIuzsM5eyopippOjgSX2RQgxuqWZZmjlbiEHxICghhidtoCrPU3AtQDvI5cuWY9jQoazYUvPmzdGtRzdcuXwVu//5F2lpacyjQOxv+v3IwX2YPmko6lYpDpFi2BzHSIlqjQ6JFgFDx83CyVPn8Umf9mjxYn1oOXUG74AmP2qe8hTdAEHOxCOhJVbEgaV/afQ6XL0dj279J8LGqzD/q4WoU7uux+Cj4L6RB78zTwGC+wrubAYCDPKLefBrF8hvuriX1H/doZSc7jM3gMBqL96Dx0l/Pxkjl3t+p4GI3i9zUKtcWQjuhd4FCKj2AgEDBxEQBQIOWWsxSCCAwGo4uGo2EP/Azss/xEEIIw6CAhAUgFAgB5tyU0+kBWjRH9ivP3795RdUr1EDEydNxPnzF/Dvv3vYTtPN9qb/UmnnsyePYdnc0SgeEQDeKbAFmXafnE6PP/85ji9mf4P332qKNm88Dx0Vv3GBAqaLkGUV8hQk5GR0N3BQ67T4fvWfmDL/B0ydOg2t3n77iXaX59YB8woQcjvf0/L5/QBCiJ8XLsRJOHSVeDY5Y6gbKRIW/SmhXgURzapy4FSucs4SXOmK5BWQmDwIDQeeajMQWMj4XMr8XaRqqbL2AXkfDBoBYX6kMaIABHd/LHAhBhp4bkY195Swfp+WyeFpfk5aaElCudP77+PC+Qvo3acPmrzwPH5Y+SNID8G962IAgONw5coVxN+6ju+/GotgL0PGmCAPAlVkXP7LXzh35hI+6/Mu/Hy9GTi4kyHvLjucKbuctzfAMh8ZKVLWVjh/+QY+HDQJ73/QBX3794Ner8/bCZ+go/MKEB63SFJBzZa4H0AI9vXC0p0iJq8SwauYMOhdTeAACw9oOQkGKrCUJVojQwUSDpMjcXLPpV9IXVQuS5Lh0XH94tZuoK+ViHCidZ10cKIDIf7kQfBVSIqiiAJBUqQBZDJbcfDoRVy4dAtqToXqVUqiSoUoaHOp8vUEzTvKozyhFqCFn/LhO7bvAKvFgokTJ7BKiqdPn4FWq81Y3GVwzOHYsaMI9tVg/owh0GcR15EjABKuxMQyUFCmeAQkmgCzTn7seMr15hkr28tokImNd7oSsggsyZpLmedxgwOTyQyLw4nw0CCkJKfi/b4TUK3Os5g0eRJ8s6SvPaGv7Z6P5SlAoPdJnqNbt25BEIVHK5LENLMkBjZJldPP1y/HMBAdQ6CUqhtmWzXz8SXSPWTt1+5T5wYQvtouYvSPIhxclu54J1Bwrfv5eLtQ8RKqRAno1DAdJrMFwb5arFcAQsEJMdgdTqz4aRumzVyN+MQ0NqFVKlcUo4d1QMP6FaDTZTJh87NjKOdSLPA4LEALxd49e/BBh/fZznvEqJHYvn0nuzTtzuWYvyz3Sovz/v178ErDqhjSqz2cdj57dUA6wLWYM2W+bAu7XOqZ02hw/XYijp48j1efrws1HUcZEO6dkyvQS4sWpTDeWcOBLWYU6jA5MfubNRjV7wM4zKno/dksQO+PRYsXITgk5HGYrkBewxOAQO8mJiYG69atw9lzZx+b1DL1h5o1arIsAlI1vLN/mM1mJsh15eoVOe0yn1ECPXdQYBAaNmiIIkWKeCyURB6EJTtEjCKAQHxcNzBwb/3v/LcnPYO6vOxaYOMqG0bOAjxUgoSqUTw6NbAgLd2sAASXbR9LiIFejECuUSJYMRJL5kRF90GfHTp+Gb2i5+PEuRtscqPOITp4PFe5BBbPH4CoYoWy75LIu0SElHuc05O+oxyjWOBxWIAmzMSEBMyZPRtLvlqMkNAQ9OvfH39v2wE/X9IqcKkiuhZtEkr6Z/cudPvgdXzQqil4BwGErGNGBhFyy1JoxqX3z2n00Bh9cDvVhNmzv0bXD95AZEgApCxhCLbT1Kjx26Z/EFU0DFXLlYAoymCDximdXmvwQZrkj+59BmL6xGgEagSMmLIIV+LNWLZsOcLCwx+H+QrkNTwBCDabDb/+9is2bNiQCQIfw9OQWqNOr0PH9zuifv362bgixHXZvXs3vln2zSMHLM888wzatW3nsVDSXQDBFULwcSXvpPNyISVfNWCjSIIEeKnlciTyGJKzbqw84KMBHCJgcUUc6Di1CjBReEIFGDnATNwD6ujkrVAAQo4985EDBOqQV67H4cDhC0hMSkNUsTDUql4ahYL9M3ZF5Apd+sNfGD7pe9h4AWoVx1AtfTdMDfzw/UjUqVk2AwmTa/XajXgcOnoRsXFJCAsPwrN1KiC8kOdpXY9hnCqXUCzAJuHExETMmzMXS5YshsALKBQaim7dumHPvgPw9vbKtsOjBdpssWDfnn8xenBHNH2uBkRe5iXk1uTwhBpab3+Q9LJTq8HUzxehROFAtH6tMSReJjpSo/vSGrSYNvcHBth7dWrJJlw3QFDrDNAa/GDjvDE4ehierV8Nrd94CVOmz8c/xy5j8ZKlrKhUQY1152arh/3cE4BAO/Vvv/0WO3btgNFofNhLev592pAJAt5q9RZeffVV5up3N8qk+fHHH7Hu93Xw9/d/ZCDB4XQgPCwcA/oPQHgWIJlbiCGbBwGAwQkMf0cFHQeMWinBGAQMb8Hh7zMS9Brg7RoyQKbhQUDhzG0JG08CvZ9X4VwcMPsPkQGKAW/QmgJM/01EpTAV3n1ehUVbRey9BEhaBSDcq3M9UoDA4q4nLmPMxBX498glOJwCvI16tGpeD9H93kZk4WA2wZCS1arfdiN61NdIs2WKifBOJ4oYOaz6fgyqVSnFOgKd8+Spqxg3dSV27j8Lm8MJvVaNN1+phTHDOyE8NMDzgaQcqVjgEVsgPi4OUyZPwerVq2F3OqFRqVhdg65du+Lo8RPw9vLKcPC6yblpJhOOHTqEGSM/Ro0qZSFmyXC43+2KJKQEDlrvAAYQOL0O2/cdxewvFyG653uoUaEUAyhuNT8SPlr5y19Y+sMGzJs2GCUiCrHxRYuLwcsPOm8/klDEhr8P4vPPZ2Hpokn4+ad1WPTtr/jww4/Qs3dvBAfLY/hpa54ABIrzHzh4AN999x2SU5Ifm53Ig0AchJ49eqJYsWLZwCW9223bt2Hp0qVMDvlRFY6ifkQehPc7vM+ASAZAuU+555xCDD424NsBHLRqoP0EEcZw4KtuHH4/LGHHQQll/IEWjTnUKKnCvDUiTsdJ0ASoMLsjB6sD+GSFgMIBKoxty+F8AtB3oYC6RVTo/w6HcatFbDgmQdQpAOH/AhBSTRZMnv4D5n61HpKXkfmHRJ5HoF6LiSM7ot3bjZk6G+1mrt9MxMAhC7BxxzGAKW9J0Asi3nytHiaP+RBhroWfzjlpxirMX/oHBK2aKcqR61Qv2jF3ag+0btmYibwoTbHA/9sC6aZ0fD5tGuYtWABvnQ4v+PrigMUC3mjEB506YefOXWzxp+bj44OAwEAmyUuV/44fPogZI7uhaqUyngMEl69VozOAPABEAzcJPEaMnomE2ARMGNIVRcJDWHiCxhx5Jc5cvI5un0xDmzdeQO9OLeVUSRWQmJqO+OR0WKxWnLseixmzvkbHdq8j0McH475YDB9vX3Tt1g3denRnC8DTBhI8AQj0Xm12G6vMefHiRXm3/hhqNUkqCVUrV0WFChVyTEUl0uSmTZtw9epVGTzkM76j56Q+8XyT5xFVPIrVFckrQLDTbXGAjxVYPpBDZLAKC7eKCPBToW1dFb7ZKeKrPyRwIjCkNYemlVXoMkfEuUQJz1ZS4Yv3ONgFCXsuiPDScahfGridpkLfRQLquQDC2NUCNh6DAhDuM1E+Mg8CjQUKA3Ts/jn2Hr8CnVGfsXPROHj06/oaBvZ7G77esmQrI3EdOIf5SzfgwMkrUEki3nipNrp92AzFIkMzUPDN2CR0GTgPf+0+weJsMskG4Bwm9Ov8GoYO7gCj4elNv/p/L4rK9WULUBW/eXPnYf6C+bA5eXwYEIC2gYEYGHMTF3knggODmLKenEhI9ee1CA4NQcUKFVl2wP59+zCsT1u83KAmW7RzCzG40+jsTgd27T0GKtlcODwEXt5G/Ln9ABZ+vRp9O7+FDm+/DEhEiqR0YuIyiPh84U/YtH0/Jg/7GHWrV4Bo0GLMxIVYv/kflidud/AwGPSI7v0uVJKE0Z8vAafRwcfbi1V6ff+DD+D9lJWB9hQgUF+gXXuGQNJjGiCURXAvWWfqK1RIin7yGxywx5PAxL6IjHtnv/UoxPCDAEFUQVIDXk4ZIBQOVmHxZhGBvsBb9Tms2CVi0RYJahEY9haHFwggzBdxJkHCc+VVGP8Wh12XRDQorcLtVOBsrISaRVUYsETMBAg/C9hwVAYInCShajEXSdGskBTd3fSRAQS6wO34ZPSOXoANmw5A4+vN3FnkBjXwAj7t3xrdu74GL2PmYs7zApJSTLh0NY6FE8qULIxAf+9su5P4xFT0+2wJftm4FxoCAgQQiHDlSMfYwe+he9eWzCuhNMUC/y8LUDGm5cuWYczosSwFu4WfHwaFhOC03Y5hsXFIcTph1OtQsWJZVCpfkvXvoyfO4tSpczB6e6N69Zq4du0qWr5aF93aNYfzLpLi3U8mewRUiE1MRe9hM3Du0g0EBfhBr9chITGVMbrGRXfGq43ryuWeWNKECI1ag0vXb6H38Jnw8/XBlE8/RqkShbFlx0HMXv4LrDYHqpUrgaZN6qJhvar4Ye1mzJy5DCV8/HDGYoF/YABGjhqFN1rSuMsuq/v/sv/juG5eAMLjuJ//yjVyAwiLt4v44kceLRqocT0V2HdQwjeDOejUQIeJArzDVFjYjcPGIxIWbpE9CMPf5vB8JRU+cgGEBuVVmNyGw6LtIkoEqHAlXoKPF/BydRUGLRZRN1KFge9w+GK9iO0nJfBqIMUioVwkjw8pi0EBCBnd6ZECBKoGt2bdP/jks8WIS7VA0qihcgqoVqk4vpj4EerXKndXRoPsTZDzUnLaNRGhce36Pfh07DLciE0G1BqonA5UKhmOxXMHonrVUtlTwv4rI0e5zyfCArRT/Hf3HnT9qDPi09Pxsp8vJoeFgShSXW7exhGLBUHeRvTr/SGav/kaDHpZmjY+LhEL5y3FT2v+QImSpREUEoJC/mpMGdmdjRlPXPi04NPQ2bzjAH7f/C+u34pn+e4B/r54rWl9tG7WGDqthnksZIAg+7u1Og2Wr/oT42atQJvXG2N4/45MCjrJZmOqcz5aNfScmnn1vv11K5bNWYH+YRH4KS0dO9PSUKFsGcyaPRtVq1bN1dPxRLxkmqMkCSduxKPf93/hYnwqk+qrEBGIuR1fQulwpRz2vd6zJwBh2U8CvhyoxokYYMI3IhYM4qDlgI4zRHiHAvM7cfjjqISlf0vgJGBoSw4vVFLh44UuD0I5FSa9w2H6RgHbD8rkxXYvqvByNRWGLhNRu4gKQ9tyuJ4iIdEM3EoBlv5F/DgenRopaY5Z390jBQg0/ySnpuPn33bjj78OIyklHVFFQvBOywZ4oUGVbN6DvEwcqWlm/LJxH37/cz/iktIQEeKPtm81RLMXa8Kgf3p2MXmxmXLso7cALbhnTp9Bzx49cPz0aZTy8cGXYYVQWW/EQZsVHWNuQlKpMJzvJlIAACAASURBVKBnR7R6+3X8s+MfHDp8AoUjCqHpy42QYjYjevAEpKfbEVmsGJyWZHw9fyT8NTJPJzeQkFWtL81sRbrZytKADUY9gv28oSEOkCul0m0Nt+chxWTG9IWrsGHrP+j2/pv4oE1z6DRy5gRTZBQlcCoO3/z8B1Yt/AHTIoviJu/ElMRkXLfb8WKjRpgweRKKlyjx6A1dAK7wWACCJGZyFmQlK8+LaxQAG+V0C54AhKk/iqhZQYWEdAmnrwG1y8hUyr0XqC4IULe4CjeSgcvxsiBY+cJAuJ8K+y5JSHcCwd5AjaIqnLwt4VYyy2JE8VAVIgOBA5clBBuBKlHkeZazH0x24PhVEcXCeHzY0AJTuhlBilASe32PFCC4JxeqEEfkQovVDj9fL/j5GB+KSEgTltMpINVkRrrFDj8fL/j5GqAl/QSlKRb4P1nAnJ6OIdGf4Keffoa/lxHzIiJQ22BkE9RaUxoG37qNmhXLYOnSmTh57DimTpmDS1duIc2Sjsb1a2Jw3w/w3aqN+HXDdka+DQow4uclExEW4McW+twAQsZi7gITWVMa5ZVGlpzNylyX5ZglplYan5SGAaNm4/DJs5g8rDveaN4YDotNFqx1TaYLvl2HDcvWYkqRIvDjOGyymDE3KRUmqxX9BvTHoOjopyLU8CgBAvOfOh0Qbl4GbBZApYaKwjdGL3C+QVBpdVARkfs/mD2SG0CY/5eIaStF5rli8sjUX13ETsmV6Uu0XpJhVjH9Aynzc4ahMv9N9iFFD7m/099VECklUv6a6/9UIFInfVC2lIAPGpqRblU4CO4pNN8AAtnbZnMgJc0Cf18j28lTTDRrk3c4mcIu+TGP53ROcvPa7E4kJJsQUSiQuVVza3eKdWV2n/t/09WPMw5yC9jkNnbv/F5u95fRpx9hIbicbJCx03yE1/Xk2Qv6MZRf/seGDYy0Z7Y70Ts4GL2CAtk8RIVgVqSkYEJcArq9+yaGjeiPWxfO4/Chw1i4Yh2qViyNk+euoF6N8igZVQSr1/8NnUaDhvWqoWObV6FxaSB4AhDcICEne93r+/IYkqDVaXHkxAV8Mm4BUk0mjBn6MV5oXBuwOeTTqVSYtvBH7F/9J6YWLcoEZ5yiiCWp6ViVkoqoiHDMnjsHderWfeILOeU/QJAgCU5IvFPO9kpPg3nhGEjxMZA4DVQUntXqwQWHQx1ZCppy1aGOKgu1T4C8Df6PtPsWa/L1wrlYCYddxZrkPpf9wdLtwKbTEiqES6gY7p6xSMCDtrtEWCfUQARcWSGSwgusvo9LSVEm5lJESK4CSb/T55S84+clIdDLgZhEK0L8NIrUcn56EEgq+dcNe7Hgmz+ZEFK7txuiWOEQ+Pt5ebRAP2z/phdttdmRmmbB4ZNXsO6Pvdh/6CImDm+Pl5tUv+fpaXJMT7ciPtnEOgoViJKb3Hl8vAwIDfbLFlul7xCzOyUlHWabXe7Dru8R41yv06BQSAAM+uzy0HR+k8mCpFRzRvEdz59bvh8CO0wal1Ox3328jNDp1B7tLu91Lbpn8vBQOCij1G+2kSnvMknAKijAF76+xoe6nufP/N858uKFi+jauTOOnz2LogYv/BpVFN7gYJdEJPEOrDelY0pCIj7r1RG9enWClJaMzdt2Yd3WfzDq0x7YsuVf/LHlH4z+pDP8fbxJfgB6rY5NYvfi4zyodZhSoiTzGjiV2kX0lfkLeoMB+w+fQvdPPofFZseMiYPQrGFNOGxWEIl40KRFSNx5CJOLF2NcIeJW3OJ5DIlPRIzVgqZNmmD23LlPvAxzvgEE8uDwVojmJAgX/gJ/ZS+01VpDFVgO6TOigdtXIaldaYJsNZP3xNAboSlbBYZX20NbujLzKvwXWq7lnu+TCUqPf+qWiL5LRbSuL+KjxhzzBPASKepSfQkVeEkAzxMolwEA1SKRSzpTuWcRvKu8s9NVBtrpqujopM95ERaHiFQzj0IBSrEm6k/55kFITjVjzLQfsXj5n+B0Gvj7eiEyPBD161RA1YpReKZWWSaM5O1lyLfFhW7elG7F6fM3sP/oRRw6egFHj1/B9bhkWC12OEmHYUIXDPj49XuOHQp7TJu1Gl9/twWiVpN9WRQEVIgqhPlz+qNksbCMc9BE+deu4xgz6Xtcu50ELot0NC2kPloO08Z9hGYv1c4AFjTNE3di7LQfsXbdPxDlEnt5HtN0KVqodQYdggN9ULlCcdSpURrNnq+OkGD/PIdu6H5v3ErEyPErsHXXCbZTyakxgCBJaNOqIYb0e/uu7JI8P8gj+gLdZ0pKCtO/v3HjRsZVSE3ulVdeQcWKFVkKVn42ShebO3sOZk2fDh+1BvMKF0ZVo4FNULG8HTyAfy0WjLidgA/avobRIwcAyXHYtO0fHDh2Dp8M+AAJNxOw4e89aPZ8XYSHBLGQApEOZdd+/u0QyT40bjQGX0giD9Fpy+yjruJNVE563je/YPaiH1CzSlksXvQF9LZ4mK1WdBo4FcWux2Jw4TAmZUtdmKz5t8WC6QmJDDRMnDIJ77bvkK/37X5fdO9xcXHYsmULUlNT2TstXrx4vr/T3PpHfgAE0WGBeP0A+LObIdw6BjjMkExp0DbpCW2FN2FeMgnC8X8pZzBzrmB4kTghAuOFqIw+0D7zEowvt4M6NOKB5pTcnjU/P88NINzvWgRgj1wV0XWuiHcaiejzMgdRABxs4ScwIMHBEyCQIC/49DdR/rsI9juBBwIFTl6UfwhYMLAgMU+fk5dgc0qICNBg0yE/xCUaML+3GiVC8tfznZ82fZTnyjeAYLbaMGfJekz4Yo2MeJlbR2Q68lpRRIBBg1eaPYNxn3VARFhgNpBAk6HDIbCQhFbjKlzjqtFAqI929XeGCRgh7OJN9Iueh6OHziON6nqzCmIaV2hDgmi2YfbnPdD53RfvaUPaOff+dBHW/L4HHEmSZlmzRV5A0UAfrFjyCepUL51xDuI//PrHXgwavYx5HkjT3t1o0GrsdsyZ2g3vtnkhM0tDAuITUtFt6EJs3HoEahJ5yjs+kC/jip/Rzp/Aik7gEVXID2PGdcGbr9TLU/VLsv3ufafxUf95uBmXAs5FTLvLYOSW43nUqlYKC6Z2Q4UykVm8LY+yi+bt3JRiuHDhQmzevBnlypVjiyEtsNevXwd9NmnSJJQvXz7fQCr1w5gbMayM8+nTZ9Eu0B+jwsPhlCSkCk4kCwJ04HDJaUevmNuoUq0CViydA4PlNvYeOIa9R8+iZ5fWAOWku+KlmdUZcycm5sk6bHcmApwGOp8gNkbt6YksO0EO/alkoSSNGruOnMWAT6aiw9uvYsDAzoApFbEJyXi/1zg05QV0CgyExVUAinLI6eezhATsTDXhxUYNmThUSD4Xc6J3eeLECYwYMYJlZ1BaJYHBYcOGoUmTJtkkhfNklwc4+KEAAs2N6XFw7P8e/PFfADWY8iWLmTtsUJdqDP0LQ2BduwTOzT/L/IMcJguZPCpCtNqgKVkbPt0+ARdRNFtRrgd4tEf6lfwACN0XiOj4vISXqqnAcbJnlcIJshCVrCvCwDUjMQiuf7s+Z6wEF8iSv+Wqa8ICEhkF0wiMLNtsxKVbXpjXS6MAhGHDEB0dzcYeNdXUqVOl8ePHY+TIkSyuei/RDXdv4gUB6zcdQKd+c8CT4KuLf+B+aU4nj2BfI8Z/1gHvvdUoY8EnALB1+yGsXrOekUl8yL2qkmklJE1rttng6+WNbl3bokypyIzzppttmPzlanz51XqInAocgRLX9+ieaAIx8iJWf/8ZGj9b+b4Aoe+wJVi97h9w+syyu/QFwckzgLB8MQGEUtkAwm9/7sPA0cuQkJKebdfOdmdWO+ZM64Z27zyfLY2TNBx6DFmEDVuPQqPLBEIPMyLl8DEhYCd84MRH7epi6Cc94O8vFwHKrRHTfe6S9Zgy+xc4mcv53p4NkuklXYrJn7XH2689c1cIJbdrPY7PqUDO119/jcOHDyM0NJSBAlKUoxQ80sXv2LEjatSokW+7W4vFgrlz5mDOrC+hlYCfixdHlE4LsyAg1mljKnLUlylW3z82HrFaDRZ8MRp1yhdBSkIizl+OQbXKJaFhanPuOrbUN/LZWi5yjNluw8U4M6qUKQnJmkpOxIxAL/OEaXVINkuYPHMp1q3fjLmzJ6FRpUhoNSocOXUB3QdMRN+AIDT0MsLBvBuyDgkF0/ZZbRganwAfnQ6jRo1G23fb5hthka5BJZMnTpzIJHxNJhMb4yVLlsTvv/+OgQMHolQpkmPPb8Pl/B4eGCDQWL1xBPa/ZgIpV6FiarB0z/J9C7wDXERNGF4dBdu6FbBv/B6c3nB/zwCBdxsPdUhReHUbAm2ZKgXWk/CwAOHwVRGdZotIsoGlPsprvatcY46qT3dKVxJouAehys3GZSsgYOdVqBiqwmLyIIQqHoSHAgi0MB46dgkde3yBa/Gp2XbV7pcoOXi0fqUOJo39kBVWokZkwmlz12LKl6vY5MTwn9vVyVyrEoyCiEUz++H1ZvWg1ahZhzh2+iq69J+LE+dvMEXFO5vTakfxEH/s2vI5gkh+6x6NPAj5DhBssgfhcQAE2bauvHZRBJ+cjM+i38WQge08Cjdcux6Lj3t+gR3HLkOjl9Uu76WuxtzTdgfat2qI8Z+9j9AQv3xexR7+dHSPtHicOXOGhRiWLVuGtm3b4sqVK8wN3aNHDyZrnB8LCV3r/Llz6N29B46fOo1OocFMEIlI0bcddjgkkQFrtoBKwApTGpbEJeGVF5/F9DF9oBNsTKiIwLXc7V2TGQHdLGD3Qa3iPp+7lDSB6P2nL2LeV6vx+bheCDAa2aumRZ7j1EiSROzafRjjpywC1UF5vVlTDOnZBlpJhF6rxepNOzF2/AJ8XjQSJTVaVjnPzdmhfRl5z4YnJOKAKR0N6tdjXITCRYo86O1n+x4Rj6lE8c6dO9GoUSMMHjwYVAypWrVqTKVwwoQJKFs2s6Bbvlz0Pid5IIBAHtXYs7D/PhIqS5zLM5D9IoLAgwsuDX2zcXAe2gPr8ungyEN5vzCTawIQrQ5wJarBp99oqANCCiRIeFiAcOyahBHLRKSYybv2aN8yOdaiQlQY04ljAOEOzv2jvXgBOXu+hRjoeSiDodugufj1z4MuaeU7Oj8vwN9bj/FD2+PdtxqyHShNiQcOn0fnfl/i4vUEaHSZu3jq97zNjjeb1sT0CV0yQhPkPfh87i+Y9dV6Ft/NygHIQJR2G6L7tkZ0r1b33ekWJICQNY/dk/6R0yJHk2WRAC9s/GksSkSF3XchpJf/967j6DloPq4npkGjJdvf+8p0f7yTR82qJTFvYhdUqRCVLwutJ8+al2MYidRuZ1XrLl++jMqVK+Ovv/7K910mZS6s/G4lxowaCb0oYXlkEZTV65HM80jkqegYl4G1yI0f7xQwKDYOCZKIoQO7oH2r56Gy2lwaB7QGqNl9E0LT0G7eBRTy+uzM/+YqbOb+LgMCGjUOn7uCPtFTMKRPRzSqWxUWixUxsYnYtucIdu45griEZNSvVxWdO7REhRKlodY4kRyXiIBgf0yZ9S32/74NE8PDYCAF0yz3R+NYI0k4bLNhVFw8RLUac+bNQ/PmzfOlj5Ct165di+TkZFSqVInVNvD19cWRI0dAtQWGDh2KsLD79/e82DG3Y/MOECTwt07C/sd4wHSLFdK6eytLmQwSJIMfDM0nQEi1wfz5YHAQADdR8X43RhxGhxOa+i/B+72+4HzvX7jOXZgrt2d9mM8JlGedpx4GINB9UASMkmru9As8zD3e87uu1F6D9j+VKJKvpshXgEBhhOU//IXooQvg9Pa+y41LE7fD5kC9aqUwe3JXVC4vVxojLYPZi9dj+rxfYBMk2S1P4IDn4c8Bc77ojTeb1WN/p8qP23efwMBPv8LF20lQE7HwjlWNdjI+HI9tv09BmdJF7ys3XlAAgps8JpPT7vGOqcOyCACFVLgc3eQsLmm1o2Pbxvh8bBcYjfdmN1PmyaJlmzBy8vfgOe4uoJXTXRD/ItDXC1+O74w3X63jkZciX3usBycjG1y7dg1Tp05FixYtcOzYMcY7aNasWb7GqWmxGvHpMKxcswavBQZiRng4W+xjnDaWqpaZESPHSGkB/SY1Dd8kpyIiwBsj+ndGk2eqwqDTQRQFHD11AT+t34GXGj2DxvUreVykyW0S9u6JF+ACCOx36iucipEHCSSkW+3oM2IWDh07jQBffzglJ8tE8PbyRq1qFdDq9edRp35VaB0OJCen4t8DJ3H87DV0+bAl3uv8KcqmpGNISAgsFOFVZQIgd5cVRAGfxSXgkNmCzh90xIhRo+Dl5eXBW7v/IUQEXbNmDfMONWjQAPPmzWNf+Oijj/DNN9+gVatWaNiwYb6FjnK74bwBBAlCejzsf02DdHUfVAyI54TEyQtDniQV9C8Ph+RTAukjO0MlOZkuhidNEgQGMrw6D4X+2VfvubIR4Lp06RKOHj0KJ+/MFxCX7f4kwGAwoG7duoiIiMgIUT8sQPDEBsox+WeBfAUINCFdvR6Pnv1mYufRS7Kgxx0DgRZAjSCgQ+vG+HRAaxQOk2VJr99KxJDR3+CXP/ZDYyBSDsA5eXR+rymGD2qD4EBfNvmdvXATA4Yvxo49p6E23H1+OsZpteC91+ti9vR+uao1FhSAQODKz9eI+rXKwqgjz0rOKMFstrFaFddj4iFAxQbenXON0+ZApSLB+G3tOKYDkVMjEEK1MqjE9pqN+6BxFb7KPshdsYssf6T3R4S0Pl2aY0jPlkz46lE1soEgOmF3pkClUkOv8YWayz2di7woGzduZLHp1q1bY8OGDejevTtzQedXo4Fz8MBB9O3TBxevXcX0iMJo6euHRMGJJIGXU1GzXIyFPSUJaTyP6cmp+CfdDG+9Fg3rVkGFUlFISknDlp0H4OXthYkj+qNGuUgIThtbhD1pbnDgDq/SuLNYbExfIbJwKEKDA6HTqMFpNbh4IxYHjp4ByZYH+vkgPCKU/YQF+bPKqPGx8dhz4CR+/n0biDcza8Z4ONJi8VHvUegWHIJW3t4w5aDsSNfWiSK+N5mwIDEJ1StUxIJFi1CylFxv4mEaLWjr169HTEwMK2VMHiHytrz77rvYv38/atWqxYiK9+dKEVfHDjufBk6lhV7rJ6d5PkDLC0CQnFY4D62E8+B3bKyq7hMuYFQ5qwO65/tBXawh0qLbQUWsLk8zbwgk2h3gKtSET6/x4HwySy1nBZKXr17GgvkLGJDOzyyZrKakcVizRk106dKFlQWn9rAAgRd4pNvT2fz4sKWq6RxGrRF6jSu0+gD94En/Sr4CBDIWqSb+vHY7+g//CjaVjuXr34ksKeZqVHMY3OtN9PywGXx9vNjiv3vvKfT7bDHOXrrF8n1fa1oLU8d0RrHIEDbZxiWkYsoXP2PJD39BpMnujoEms3oFeIs2rFw2Es83qJbr+ysoAMFhdaByxWJYNqsPSwe9lxONdwq4cPU2vluzA9+u2gG7QHHu7IsIhQFCvA1YuSQaz9Ypn6MN2AJ35AI+HjAX52MSGIv6zjnczW3IegIGwBw8XmlSDdNHd0KJYoUeSTYDsZCtziRcTdqJC/F/QKs2oGyhNxAV1AhqLru+xJ0PSLtN2lUmJCQwcuKuXbswYMAA5oLOr2YnMuTSpZgweQrCVByWRhZBca0W1+w2OFWUinr3gki2o5TARCePRWlp2GW2wmS1sz5LIgRFChfC6M96o9nzz8FpTnalIGZfwLLxCrICEBdvR60nfgXHcusF3omvf9iAjX/vQ/Gi4SgeGYHwQoEICQ2Cb4APNGo1y4KhgjdFw4OxY88RHD11EUdOXsDp81fg62PEjAkD8ULjuhgyYha2b9yOmcWKobBGDecdks3uW+FEEWccDkZWVOn0mDB+HFq9/fZDe26ovxLxdNWqVcwr9Ntvv7HxT7+TZ4F4JrVrZ6YV5/SeHbwZx25+i5up+2HUBKJ8eCuE+VWDVu2V58XGY4BAIjzxZ2H/Ywwk001WBfO+jXg+Fge0DT6EplwLmCb2hBh/C5zu/n0+2xilFEitAd5dRkBb9Zm7vA+0cO/duxdz582FkXgoDwne7vU8jLCt0WDwoMEoXbo0u87DAAS2AU28ioW7FyHdZnrgMAPTVKJaPyoO9UvUx2uVmsPf+PSVLPdkLsx3gEAv8eZtquI4F3/+fRQaKqOVg7wrLWKRQT4YO6wD3mxeH0aDjlWO27rrOGbPXgO9Xo3hQzugdnW5Y1Edhy8XrceCpRtgpkUxh3x9QoScPR19u7XE0H5tc/UekIEKEkCoVL4oVi0ahJJR91/I6KXduJ2EnkMWYcvOYxllr90vnCZ9oxr4ek5/tHipdo79gHaXC5ZswMSZP8Ouzg626B1SxoLE8yz1k2LXWZc7AilFwwPwxZjOaNqkGiOO5mcTRAfi00/j9O2fcS11HyRRTgEM9i6LJqVHw9dQ+L6XI4Dw3XffsQWFyhAXKlQIH3/8cb6WJCbwMfzTT7H6t3VoGxSMkaEhLFMhjneyUM299stkW7JWuiBij82KPVY7zjsciLU7ULdWFcycPhzh/r6wmlJAefI0iWVFbu5CZozEmGViJ0BFIrIan0CoBB6XL12EWsPBP8Afq9f9jTUbduDClZsQRZ6dk/gmxHMgcZigAB9E92iHWYt/xpmL19nYKlE0HNE938WLTeohNtmMDl2HoLBVwNTQYDhd4YWcXgJ5ESwCj4kJyThgNqN9u3YYMXoU/P3v3snmtc9QCe0lS5bg9u3bqF5dFj/bt28fAgMDGfnUvUu913lvpR7G7yf7Q6OW955GbTBKhjRF2dDX4Wco4rG3hs7vKUCQeDucR1fBue8bWeI3V00LEaLNDq7ks9A1Ggjr7yvh3LqGeX5yZeVlsJUliDwPbb2m8Hp/MDijdzaT0Pxx6tQpfDnnS1gt1gwNibxyoO5lZ3e/JK9PkSJF0LdPX+b1eViAQGnzJ26eRI8fe0LDaRDiE8RCMu7m9rpm/Jci1e4MByIBuwqUsUJlkGCymUD0jva138Nb1d9CsHfwIwNLee3rBeX4fAcI9GDkht65+yR69J2J62kWcJq7Y24s5u5wokSREKaN0LxpLZb6SDHum7cSodWpUSg0gKWJpaVbsOLHvzFp+k9ItjuYJOydjS1qdgeql4nA90s/RVTRQh7ZuEABhAqRWLVwcK4AgR6M+ANkj6lz10LjnX0XwLQROBWWftkbrV6tl6MdYuOSET1kAVZvOgi1j1fGwGB2dPAoUSQYNauUxJZdx2GyO7N5a0gAiPJNPundEr06N2c7zfxoNGgdfDquJ+/G0ZjlMDluglORcqQaFNv20xdBo9IjEeSVmXKa03WpU5PrdPXq1Wzn+uabb6JYsWL5NvjJRqdPnUKP7t1BCorjIiLQytcPt512WCTBlbJ4b4sw8SPyMhCZUhLxt9mGuQmJKF66OBbMHImoiDDYLWbwNnKFZ6adMr0QuxN6l0JnVg+aHGIANN7+4EQnVq/bjF37TmBwn/cQGRaCq1dvYefeo0xK+eK1W0hISoXN7oDD6WTiZdHd22HNxp2sUE3NymXx1muNUL5scag4Pb5ZvR4TZy1Hl6BAtPfzhY3df84QiO3MKN3TZMJX8YmoUL4cvlq8GKVKZ+qIPGhfoWeMj49nGhdEPqV/Fy1alHFLKKU1N1f51aQd2HxmOPQ6g6zMSzttSUJh/1qoUrgDA6DkqbpnGk+WG/cMIEgQUm/B/vdkIOYoVGpP6ieIbF5U+ReBvsU0OI8fgeXrKUx8LvtO3yU56H4PWTQAWBYY8QqCI+DTfxo0kSXvMjml527btg3//PsPCFDnpxeB4Bct5gTOX37pZebZoXFI7WE9CKdunUKvn3qjZfWWaFejLaujwNYSyhCRBAjgGa9GkASIEOXfRYH9m5d40BH0b5przseex7K/l7PNUMe67+PdWu8i0DtQBuVKYxZ4JACBTmy22PD1ij8xbtqPMBNhi8Vks6fQEZmQdzhQuUwkJgzviMbPVIROJ1euc9WjZQWelq/ahqmzfmYlo9WU5XDHy2MdhOfhJ0mY+2VfvNHMcy34/ypAoFDOF7PWYOwXq6D2zVzgyTQEEPQcxwBCy1fr3tXVaXLbf+Q8Pu43B+evx0ObJU2UyfCmW/HZgNZo/96L6N5vDv46cBY6gz7D7mRv3uHEK42rYcbYD1G8aKGHnmBogKdYLuFs3K+4krQdDsEsx/Fdg5UGuL8+Eo1KjUSg190T3p0PSc9htVrZfRFZKrfFIy/zAZ17y6bN6NGzB7wFEQsjwlFWp0eM004bEnbfuTU3w4SIi2ftDoyJiwfv64O5k4fi2brV4bDZWJhBxgey1gAt6PuPnEFU0XCUKFaYCVdlTuwSEznitHomfEQLwLxvfoXF4UCPru8gMiSApS7aLHakmaikbToD3habg+1sy5SMhN3uZKWfiZeg0RAoA5JFA1q+2x22VDMWRoQhRK1mz3gvgEDPRRyV4zYbRt6Oh97PF0u+Xop69es/dB8hm7IQFz2HTc7+IBc5LT6eLHDXkndh8+lPodMZMhYB1t8hwkcbjrKhzVEqtBmMOuLt3J8z4RFAkEQ4r++HY+skqKxpHhMNRVrcNb7Qt5kLIS4J5s8HQEVFiFxggGX9s+ICsrAPiSW5igpAIrKxtw9Uej1g9If3R0OhLVkpx+5IHI7klGRGBn/YeH5OFyAhq4CAgGzhpYcFCKdvnUbPn3qhTa026FTvAwgMGDjBizycohMOycH+Sz88gQWBfufZ5wQQ2GdE+gRwI/EGVmz7FsnpyfAz+KFVtVboUKc9wnwfXzZMbvPE//vzRwYQ6MFuxSZh2Jjl+GndP1DRAsNld4vKA16EYOdRuVwkxg/rgCbPVc5wWVPI4ffNBzB83Apci09hnoOcJgLaCXhJTgzu/TZ6dn2D7Yg8bf9l/Lt5bwAAIABJREFUgDBj5mqM++JnqP3u9iDcDyAQIfLHtbsQPWIJ0klYLwuHgZQvA30MWDyrN15oUBlfzv8No6eshMrbK1vxLdp1FI8IwdzJXdH4ucoeLYo5vRNC8rxgw620wzh+83vEpx8Hx2kYeSzru5YBQlE0KjUCAcbinr7eBzpOBrL3XiDo2Zd9/TVGjB2HGkYj5kaEQy8BcbyDEdDutXjmdDNUkS5F5DEpIRHHnE4M/rgDunZ6BypJgMOcAtKSdQMEGqybdx3E+Us30bVjCxioDHSWKo9yjQUZemi0GiSmpmPklK9gtTvR6rWGqFixNKsM6W0wQMpYVGVxJsq/1xAiYFLMAgRKt9N7Y+rcb/H1yl/xXmgIegX6wyxSTY5728YNEBJ5Hp/ExSNWEDF16hS0btPmvgRCt/7JA70wD790I/lfbDozNBtAYHMQPT+F0zgNige9iIrhb7E+dj+uiycAgYovOU6uA//PPHC0mDMxrNybrI4owPDeXMCuhWlSL8BuzagPwzIa9EaZBO4bAFVAIDjvAHARUeBCIqAKCAJnMEJl9AUXWgQknV1QWr4BhJrvoFP9ThlAgAEEwQm7SNLm8u/0X4foAC8KIHIjAQQSlHPAwQDRjcQYfLf9O5isVIdHhBpqtK3Zhp031DdU8SQ8Sg8CdUja0Zw4fRVDR32NHQfOyUqFd7C72QAlT4LdjlqVSmLCiPdRv7bMNv/p110YPfUHxCRQjv7d6YwMPdOEaLagfevGGDOiI0KD80Y2+U8DhFmrMW5G3gFCYpIJwyd9hxU/b2fkp4ydCQsvOPFs9dKYP6MnSpeIwB9bD6Fj9+mw0MLASszKUw29W4NahZGD2+LjDi/BQJkneW4SzI4knL29Bmfif4OTeQ0IGNy9A6dFy1sXhupFPoRBS/ndD8eKz/lWqT+JCDSWhFF373gklXWeMG4cFi5bgbcDAjCuUCjSBCfSBZILz5tCJi2otLCvMaVjaWISGj5TC9PGDkZokD8c5lQIxENwLSy0Lt9OSMbk2d+hXu1KaPv6C8xbwDIXWGDVJTLm8jjQmDlxJQZDR3+Ji5djEBYagrCQQAQG+kBDIJojyiS5ZwWoRAktGtXFi8/VAtXB0xgMOHD2Crr1GQdfp4AFRcLBMvfdapv3eNdytgZVyxMwPD4R+9PNGNS/HyOJ6mhXm0MjXkSa/QYs9niWHvooGi0ISZYL2Ht1HrQa7V2Tv2w6gXEL/AyRqBrxHooFNYKGy7l2jEcAwWGBY+9X4I+ukaWUPfAsyUXiVJDSzdC1GAsuoBzMiycwETmq5MiFFWWZCVxIOFQ+fuC8fZngEtXVIC8D/VeyxDMpZ3VAMXCFykN1D2Di9sYQadETD0xe3wtllOSnDgIL7bk9CC6AwICBSvYgEAiwCbYMgEDhBAYQyHPAywCBwgsOkNYIEJMQg2+3f4d0SzrbvLIMLXB4rUJzdG/UDYUDZN7E09weqQeBDOvWLfhszDKcuHQTnO7uMtB0HCvDaXegWrmiGBbdllVLHDXxW1y4kcDSHu/albEynSIkhxONa5fD5xO7oNwD1Af47wOEn6D28zzEQHY+fuYqekcvwOEz16B2xQYZUKPUNV7AR+83xciBbRDg543L12LRvddM7D5+GWqa4F3jhXEVnDzatHgGE4d1YMqYeRlMRERMNJ/DoRvf4HbaYTZ33uk1yDow3XFGFaP4PRp4QP2J7NOw1CeMvHavFEMiKA7q3x/rtmxF35BC6BMciFtOO6sq517MPZ1UWDSNtBN4Jz5PSEKMToOZ46PxfMN6cFjNcJpTmeeGeRFc4Yu1f+zEt2s2Y+DHbdCgTmUWUmI2yTKZ0QJGgIEA4NHTl7Bo+VrsOXgKZrOdeQvoM5oUiZAY4O+DJvWroWentxAZFsriunEWCT37j8Hxc1fQs1Aw3vH1BVFF7+c9YH3I9eAaUcIXySlYm5yE9m3aYNLkyfckiTqEdBy69hXOJWxk3etRuLsz701kdrpXX2XhM9EBjcqI0iHNUblwG3jpghkXJmvzBCCItlQ4ts2AcG6rLJfsEah1lSC2m6F7phu01dtBTEuCRH2A/XCQHCZI6bGA0wbJmgIpPRFC4gWIpljAYQKsacyzpK3dAbra7aFS3w3eKbxw+vRpHDt+jIVr8jJ2PerbEpiQVa3atVCieIkMImR+exDyAyCYLKYM7xaBJbvTgZZV3kCvJr0Q4R/xVHsSHjlAoM5EsdONWw5ixMTvcPlmEtR3EW7cmx9adJwI9TGyqlwmO7Ho7y5lLBOyJDhtdtSqUhIzxn+E2lVL3ZXu50lH/k8DhC/XYNyMn6C+o/yyTFKUOQit7uAgUJx52cqt+GzsctgoeyFLeIG8AkFeenwx4SO88WpdFuoxW+0YNeFbLPp2C9Ufzu5t4AVUKhqCeTN6oUb1MlB7pEVKREQLLiVsweGby2F3JjG5YU/y/TMKsnjyYh/gGBbuEkU0KvnpPQEC9bvr167h465dcfjYcYyKiMDbvr6MoPhAyoeulYsIi1vNZnwRG4/W7zTHyCG9oCE9eFMiQJkHHEk2ywcTQfWr79fh+OlLiO7VHuVKRDK54TtBgnuckJiYjedxLSEFty7HMLVEsqWftxfCCochKCIEhX2M0FKxJtpFGY2YMnM5lq1cDz2nxo8lisJLpfIIILgXYrUkYmWaCfPjEvFig+cwf9FCVgI6p/0Y8U0OXluI8/HrXWnRj27X5hkBTa54SfHqIK+yqFesJwr5VYZalUmO9gQgSAwgfA7+7N/gDJ4CBBmoi04HtBVeA1fhFSD5KoSE8xDjz0OVngpRsEPizXL4SZTBnous4uqDHDuHpuZ70NXpeBdAoGc7f+48Zs+ZjZTUlFzr7DzAUGJfIa5ImbJl0LNHTxQKlXlKBQYgSMRBiMGKv1eAAII7HZ/AKY0Np8OJpuVexMCmA1EsKP8Izg9qy//X9x4LQKCHI9LiyrU7MXX2WsTEpdylgMgmP1exDJFioS4J5TuRrbwxknev5UtFMNnmpo2r3lXt0VODFiiAUD4SPy4ahFJR4bnefrrFhmFjl7OFW+ed3Q0qkxRVWDq7D1q+kp2kmJhiwpgpK7H0u63gjJkCIWRXp92OGhWisHhWH5QvXYTtXOlcG7YcQN/ouUh0ZJLTaDGlSdKb41gBrg7vNGGpqvdrosQj1XoNZ2J/w/mEjZAkJ9RcDqGj+57FXZglVxPl+QC2exQIIAxFiXt4EOiYo0eOoGePHrh1/TqmFS6C+gY94im98QGkkekmKUhAtRpieR7DbsdBHRGKedNHoHzpErBbTOAtaa7USZmsSLoXSSkmTF/4I5JT09G/S2uULRUJgYre3+FJcIMEVm+BRLWouBLbpqtYWIH0F+hbVLmUfVenxeYdBzBmyhKW0SCoVHjVxxs9AvwZ6ORdKcv3W8KZp0OS8Gd6OqbEJ6JSmdL4evlyREXlLM1NAOHQtUU4l7ieuXjJVf5omuyf8KS5OREUy/bShaJieGuUCn5BDj2B8yjNUbKlwbFzJvjTm/LgQZDvjiZmFm4hrxCr9Omqrc1enevv7HHuSKl1hZrIE6ap8z50Nd+7CyAQmKT00Dlz5zxyHQQikA4aOCjfdBDyK8TAhOKSb+Gn3T/DZE2/S/WUXGEp6Sl4o8obGPrKEPgZ/R6ZZ8uT/vj/OuaxAQR6QFO6Fd+u+hsTZ69FUpqFuTdzcm0xV3eOQjPy/oTkmktHhWHq6I54sUFV6PMgInKnoQsOQLAzoSRKc4yKDLlvf6A65gePXUSP6AU4fzX2Ln4GaUz4G7T4btEgPP9clYxzkV3PXryJD/vNxuFTV6HPmr1AHhmLFe+3aohp4z9i4QVmbUnCjZtxeKf9cJyIsUBNsVRXY0DNbMW7bzXCxFEu/sd97py0Df46NwoWRxyLA7sn63x3bz7gaKIYdG4AgQbMzu3b0adPP/ApyZhZuDDKaDVIpfBCHuOV7rKzFDShyPtxuw2fJ6filsOOLu+9hYH9OjN5Zkd6ItOkoFiyPP/LIOFmfDImzFwOs8WMoX06okLpogwksPEjI4UslqBdsTx+MtNR5I/peJaGxqnw57Z9GDdjOZISk6D39YNgs0Li1GjkZcCAoEDGQ3AQD4GVh87Z0HQZDSTsNlswNi4RUZFFsOzbFShdpkyO4zoTIGxwndezRfwBX7PHX3MTPomjQam9UYHPoH7xgSzk4JEHwWmF4+By8Id+kN3UHnEQMm+PZSfIL9Jl64z4XsbfXW/Q9SX35wTeOega94Km/OtQMa5JZqM+TOGFL7/8EmarzPt5FI3moaLFiqJv376ICI8oUB4EsoFOo4NVtDL+gjsVkv7rhBNGtRHrdv8OU4oJ896di8jASAUgPEy5Z086GA042vEsXfkXZi/6HQmpZvyPvesAj6pqomf7ZlM2vYcQSCD0IlWqKCgqKCKKBRUVBQHpKFUp0hGRDiJFUFGxodIEAQEB6b2H9L7p28v/zbzdkAYshEDkz+PbLyH7yn333XfvmZkzZyRUzMMp17QwkdGgqxnmj3FDe6H7E82cEkO6WdsqDUAwGFGjeiA+6N8dapYvLtuKslpsuJaYjo2/7sPx8/EsoFJygTUZTIgM8MDPGz5GjSLeCPIG/PbnEQwZsxwZ+VRJ8PrEQLnAMokIUz54Cf1e7QKF/PqkQn009MNl2PDrPkhVRfgOtHgZjKhXMxjLPxuExvUjbpz+ZrPhTPK3+Cf2cyhlbkX2qxyLgbBQOgEQLBZs2bKFS6CrjEZ8HhiEAIkIOor3O7sA2FUPHcTCTIsZ+7Q6bC7QItFk5hoMHh6umD19DB5p2xzmgjyY8rPtHAThmZGFSwD7WkIqPl3+LVJSM/HmS0+jXatGcFUo2AItBNpFh5Kju9ktLVijZtgQE5eMTVv3YeNvu5GVkwvPkOrwa9QWmacPITvuIqwyKR52ccGbag9UI70SckOwx6T02+UACEd0OkxIzWShqi9XfYn6DRuU2UeVFSAUXXxp4RBDhvaR41DNqy05XnA6IR1Dvt6JK+k5xMpEnSAvLHqtMyIDBfl4Igyazm+Bae8CiC0mp7MYnJlLb7YPK3PK3SHvNgtSv6gyiZ8kOrVnzx4cPXbU7q0o71VLHE+aHBIpy1+TDgKlPNJWWUIM5BkiIi39E9IihRRISpkkomOAayB2Ht6JtLR0LHppIULVIVUAoaIBgsNayc4pwNLVWzD/i9+RpzPe0JNQdMjRHEcu8BA/T0yb8Bq6d2l+0yqNzg73ygIQaEK3mCxwMZkgEky9Mjea9I1kubsoi1W+dOzMIEpnQJfWdbHuyw/g5no95ZOqYM5a9DPmLttUrNgT9S2lN4YGeWHF3AFo37JuccKb1Yq16//EkDEr+LpFpZ2Jt6CWiPDpjHfw3NOtb6iqSO26mvkn9lyexoYUpZAJi8t/CyCQe/a3XzZh2PBh8IUN8wKD4CUWcWlnZwCCwyol+GW22VhN8fvcfJzWGyC1WaFUKDmkrNcXoHGj+pg1YwxqhAbBkpcNkzbPvqgLfcZxZrkM6Tl5+HTx19i1/yg6t2+BV3p2QVREKCRU0dEsEC8LN6pxQuEGAuawIS4xHdt3H8a6n7YhJjYJLkoFPIIjENLmCchc3CC2iXF52zfQpsTAJJWjhlSKYd6eqKtU8jjkio4lRqoAEICTeh3GpWbA09sHy1eu4HoJZfVRZQcIXFXWYoSHMhjtao6Dn1tdpwACPUhz8kkYd0wD8tKd1kFwdu664RxBOgq+UZB3nw2JS9kVHdn7Z7EU6kmU95plHU/PmjRIitbHqEwAgfQQKLPBaDaCJJQoRZKElvQmAggB2HVkNzLSM6sAwuLFGDt2LEbdC4BAA4ncc5Rqt3r9dixY8RsyCwy39CSQ9RsW4IVxQ55Dj6daF1v4yjO4KwtA4H6hTA6HNGiZNyVYbA7BqbL4GWR9+roqsHLhEHR8uH7hYs7hhctJGDxmOfYduWQHF3YbiTkdFnRqWw/zp76FGtVKSz3v+ecM+g2cj8TsfCHzoUg2A8VI+7/aGeNHvQQPjxsXb9KbcnAp/Q9cTt/MaW1kvVaUe/NOxoQzHgSaVH/5+RcuHR0gEmF2QAB8JCKuv3BjgWW7P4hCAxTKAXDeYMQfBQU4pNMj32qFyk0Nj8BwuIdFwqTNRdrJf1huuU7tKLzU+xm0bdkInioplCTyQmEGjkODPTipWTmIjU/G79v3Y+feY/BSu6N18/po3aw+ExjdPT1YVpmVKg0mdpuejUnAsRMXuGjT1bhkEO9HJpOAEr0kLm5w9fZFQMM2UHj6wqwtQPLhHciJuwCzWIIImRx91R54SKkodJsXBQkEEMjPcZoBQibcvTyx/IsVaN68+X8IIAigijwHRNrwd6+PugHPIcSzFRcMcybEwMcXZMC4ex5sMfsgovDcbYahbnscs0KtHpIGPSBvPxjiMjIYbvucd/GASgsQRBYYLQQUTFUAocjzvqcchGIeARuYaLVo5R9YsooWDJO9MmFpi1IILVjQs2tzzJnUF/4+HnctLacyAYRyvYeUe06CIAVavNunC2ZMerMYaZAKZFEmyVtDFkJrskIio6i30NdcVAUiDO73JD4c+CxUZQhNUX2NAUMW4M9D5wQ1S4eqG1mRJhPaNwjHwvnDUD385qqKFM/NKLiA4/FfIin3CC8YEqqo54Q3gYiRds94ubrqhpYXSbNarOhQ88ZZDOxB2LQJw4YNh5/ViumBAfCXiriyZlnpeQ7bnVIZKUUw02TCbwUF+C2vABkmI9yUKniG1YJXVCMovf24acTRy7pyEinH90JfUMAhuJo1qqFF03qoFxnG49/D0x1uKhUOHD6N9T/9iaQ0DVxclKxjQRU/9UYjP/9gfx/4+3tD7abie8vU5CAlLRNpGdmcDeGqUkBG5aYJJBIXwa6EqDfooA6NRFi7bqyJQEqlSf9sQ27cOZhEEnhLJOjvpUYHlQrmkimWxTwImfD08caKL1ag6a08COm/CTopFcRRZBEnO7C6+QASgDqlg4pFckQHdEPdoN5QybwLs22cBQgklmQ6swmmfUshEpHeQMXoPDjuh8o9WyGCovMYyKIerVQeOmpjFUCokKmrwk563wCCw2LOyMrDilWb8fnKP5BPIKEsQSS7fLCvhwqjBz6L13t3eiA9CHfylDn1z0quZDPkIhE6NI/G9Cl9UScqtNjp8gt0mLnwJ8xb+ivXoy/q6iVeR6CPOz6f9jYe79iEv6OsEwNptNtBBJUGXrDydyz5cgssXGL6OpCjRdMDNiz5bBCeerwFy/TebCOQQKI4VzK34ULar9CaMjmb4WYpaMwqtxJ5lZzXdz8sIRAGrRyXbFfjA1T36VRme+iF2bplC4YMGQo3owHT/f0RIpfaAcL1uy5c4ygWCxt7Cf7R6fF7fj7OUzEeqRyeQeHwimwIF78gzjAgwTBWO6BFxGZD6ql/oDl/mBfNJ7t159BAQkI8qyxSOrC2oADXEpLgqjMiSiFHjs2GZIsVuSw/K+ggkF6yt7srh350RjMUMim8vTxQMzwIYb5eOHj8HI7FJCFIJkVHlQqtVaSYKcFqjQaH8/MQ0LwT1EHV4eKuhtlogOb8UWguHWf9/lC5HKN9vBAll3O2g+OpODgIh7U6TEzLgH9AgMBBaHADDoK5AMcSVuJSxh/28VYxz5f61mo1FZI9yxqjXG7ZXqPBV1WbKz6GqFtCKfMoNu6cBQisUpl5FcY/p8OaflGo5lhhXgRBcl5UvRUUHUdC4npzsvOdzDflPeZuAwSWUbYLJbGSouW6kqJDKMlECoolhJJYgrloiKHKg1Dmo70vAIHi1iT3SwsJxbNTM3IwZ9EvWLNhJ3Qmi5DSVeIl4txUnRG1awRh0cx30Oqh2neke1CyFyqbB8ERoy7Zzhsx/VkQx2JDgLsMTz/RCqOHPI+gAK9i/UfnTEzR4N2RS7GDqj+WSm80onmDCKxe+D4iqgWAQNuar7bi0rlYiFgnQcSLE2lYHDwVA3OpSoI22HJz8V6/bhg/+mWnizeZLQYk5R7C8YS1yNRdYk8CLU5lWeIkYuQi80Ytn66QSd0rAiPYVQWtCFG3gFpJuc9lKTpasXfP3xg8eDAsWVn4ODAAtRVyoT6B/aFxImaRgkzpFgu+zsllEiKFgFSu7vCt0xxekbRgSnhBEoCBSFAVNemhz8+DPi8befHnYUhNQNu2bTDgvfcQWq0aA7jMjEz88OOP+G7NWozwVOMZtRoGqxWnjAYc0mqxW6tFrImkZm1oVC0Inds8BL/qYQj2U6N6zVDkGwz48ouN+G3HAdSSSvGerw9aKV240BKlMm7My8XUlGR41X4IcrUvXD294eYdwHF0zaUTSD2+FxaLCb08PPCq2qMw3Y6WdgdAoHLWU9LSUS0sFGu+WouoqFplev4sFiPS8k8jW3elwpQU6dHk6RNxJvlHSCVli7Wx18BGdQmkCFO3ROPQN1lyuUx5d5vtliTFwneYJZd/gWnfCogoRFSEHFzeBbfo8VYSwJJ7QP7EJEhDGla4t+JO2l4egEBzwPU0xxfQl6WWWVhZUEu8GUAgqWWuyUA5CkKtBoGUaIaRZJnpJ6kuVoUYij3Wew4QSIjl3IU4bN5yEA0b1kSHNg25QFNKWg7mL9uEpWu3wEzlaMsq50zMbIsVT3Zqgk/GvspVD2nhKs9WWQACi6OQrj7ZYSVcrGw9U/W/MiYW4i0oJGJMHt0LPZ58uExFQzrv3oPn0W/4IsSnZnGpXwf+YnKk2YJ+Lz+GyaNfhKurEjv/Po1Bo5cgJUVTnKxI7t8y6mE4NBRaRIdhzfKRqF4Gh+FGz4gsuiztNVxK/w2xWX9Db86yayMUX5zJsvdUVEO7muPh4RJWQYxioUKeiOtAlO0Kpud08sQJDOg/ACnx8RgX4IsWLqpCgCCAA6Gkc7rJjAMG8hpoEWswsJqcOrQmfOo0h4snWXeClU8gj5jnJp0W+vxcVlC02HUVKPXQkJ2J/ORrCPH1RNvWrdGmbRuuYvjtDxtx8JtvMNvfHzWUCgYDNE4oVJBqteK4To9t+fk4rNPBzcMVNSNCEeLrDblEgvPX4nD53DX08fHGs2oPBEgkyDaZobXXz6XMin5JyZCFRMI1NJKFexQurnDzC4RUKkfiga3IibuIHmpPvOGlFjIaHFIm9jDF1vwCzEzPQINatbBqzWpUu4EOAnsTbQSxCFqU732+2VyQkH2gVLEmx/5c4c9mhadLOCJ9uyLcuwNc5X43HAfOexDYNQVrQSaMh1bBcm6zoOTobMaLE5ObULzJwh42CYkjNXsVYtndqbDqxOVva5dbAQQiDOpMQpG1kpEmCj1dybiCYT+OQM+mPfDqQ69yxUb6x0WbrCYYbIbCgkw0Zxi4FoOZgZ+jaJMjW4EKO9F3zD1wfC+q4iAUA51WKxbfK5IiTZxpGTmYOu97rFv7ByKjwvDJxL5o/3B9TquLiU/Dx7M24Ndth0EFOUsxnu1xdlJ8Gze0J/q//kS5Qw2VBSCQC8xL7YZObeoL2RmsZiMYVJR9sP3Pf6G1ikp5TRhYmEx4tGUdzJv+DqdKltx0OgOWr9+OSbO+hYkqa5YID7go5Jg+7hW8/nwHUChh8eotmP75TzBR6l7RCfsmczdZwb4yMZYuGIbHOjS6Le8O3QPVYYjN/AtnUr5DrjGZryrEi4WL3m41x9uatW5jZ9aFSEjAu/3ewZHjJzDc3xdPubkWuthZU0Akwn6tFl/n5OGCkSiJVPrWHd5RjQWvgVwJG8sdC+DMqC+APi8HRl0+KIYs6B0IC64ADgUvgzY1AbnJsfBQSBAWEoQ0TTYi8vMxJSAAcpENenv2Cx1H4SZXiQRaG5jzsDu/AMfz8kGjI1IuxwWrhbUPpgUEIFwqZe6BxkypeEJ/U83UlxMSoPMJhjqyEWxGPQMZIqi6efsj68Jx5F45iUE+Puji5spepaIeFCJjfp2bh6XpGejcvj0WL10CHx+f2+jpu79rWdUcBcEvombK4O9WDw1D+nCWgpiybG4CVm4PINjF3bKuwbRnPqyJxwWuxV3RHxAMCwYHkY9A1nYgJK73t59v9uRuBhB83V1wNP4otp7bKsiul+h/eidy9DnYcWEHagXUQoOgBgzqBOk0oaYI+ROE+pzCc6V5QwgbCf/nv/HqYoPFSvsKfyOg4ObmjvCQavx/f1f/qiyGii7WVHKg6PVG/PTHAYyb+Q1SMnIhtlrRuHYYPhrzMldxpAXhSmwqxk5Ziz/+OsZkuJIggRcTowkNo6thwbS38FCjyDuuJEjtqywAwagzol7dalg59z0EB3he9yKIAKpqOWnaWny36SBELqWLx7DypFaLYe89iw+Hv1BKGyIhORODRy/Ftr9PQ6KQF3oPmPxptiAqPBBLZvXjsE1SigbDP1qN3/88wouBs+FSmjDFJh0mDO6BQe89D2URESbnpnpSMTRAo73EWQ6xmr9htJLCmZS9RGQhqOWhaB/pXLln5655Z3tpMjMxfOgwbNq2HW/4eOENtQesdotQbLXBZLXizdQ0ZFiI/GmDm18IfOo0g1twdQYFBAIonm/Q5cNAGgcGncA/sOsSFHdpC14N+pImPovRCGNWOgyaNBi0uXhYIcc4Xx9IRDYmCwr2qj3GYbNBLZUhxwb8q9NieXYO3vJU40k3V2zNzcXUzCz09PDAIyoVImUynkzpPsgDoZKI8XpcAjReAfCMakI5xsJEzCWGgbyYs1Blp2JKYABqyGVwFAx2CKJSP8zLysLPmmz06f0ipk2fDpXrjTNc7uxJ3N5RcZq/se38WCi43LPIrhVhhbsymL0GpG/griAF0eLCQmVd5XYBAj8SsmQzLsL071pYrh0UPC4l+DzO35FQs4GBJmUDRXaEvMWbEKmpwFDFEiGdb2PpPW8GEHzclfj28AZM2zqtWKl3x1loUac1gm0nvvki473wUqX8DteB9g1K0+jZAAAgAElEQVQaTkCExn7NkJp4vEUX6Gw6+Kp8qwDCvQQItBjFxKXhw6lr8fufR7mIDD1ki8GI9i3rYNqE19GwbjV+cf/aexpDJ36JK3HpkJZRi4EWREraGvB6F4we1APenu53PGYrE0CoGx2K75aPRM3w4mmG1HdnLsTj3aELcILEkZTyUuiaPBCBbkrMm/EOuj7ajFPWaKMQxL5D59F34DykZOUXE1aiRYli4l0fbYr5k/si0N8Lh45dwlvDFyEmPp3Lazu7MXfCZECHhyKxZP4whAbfGUGKFiCdORvX0nfgcsYWZOuvCbF5WOGljECHyElQuxQnYDrbxru1X0FBAaZNmYpla9biCQ9XVhiUUa0Eu4JgvNGEd5NTWQvAPSIaAfUfhtTdgz09ZoOO5ZP1BfmwGPQ82dGE7vAY3KqNHEUgfQOTCXnJMWiQm4GJPj6QiW0CN6QQJBCpk0JWYpwzmvC3ToetBfkY6OmFnm5u2KfTYmRaBsb7+aCLqwpGiw0GcvGLBRlhpViMN+MSkekXCnVEHYC8C5xfCZj1WiYqNoYZ4/18oZRQeqRdKd3+kzwj4zMzcTg/HyOHDceQYUMLxXJudY8V9X1i9r/YfHYE5PYCZZShEODWALX9n0awujmkEufrJdwJQBBwmxWWjMswH/sOlriDVGyD+5wsZiF941YhFmFh5MqTBCqVakhqPQpZw56QeARVKIejzOdiMcNqNDDodazYvH7TWKSqmVRqughguRVA2HD4O0zfPt1en+VWfXGbI8XO2yVXV7Ez05i2mhEdFo1uLZ5GhiUD3i7eVQDhXgIEo9GMDb/sw7hp65CRq4VMJqB0cv1IrFZ0fqQJPh71AupGhbHFvPH3A5g4fT3SsvM5Zl5yMxtNiAj1weJZ/dGmeZ3bcmkXPRcBhCHjVuKHX/cL5aiLut9JKtTLDWtXjkLzRpGFh5lMFvy69RCGf7wGGdS+InwJThnUG7Bw1rvo3euRYu1Kz8zBgA+W448dJyCVFydisgehTihLLRO3ouRGVTE3bTmEYaOXINNgYd2IoqOcXWZ6I6JDvLB6xQeoX0fQvaeqmMvWbMX4KWthU8iLFWeitipEYowb9jz6v/E4P5Nvv9+FYR8sQ671RsqAIogkVAWQXKQsuFvYVMpmcLOZ8O2qsWjfpmzGunOvNIUc9MjWXsW51I2IzdoPudQVdfx7oE5gT8gk9ze+Sgz+tatXY+LkyYiWK/Cxrzc8ZTJB6ZA8XFYrnktIZosxtM1T8KpRH1azAUadFjmpibCYBWucEyPvpH6DXaAoPyMVNVOvYrK3J5Ti0loMjoqO5KzV22yYq8mC1mLBoy5K/F1QgF1aHT4K8EcHN5VQ+ZFmTqoYSCEGEfBybAK04XXh6h/MYIOBGgl15WUh+/JJ9FYp8ZqnutB7wgugnX+QYTLjg7R05kLMnj0LPXv1qrCiQM6NKUBr1OCfa3M5vVYudkEt/26o6dMFrgp/1ja4ne1OAQL3EfEdtJmwxOyH+fwWWDOvQmQWin3BHl4q2RZHlg0VaGKpFJkSosC6kEZ3hbRaS4iVRNy9t54Dq14L86UTMJ0/BltBbhHulI0IUxB7B0DWpB2kQeGF4ZRbAYTvjnyHadvsAIE8hxYLfyjVVyaRCZLI9rLqNFCZtyUSvqPfqeQz/Z9UHAVeiY21VtgTzRQdFpIpPndyBU8zokOj8XSLp5BpyawCCPYBeE9Iihy3Tc7E2Olf88JPqYwl4+AikwXDBnTH2KE92T2dnZOPsdPWY/WGXcL+RaoOcsYbTVgmM0YMfBYj3+sON9c7WzRI1fHdkUvw2/YjkJQACJT+F+7ljnWrRqFpg5r3FSDQxXNytZj22XdYRqmGFH4pkdPNuewFWvTt/Simju8DT7WrUMxn7Ep8/8s+yNxcigEgqpEe6uuJJbPe5RAPzU+7953CwqWbkG8wX6flF5mt6JrpWfm4FJvClmbREBA9Z1teHoYP7smhDuI2lGcja6vAkIrkvKOQSdwQ6NEESimlm93fjSaeHX/+iYEDBkJuNGKKvy+iSN6YFntyz0OEN5JTEGfQwyuiLqq16waryQCTUQ9NQgwvEA6vQXnuRJufC3X8BUxyVyGMKjayC/Y6YOPnQWsJaY5YLJibqcEpqw3eKhdUqxUFo9kMw8WL8KVxIJfDVyKBmwhcgMsAYHamBqp6D0PmYpfXtnt1C9ISYI2/gA98vdFSpWLhp6L8AzEVtNLp8FFaBpRqNb78ciVatGx517RL7rTPqDcKDGlIyT0CmViFAHUTKCR3pqlSHoAgeBJssBFQzLoGS/y/sCQeg00TC6suB2IiHJJPxuFQoH4n17pEBrFSDbFvDYirtYA4tBkkFFKQOO/pu9O+KwVYiFRLYl7fL4E1Jd7OArjuv2JniFgMadP2UL30PiREyr1FNUcKMRQFCPS83BTuiPavhZS8VFxJvwJfVx9E+NRAYk4i92E1rzCk52cgNisWrnJX1PSryUJHRGYM8giCt8oLVzOvwmA2CgCYthsAhDqh0XiqCiAUe9T3BCAQ4tu9/yzXALiarOGwQVEIRwuBPl+HPr06YsH0fhxDp4e///AF9B++BFcTMyApGWqw2WDQGfFws1pY/ukAroB4u0V/6BrnLiXg1Xfm4mJcGnMeim7EdagT6IMN68ciMiLovgMEau+1hHQMG7Mc23afhFRVnI9A7ySFX9zlEnw4pCfe7tMFcQnpeL3fHJyOTxMK8tg3gcthxGNtGmDhjHdQLcSX+0+rMyAjM4/Rd0n+gWDFAMdOx2Dc9K8Rl5RRyrtj1OnRqXk0Vi8bAT+fu7GYU+qZIEPEbthKsFHfnT93DgP798eFS5cxzM8HT7i5MVGRNqUNWJyVje/z8uGqVKJ6595QuKlhMRmRmRgDs0Ffbmta4I+YYYw9j/fFFnR0VTJAuB5/FlZzuQi4YjRhfVYWUgOD8NwLveDn64caNWtAJpFi89Yt2L59B5Li4pjYqPbxBy3wOWnJyNTr4NfsUXYTE/Chd5beVVJUDMtO5fCCr1RaTG6Z97LZ8F1OLlZmalCvXl0sX76Cr1cZNofOAZNgmSR4Z27s8gKE6y+iFVaTnoGBLTsWVk0soM0AVYKkDz9PqiQodwfcAyD2CofYMwxiF0+hSqOzJKG73PkUVtD/ugr639dBXEbRPearEDfKxQNuQ6dDWpMMkJuXey4LIHgqPTHpqY+ZgzTp90no2eg5NKveDDO2zUR0YDTeazcAB64d5O9a12iNDzqPxrmUc5j0xxT0avo82tdsh5l/zkKsJpa9DIUAoUh/8LtkNaMKIJQeJPcEIBALf8maLZj+2UZ7TfniQSCa6FRSCeZ98hZ6P9uOZWFpK9AaMH/Fb5i76GeQZE/JlEYCHr4qBRbOGYAnHmlyS4GeordP6ZbkPZiz6GcsWrkZNqmkuJeCxJkMRrSKDsbGbybB09PtvgMEagC1e+eekxg4fHGh7HHROYJ1400mBHm5cQGl3Jx8DBixGAU2cbH+Yw+M2YIBfbtiwrDnndYuoDbEJ2Vg0JgV2LbnFGTy4sWiKBfbT6XEui9GMemxvGmod3leu2uny8zIwISx4/DDr7/iSU8PDPb0hFQsEKiI/35Mq8PwtAy42izwb9QOvvVbMKEsOzUR+twsIURUno2yVyi3PzkOHXNTMcDDnby6sBKfwZ5mSUvfMZ0Oa7JzcE6nR3SdOpj2yVQEBgZAoXRBemYmVEol0tJTMXfmLJhVPqj9+LMwW61IPHsKx379BhaJDOq6LSAiMhzX7DAg5/IJPCW24m0vLzuHoij3ASgwmzElU4PjBVr0eeVljJswEWrSSniAtrsGEIoAdubxWM2AxQybxQhYjILRI5VDJJaxB0EIQdxM1PvedLLVoIPux+UwbPte4DWVkbbJ1SglSrgOmQZp7cbc7tsKMYhEMJqM6FirAz7s8iFOJ51GqGcotp7dhpX7V6J3s94Y9dhIJGYnYdKvk9AxuiNebvESDlw7gOE/jMDrrV9Dl+guGLtpLK5kXOXqjWVtVQDhxmOmwgECjfnU9CyMmrgKG/84CGkRkR5qFouTGE3o1LYB5n9SvA4Ak/POx+GVfnNxOTlTqNdQBPDzC2U0YfDbT+LDIbde5Gh/vcHEVvKp87H4bethfL1xD3J0Qo560Y32FZnMeO3F9pg5sW+xzID7wUEo2jYqm71o1RbM/Hwjs8eLhV/sfWoyGNG1UxMEe7vhq417YCMrsER6o5dCjjlT3sRz3W5cZKmsoUPXn7PoJ3y24g+2mosWbxKeiQEzx/fBm30eL1cp7nsz1d3ZVQwGA9asWoVPpk2Hl0iEmf6+CJZKhXRHEaA3WzAoNQ0pJGfs7YfqnXpxVki+Jh15GSlC2WynjVdBRbJ4uWCyhUUMNtzjz2OMuwo1FQp2olKaZZLJjN9ycrBTq4d/y7ZQyBQ4vGsLXnn1FS6/m6HRYMyYMXi7Xz+0b9eWszIQFIWodp3ZSyCVK3D16AFsXTQT/g93FUiKsMGQo4HxykmM8PZCe5UKOntYw3Er5H04ozdgTFo6SzR/Mm0aejzXo9T7dWe9XnmOutsAoew7KxTqrjw3bm8JA4SflsOw9VYAwQWuQz65I4AgcF6srBQ7psuHeLr+UzgUewhjfxmHLH0W+jR/Ff3b9UdMRgxytDlwV7rDx9UH17JiMeLHkXiDAELtLhj72zhcy7h2cyn/Kg5CmWOswgECMW1PnL2G/sMX4eSFBMiIgV9koeK63BIJJox4Hu++2qVY/QBqcXauFiPGf4mvf9lb6ljOdDHo0L1TU8ybNQD+vuqbvkg6nRFL12zBjr+O4WpCOuJTNGxx0QJXLDxBegsWCwLdlVi3YhRaNK1VzBK+3wCBQVdaNoaOW4FNWw9D4kIWRglhIXLv0WIhFcNsEYg8ResnWMxm1IsIxrJ5A9G4ftlqcTfqTPL4/LzlEEZOWst8hKIkTQ5zGIxo06wWVi8aiiB/r0o3ud2NBtG4PXb0KN4fNBgXY2Mxzt8Xj7mSHoBwdrkN+CUvD0s0OZCKgPBHn4fKPxSG/GxkJlwT0ricEsuxB6KpkBdnPBRHFWaTAfkxZ9HbZsQj7q5IM1nwr16Pf/ILkKNyReMu3VG7wxMsdLRj0XTkatIwb9481G3YELt37UKjxo3h5+uLoUOGQBbZBBFNW8FqtsDN2wt7v12FswcPwCOqAWwmIxMZcxOvwD8tFlMDg+AnlcDEoR/hnqmlcpsNX+XkYnmGBk3r1+MiTeHVb2983Y3nU9HnuDcAoaLv4gbnJ0E6LlJVImWQxiwBW37HKw4gfLJ1GhSUUUKpuzYzFCIlpnSfjNYRrRCnicOYX8dyGOGN1m/gjZav45eTvzJ4OJZwnMNmSpkSwzcSQHgdj9V6FB/+MgZXM65CJpUxSCgp6c4eBIsZtcNqcxZDFUnx+riocIBAssrbd5/Ae6MWIzVbC6k9e8HRBFpsqvt6Ytn8QWjdrLR8MuXpU1noj2d9SwXGS5PijEY0rhWGlYuHIqpGyE1DckR8fHvgZ/j1z6OQuxPxqrjb3dEmHjA6PXp3b415096B2sO12Jt0S4CgM2Dh7DKyGDJyMODDO8tiKPkqW6w2/H3gDAaOXIKY5Ey2+EqGI+nhMrO+xEJE9yc2G/FGz3aYOPa1204TdaRdDhvzBf45fhniImEG+o4WGFebFRvWjUX7VvWcKoN8n6bCcl02OysLH40fj/U/bER7D3dM9PVhtjVtUhuQaTbh3ZR06Mwmrozo1+hhmPUFSL92ife5dXloAgVimHM1sJnNkHr6CvyqIoWyyA1RkBoHc8JFKEUiFNhs0BlNCAwIQsc3BsO3Vl1Bn5+UEi+dxaZFM9Cs+UOY8+mn8PXz4zaQrsOQ9wbBs3EbBDd4iOPamuR4/Dx3KtRRjQr1MEiDIfPCYXQS2TDSz5eFtIRMFnv2AhfjsXD2wskCLd55+22MHT8OLi53RiAu18Op4IMfSIBA766+AObLp2G+cIzFsQqTV8lTGBoFWaOHIXFTM+n2bnsQSChpw+ENmL99AcZ3H4trmbH4fOcCvN7iNfR5+FWsO7gO3Rt1Z7LihE0foVeTnnir7VuY8sdUKI0KpBrT8Errl6GSqzB8I4UYXke3ek9jyd6lSMpKhNakQ0xmTClPggMgUJpjVRZD8RenwgECLfC/bD6EoR8ug0ZPhVKuW7o0sRBAaBwZgvVfjEJEtdKVAMkD8cuWgxg4fBFyTNZSVpeNUhEDPbFu6Qg81KjmTYmKeoMR0+dvxJyFP0GsVJQ5QdOLTznmUcGeWDT3fbRuHl0qjk4AgS3oj1YjIyevuCIaKenpDVgwqz9eerFImqMNSM/IwbsfLMMfO48LpMsiz4L4DnVrh+F70kGIKK2GWNZ8R8JTqzbsxORZG5CrN/L9lJQJKes4ctu5icX4ZMzLeO2Vzix1fbtbZlYeJs/+Fqu/212qmh/LBxdoMWZUb3w4+LnClNbbvUZl35/G7sbvf8DEcePZQp8T4MeFi0y8gNuYrDghIxN7CwrgExSBah2fBXE0KJOB9BCE0NDN4gyULiZF3qUTULp7QVWtNgz5OcKizJoEQpaC1WyCNiWOwQdZdh5yKdr3GYCA+g/Bajbau1HEhNKD65bi8F+bsWDRIrRs3RpHjh5FjYgITJn4MYJad4FPrboc5962eAbSNLlwCwwHSTRRCp0+OwP5F49hsI83urqpYGDvgdB+1oCw2fCPTodP0jIhU8ixcPFidH68y22Thyv7c2cL+nZqMfwXbohCvdnp0G9eD+O+bfa0xeKziUiugCSqAVS9BkAcFA7dzyvuaoiBAAIJJS3YugDje4xDbEYcfj75M0Y8NhynE89g9d+r0fvh3mhRvTnWHvyKMxq6NeyOJXuW4HTcaahcVBjYcSATmhfsXoCu9briybpdUWDUssrimaSzWHtoLc+TJbOvyINQBRBKD9SKBwgWK7buPIYRHy5DoibfXvyniAvDbMYjbetjxacDEeDnWbpIkw04ezEeb74zG+fi03nyKtwEhIH6kcFY9vkQ1I+mAjs3nnDpZv/ccxKvDpqPAr2xWFyU044ofG40okaAF6ZOeA3dHm8OeQmPB12bNAm27jqODyauQmxyJlfi443mbIsNHlIxFn46AN27tioWn8/KKcCHU9Zgw8a9sJKl6WgrNdlgQstWdbDqs8EIDXZOKpXaTAv1B1O+wg+/7BPS7JxgNZM1Wr92GIcXGtj1Em53DiOQRKmhY6auQWJKVjHgxtFxnQHvDXgGk0e/dEcA5Hbbcz/2p/6/euUKhg4ajEPHj+MptQdGeHvDZA8FKGw2bC4owNQMDbxVrqjR5SVIXFyRl5qIghwNT1I3f142dulmnT0MdXA4vOo0Q1bCVRalKRxzLDVLz10Mk0GL/Msn0brzk4ju2pM9Bzws7WCCwEb2tSv4fsZYdO/+NJ55rgeWLV+ON994AytXrUXNzj3hExGFCwd2Yd+P38A1vI4AAFgfSYy82PPwzEzAlAB/BEmkxceb1QqdzYZJmZk4kqfFYx3aY868TxEUHHw/Hk2FX/NBAwhEKDSe/gfalTNgy8sSiIclwCsJq9l0OiiefxfKzr2g27QKhq3f3YKkeHscBAIIUzdPhatSxcqh9I4pJArkG/JZHplIzyqZK2cdUHEmpVQBPaWLUl6lDZBJBBE5vVEHmUzOIQfGtwRzKVvOoi/TMKSQcp2wOujeqltViKHI21PhAIEwqCYrD7v2n0ZsQob94QjIlN3fIhFaPVQLTRpEQHYDZrfBYMKeA2dw5kJCcYNLMKLQoFYoHm4eDZWKlNBuvl2OScHr73+O46evQSKXssStUCzHyqVw60aFYPBbT6L7Ey1KSRY7zuxYmHfvP4PYRLqn66CEPB6Bvmp0eaQxfLwox/p6eyjccupcLPb9ewGkQXAd6AivYosmkay3QHUpnN3oepdjkvHn3pMwGCkifHPmm8MmoPts17LuDe/RmetrsvPx175TiEvKLHZVtiZFIjzeqTGiIkj61Wk2njOXrVT76HU6fPnFF5g791OYjGYsDA5AhEwgK5J/IM1sxtDUdGRbLKjRrhvcQ2tCq0lDTnryrQECDW6JFLkXjkEdRkWeHoIm/gpMRdMkGdgK8or58Zdgy0xG5zcHIbBxS7vksj2f3v6+iaxWHPhqMdJiL+Oz+Z/B198fZrMJY8Z/jMYv9OMsme3LP4VWpISLl29hHNpiMiPzzD/oQCm0vj4wMTVCIGTSu0P8cFJr/DgjE2pXN0yaNBk9nnsWMnn5tDAq1cMuOnE+YB4EBggn9kG3agZs2jwBgJZ8bYkrqzdA0a0PlF1fhu63NTBsuXsAgTwIm89swfJ9y7lGAnEFHAs7W/0Egm0maAwauEpVcBGpBNBg14MR9qU6C0IdF67DwF42YdYrKUrG39h5FgQeIgKro029Nkg1pcLHxadKSfFeKikSUY5T68rYpEQcuUVVRkEl60bHF3cZ3WxSKdDqMeOzHzBvya8wicWQiEXMtA8J9sEzXZrhxWfaIjoyGHInZIZZ5YvY5SU2srpKER/t+3D1RIvADSi5EdmvqNCNs5OjEEOzK6w5eRC1ryQ3wclDi+12s+cqKyM/+k6uUZmPob5PSkpEvzfexL+nTqGLWo0JPl4w0MQkFkNGSoKaLGzNz0NIneYIaNIehrwcZCXH3lpFkSYvqRT5V87Aq1ok1DXqIytBAAjXPQiOipBW5F89DUNmKnwDgxD9cCdUb94OLj5+DIDB48PKfIKca5fwy7ypeKH38xgxejSuxcRgyox5aPryuzj8xw84++9BuIZGFXq/aKzqM5Khu3wMw/yDObyQR/wD1jwA15ugHAcCB3tycvHkY49h/oIF8PbxrsyPrlxt++95EK7XLihimRSCAAYIJ/dB9+VM2LS5EJdlrFHoUGeA4pnXoHzipbsOEPw8VMjSZiEtL+264qG9sY75MseYg/VX16OFX3M092kufMtCUkVVpezFm6jKo+OfyCLUGrFZYbKZGTSQB0KoBEnVHgUit9aiRaz2Gtdi2H1kDzLSM7HopYUIVYfc0vgq14CqpAdXuAehst03WUjHT8fgqx92c8qjj5c7alYPYInn2jWDofZQOUEeq2x3VdWe+9kDFJYiL8KM6dMhsYnwsb8PmrkoWbuDWP0kaTwjIwPu/qEIa/8MV3DUJF7lBftmgJCtG4kU2oTL8A6tAffw2uxBIKGlQoDA0r2CDLIpLwu6pGsw5Gk4MyggrAaqN2mO0PpN4eofyOEKyoQg9suOxbOQmxKLRUuWICUpAd9u3Qu/+k2w59vVsLr6QKZyE7xfZDUCyDp7EP4GLeYGBsJbImbeCUlK51it0NpsOKrXY012LmwSCac29nrxhXKLQd3PZ3qrazsLEOgZ0vjQ6XR2T8+tznwb39tXTblczkTQskivlI1gzc2GNSsVoEwUx8YpJwqIPX0h9vDm8eM8QOgD5RN334NAAKGoxV+yJ+i7S+mXMOzX4XiuUQ+80uQVmEl6mWo4Wi1c7pk8DJT5QCEI+imUdCZwYIaRSz9bCvcx0f+pzLOFjrGA/q+z6JFvykOAawB2H96DjIwqgHDPyj3fxtCv0F3JgictBM73lko5Rs5pZw+wK7xCO7Tq5IiNjcU7b/fD0eMnUM3NFUv9/SCnmhUQIcNsxvspaShQKFGz84uQKFTIpIXeZGCd+BttDBDEUuhTY+EZHA73arWgibtcCiAwWZH3FXPhHGNOBlv8puwMFk3yD4tAzSYtUK1Jc3iEVIfcwxNX/tqMn5fMxugPRsNmtuDfmGSkJiUgTZMDF/9Q0kwULDMS5zLokHbyb3R19+BMjSSzGRcNBpwwGHHeaEaa0YAUnR5msQheHh4YO2E8nn/hBSiVtw75/VeHjrMAITc3F//88w8uXb50Qw9qefqAnrunpyc6deyEkFCqRHmdBM6exYQr0P/2FSzxF+0Ft+yogn7IFJCGR0PR+XlIw6JgPH3ASQ9CxQGEm/UFZ08lncV73w/Eyy1647XmrxWGEhgmWARQUPRjsBlYFZbKQButJgYRBBIYLBCYsHMZCFjQ38iTQDwFP5UfthzYgpS01CoPwuLFGDt2LEaNGoUJEybwIxLNmjXLNnXqVEycOBFDhw59oK2B8rygVcdW9QD1AGU0/PXXXxj03nvILtDjFU93DPBUgxLFaGIbnpqOCxYLIh95Di6+QchKiIFBm1/2e2UvxsQEG7EE+rQEqAPD4EEAIb4IQCiRpy5IJwm0AQvVfsjRwKBJZc+CVAyoffwQWDMaIXUawcPTG7vWLIKHpzu8vLyRlqNFZm4eFEERkNp5A0RMFMnlyDlzCKbsNLzl5cUiTAd0OsQYzdAY9DBabQgNDUHt2rWRnpaGM6dPIzg4BMNGDMdzPZ+D8gFMcaTn7QxAIM/Brt278PPPP7MHoaIMEHIDN23aFG/2fRNubtcVXymjRbtuHkx7/yCyF1f2LFJRyQ4qJZC16ASXnv1hjrsI3ZfEQbhViOH+AYSzyQQQBqF+SD20iGghCCnZWQYC/0oAyxw6IJqjyMphBf5ntf+kjA36ltLAHb/byMtA/6eQg5U1E45cPALoRQJA8KwKMVQoQHCQQSrqJamMyxSrMVZ5JSrjo6mQNun1enw8cSJWrVoNtcoFY7y90FalAtGmKJPhz3wtotp0hTo8mjkIutxMSEoV2iHCrI0XeIlcySEGXfI1eAWFwz2cAAJxEHTseaBFyqGLUKi5x8QykjKn7AMxpzma87Jg0KTAkJ0Oq0EPuUIJ34AQmLUFyMjK4Mp3EqUKimrRkLl5CNkPrGdhglmbi/yLRyGVK1kpMo7KTOt0vNSEBQejQ8dH0P3Z7qhXvz7S09KxetWXWPfVOkRH1+bwRd169Sqkr+/3SZ0BCPn5+Vi9ejX2/7Mfrq7FtVTuZvtZbE4ux+RJk+Hn51d4amteNvJmDwTi/O8AACAASURBVIMt6SpERSrOXg8z0DM2Q1K9FlRvjIFFkwIdZTFUUoBAC/2ppFMYsG4gNDoNpwk71hXhnoqyKq+zvMriezm0O4TjSu/BhEeLBbW9o7Ggz3xU87p5htzdfJ6V6VwVzkGgB5iTk4MLFy5ApVKhZs2a/PNeb0QoJBRf1kaLOLlDSWXrbmx0LXI5JyQkICAgADVq1CgslEQdTguJ46WmAkpVIOJu9HrlOMeVK1cw5P33cejwUYS4KDHZxxv1lAosycrG2uwchDduA78GrZGXnoS8tCRIZSVZ/jaemLRJV5lY6BIWBX3iFXiFR8MzsgF7EEx6GsdC5g1ZPKTdT/oKTES0ko6/hes+WEkNj0i0ZDmZ9DAX5MCiK+BjhFLTpJshyDiLlC6QKl1hs5iEIjs8b1pY34HORVOoTq9HcGgIWrVshdatW3FtBxrbrm5uvEDRu56akoIRI0bgr507MXv2bLz0yisPnMzy7XgQtu/Yju82fMceplsLY93+GHZwHJo1a4b3BrxX3IOQl4382cNhTb7CQlllbQwQwmvB5Y0PYa3kAIHGaq42F4fjDsNgEUqm3+l267wqAUK4ydzxUPWmLL50qwyxO21LZT6uwgECxeCWLVuG7777Du7u7hg4cCC6devGE8q92ugm9+3bhy+//LJM5jgRfF566SW0akW6BeUDCfTCXrt2DZMmTcKZM2dQrVo1fPzxx6hXrx5fm4DSmjVrkJ6ejg4dOuDZZ5/lfqnaHoweoLFGz/2FXr2QlZuHZioVZvr7YEeBDp+kZyCoZn1Ua9MV+Zo0FkySKRTFLR9a9MUSmLV5yL98nCd2i8kEdXBNeEREIzvxKox5OaxkRx9a0Nl1ajJykS76yS5VyhriWdCeC2xPKaZFisY4K5oSB1IisQMNktbl/DCihDOxzmwHEioXFy7g9FyPHnj1tT6IqlULCoUCaWlpKCgogN5gQK2oKAb+1Ja1q9dg5MiRvP/cz+bBw+PBKtTkLECguYDmv127duH8+fOF6XZ3c6TTs/bx8kHXrl0RGhpaDISQB8E5gFAbqjc+qPQeBMasRdIW72Y/3uxcApi+NaS4V+25l9epUIBAD5MsaSoK06BBA14UaWKhyYMmJro4dTyBBZpcyPKmCccRGyICIbnm6Dz0d/rp2I+K5Ti+J3Su1Wr5eDof/Z0WXcdDJVcfXVOj0aBjx458fjqG9qN2HD9+HHS+KVOmMAJ3uK2oreRZoONpf9pogqW/0YfOQ9c1mSjJS/iOjvn222/xxRdfsCW1bt06vPDCC3jsscf4ewIHW7ZsYcvr6tWrmDFjBsLDw7mtjutSmxztp/umyZq+Y6VEqtRn/74iLJJ7Ofge1GvRWPlx40aMHjUKRosV7d1c0cZFibnpmVAFhKPGY72gz8tCRtwl9iAUlU62Evs6PxfG7HQY0hMZAIiYyEiV8IidbWVCLT17tYcHAoOC4BfgD28vL35XlAolXFxofLrwuyKRiFjbwGy2Ij83D1qdFjq9DvHxcbhy6TIyqKiSyh0KdzVEUjl0mSnQ5mbjia5PoNNjnZGTnYUZ06ajQcOGWLZiOQKDApGclMyA/+iRo2jVujXvS+PZAa5PnzqNl3q/yO/CsuUr0KRpkwqxnu/n+HEmxOBY0GhuIa9hcXf43Wv9jbIYHkSAcPd6repMzvRAhQMEsqaJAUleg6SkJJw9exZhYWH4+++/+YWhybR+/fp499132bpeuXJl4YJIlke/fv14nxUrVvDfH3/8cWRmZjIzuHr16hg8eDBOnTqFjRs3cgiB9vX19cXkyZMLrXZaZEePHo0jR46AXHFEqOrZsyd++uknnDt3jq+bnJyMwMBABgq00WTXuHFjtvJXrVrFloBjEX/iiSfw2muvISYmhttF9+gAJgQG8vLy8Msvv3BRnGnTpuHixYvw8vJibwJN2nSuli1b4vfff+e2kHVB12Vrzs5KJg8EgRUCEPQ9hSIcwInu76OPPmLQVQUSnBnm934fGotfr1uPWbNnQ6vXo45chhiDEWIPL0Q++TpM2jxkxF/hcUPPkMEy/TQYoIu/wN4BMVdnFEOflw2x1Yz6DRqgYePGqFO3DkJCQuChVjODncYJAQOJXXfCAThKjg3H+KEQhiYjnUmVM2d9Cs/G7eFOkspiCZIObkX6+WMYMnIk3h8yhMfy0089BaPBgM1btnBF1c8+nYeYazH8DrRs1YqBCYFtx3XJEBg+bBh2/fUXxk0Yj75932Sw8CBtzgKE+3nPDyJAsJjyYcqLAayCUVaujYxJl0BIXfwBUfk8x+VqRyU++J4ChLi4OCxYsICtjRdffBFBQUG8MP7222+8UNMk06VLFzRq1IgXS1rQaaGlRbNFixY8Ka5du5YX2969e/MEl5WVxaCAQgRRUVF8PrLe6ecPP/zAiz7dJC2yBCroQ0Dl008/ZY8BLdi0WG/YsAFqtZotfYengs5DPAJqa/PmzXkCTE1N5Tb5+PgwqKB7INBCkzQBAVr0yfon3gXdK12DJkwCSNu2bWMQExwcjCZNmmDp0qV8fQJBBGII8NBk++OPP7I3hLwTdC46lvqD+ojAwY4dO9C+fXsMGDDggZt4K/G7cttNo+e3cOFCfDbvM5AYGKlLShRKRD7dl5+vJuEKu/cdniGKsRIZ0FXtC7nKlcMLYqrFkBQL0ZVDmPv556hbvz7kMlmhDkJJdThnGmk2mpCensrvxOgPxsG1/sNw8wuFSCpD+ql/kHx0D57r9TymTZ8OuUKBr776CtOmTMF3P3yP8OoRSIiPR1ZWNs6cOQWdlsZzCJMUI6MiOR+fxvjypUsx7ZNpePyJxzF77lzm4jxI2+0ABJqfyLipqE1I1S4dsn3gAILNCp3mFFL/Hg2zTiOExJwhIpTJXRTSglXBzeHb+H3IPSKrQEIZA/SeAYSnn34aBBAWLVqEDz74AO3atcOSJUvYoifr4sMPP0SbNm144Sbmb0ZGBi+MM2fOxL///os5c+YwAHj77bfZJf/555/zh0AAhTCIP0ALbuvWrXnxpP3o70899RQDD05nsVgYCJDbn65D1j0BEroOLdIEXCgsQJwJait5OQgA0H60aFObhgwZgq1bt2L69OnsXaA00N27d+Py5csMWiilibwg1FbyLnz//fd8rxSvpXvnnOVOnbiNb775JgMAul+y1Gj/Xr16Mfjo06cPt5m+I/BAffXkk0/y/RD5iyZcasuDZplV1CR6v86bk52NObPnYv3X62A1mbnqZkTn3hC7CFoIVBfDYelzehaH3cSQUGlauRxyhQunQxrP7seSL5azxV7ejRar9JQkBsrDR30IUfUmcPMNhtmsh+bSKWSePoRGTRph9Vdf8Xjdvn073n3nHXw271M82a07MtMzsHb1alyLvQZPLy+EhoSgVq1oNGvRjEE2LYjbNm/GoEGDuWLkqjWr2Zv3IG3OAAQHB4H4T6fPnBZCoLeQQr+dPhLS+2wI9A/keYwMqKKx8gcRIGg1p5CycxDkbp6QeUTYu0uoF3K9PHUR5MCpwvacBU4Ltn9oPdCmQ5sRA1VwC3g3GgKFZ22IqjwJxYbgPQUI8fHxvNCTi37QoEFISUlhq5is+p07d6JWrVpscRMaJrf90aNHsWnTJnbJ04IeGRnJCzm56j/77DO20OnlI0ufLHuy0CnNhyxrUn+il4VAgkOwhV7Qb775hi0iOp50Hsj6J4BAgIIyLIg0SCER8hoQ2YyuTyEQ8lqQF4HavmfPHowbN47vgRb/WbNm8cROCzl5Lui+CFjQdShMQt8NHz6c74tdwx4ezIXo27cvAwTyipDngdpDJM6XX34Zr7zyCl+TAAK5cikUceLECcyfP59BURVAuJ2p9P7uS+CPQOfn8+ZxWmP4I8/CxTsQmfGXQSWUi6kiOkSP7JUaaQwbdfmwxp3DosUL0bFTp3LfDAGE1JRkZFGZ52EjoJF5Q6H25pQ3Y04m8q6chLurCtt27mTOQey1a3jjjTfw/HPPoV//ASyLTu8knYfADQFwescIrJKny2I249jRI+jffwDy8wqw9qu1aNGqZbnbXZlO4AxAoLlg2/ZtHMp08K0qgodAz4HCjYMGDipGeH4wAcJJpOwcBp/o7nCv3RciG5Fr6WMCrCQnTnwte3YPzBDRh2oyUEaPzQjY6P9mBhT67MtIObYaZl0uXENawqfpKCg8ahevzluZBt19aMs9Bwhk/ZKlTgsceQJowaUFk7wKtMjXrVuX/9+2bVtefJcvX85WP1nsZJUTQCCgQOehxdIBEOiYkydPstVNVgwBAELV77//fqGVTTf79ddfsweB+AElAQK1ixZucgsT+CBCIXkRqG1EcCTCJXkoKJRAilJkwVM76Tw0GZB7lbgC+/fv53uk61AYgiZNAjwEJBwhA7oOeRAoNEFAgsIWdB7iVBA4cAAE4j/Q5EyAg0iN5DUhr0QVQLgPb0s5LkkepNdffRWnTp5G9XZPwz2sJnsQLCVkk0tegnk6Bj1yLx7Fgnlz8FT37uVohXAoA4SkJGi1BXh/yHDEG6Vw8fJn9USLNh+5l4+ByJJ/7drFYa+CfC1effUV1K9XD+PGj0eBVovffv0VJ0+cgMlkhp+/P+rWrYNmzZsjrFo16PU6xFC655ChiI2Nw1fr1qFV6/J7Psp943fxBM4ABNZBWLOaDSAKJVYEE97hdbqRDsIDlcVgs0KrsQOE2t3gUacfRBbiIhA4oMXfBKvNwGnCIpEZNqsJIpERYkoB5pRfvQAQYE/bzY1H6omvYTFkATYpFP4PwbfJMCh9GkIkdr5g3l0cVpXuVBUOEIjIR9Y2Wea0wJKbnTIKCAgQm58We+Ic0GIbERHBco7kCSArnCxsWiDJwiYS41tvvcWLIx1L1jx5GxwhBuIRrF+/nhdoctPTQkpeAeIUONjVDoBAXoS5c+fygkzfP/PMM3xuAiCPPPIIgwP6nrwQ5O4n4iH9jQANpRNROIGAB4U1iAxJIIVAA52HPCF0LJ2LPBsECgg8jB8/ngEDtZGUKQkg0MJPgIHaQ6EJIiZSPxCfgrwIBErI8iTgQZkRFNKg8ERViKHSvUe3bBBxZd59ux/2792LsFad4VmzniC3bCen3vAE9oyb7AtHMXncaLz82mvlTsU1mYxITkjgKo6Dh45ATK4Vrr4BrJdgNupQcOk4LBYDvv/hRzRu0oQBBY3HIH9/zJozhz0eKcnJ7EWgDB56vyQSKXx8vBEQGMiZD2kpKRg+cgSSklIYADds1OiWffRf2sEZgED9RnPZd99/x7dWEQCBzkucD5pD3x/8/v+PB6EQIFB2GfE7jICVtD8o9dcMqhZi5YohRkisRQACAQWYBF2P3DgGCFZjFguLWcwiuPg1hV/zD6DwqlcFEiq6mqMjzZEscHL904J34MABJg4+//zzHN+keCUtsBROoInm0UcfRZ06dfhlItEZcvGT9Uzx/9dff72QDEiImc5FRLDs7Gx0796drXa6JoUGDh06xIsqLeqOjQACuftoUScQQS8vLch0TVrwiVhIYQ46noAMZUYQICE+AC3S1B4idtHiT8fS5EiZDuTpIDcrASDiJ5B1T+RGugZxF4jPQFkTNGEQIZN4F3QcpYqRi5a8BXT/Bw8e5BedvBIOrQQKfxAoIJBBYIuAFt0XER2rOAj/nSUlNycHw4YMxZYtmxHatCO8azcuM8RQ6o5IVdFqQfbV0+jX+zkMHz263LwTox0gULrk4CHDcD6jAG5+IQJAMJugvXQMBblZGDN+PANnvUGP1197DUq5AvPnfwaDwQipVMyuWNZUkEjtyo3EobBBp9UiPTUN7w8bytkVK1au5HfzQdqcAQh0vzSnUEjy/IXzFZLmyB5TTzW6Pt6VQ68PPgehqAfhHbsHwQmAQGEIi0HwJMBYCiBQv7Fos1kCuWc9+DYbBlVAy/97kFChHgQHuqWFllz+BBIobk8LJlnTtLDTACfrn2LvRJqihTkxMZHnEtqfPAdEXiQrmz60KNPDJD5BdHQ08wXIfU/WPrlx6XzkFqXFkxZWWriLbuTypxTBvXv38kJNBEQCLBQWIL4C8QjomuS9IKuPzkugwtEesviJS0EAh8IN5N2gxZ3a4+3tzcfS/VBIhM5JXgZqP1lR1DYiGpJwCoVTCBg4vBq04Pfv35+BwaVLl5jESJwD8pIQP2Hz5s0MZKj/yNNA16D976Xg1IM0wd/reyEewvgx47Dxh+8R3OhheNd5CJlxV1gB8eapqsKimxt3EU+3bYapM2aUW7aXBJUSE+KhkMsx8P0hOJOYDbegahCR4JLVgrxLJ5CVmggiFk+aPIn/9v6QoTAZjFi2cgUXd6Jy4YIIo13PnkqfW6icrg1KhQL7/v4b4z/6GL2e74XxEyfA/QETS3IWINA4IyOIPhXlQXDwQEqe/4HmILAH4S4CBCYyCkJMVrMIUnUdBLQeBxefxhCJZfd6uqg016twgEB3SpYzxePI2qCYe1FBJPqeyE2U3kd/p/3oJ220vyPHmixo8hbQA3ToEVA4wSGkVPQ4AgV0nbJUER2iS3Q+Op72oxeMrkkuU/qezunIDiD3HV3X0R7al1528ijQ4kzfOVKY6Ds6H13fQVik89CH2kcbxSJJNIXO4dBnp3M47tUhvESWB4UgyJtCREpKb6RzUAiDgAdxKCjMUqWDUGnepZs2hJ7dlI8nYd1XXyGoYUv41muJ9JgLfAyXfL6JUhuNybzkWLSKCsbnixYzx6Y8G5EIkxISIJVKMHLEKPx7JRkeIRHMQbCJRMi9dBz5aYmo37AhVqxYzt670aM+RFJyAnr0fA4mo5k9WtqCAuTl50Mml6Fm9RosmFStejguX7yIiRMmIkOjweefL0DHTh05BPEgbbcDEO7XfVcBhCIhhrI8CDmxSDn2NSzGHOERFUmHtJrEkLpHIqDlULiGdPi/9STcE4Bwv16Q//J1CbBQ+iRxECi0QWCG/kaeBvI8UEilKsXxv/OEtQVazJwxAyuXr4C7fzC86jzEtQ0YxFqF2gdsAZYFFEhJNDMN1VUWLF2+nImA5bFGLRYCCPFcKnfKpCnYfuQs1OGRVLuRtRfyr5yCLiMJLipXNG7aGOcvXECOJpvHIJWH0um0rN/Qtl1bPPVkV4RHREDpooJMIsGFS5exdMliHDtyDH3f6ovJU6f+30ot3+/RWQUQbg4Q9NpMZF7eBasxrwg4sJdOJ6ZCTiJkqtoIfnQWZO6hJYpB3e+ne2+uXwUQ7k0/39FVHB4VCrmQ14E8FgQQKMxBk3XV9t/pAfIyfbP+a4wfOxZiks2WSiD3DoTSLwQSVzV7gtiA4bxtqpVYZLPZoC/Ig7ogFbPmzEbLli3KRVSkcUUAga71+fzPsXHb3/CKrCdMkiQfHncBxqxUGIwmVm58pnt3hFUL47RbGoPHjh7Dgvnz4R8YwHwb8ibk5uYhPT2NycXubm5o17YdRowexQWdygNmKusTdtaDQJ5CCmuSWFpFpDg6PJ7EtSKvZhUH4QYkxWIeBMp6MMMmlcMqEcNK3xGR0WaByGaCiIiOMjUyTv0CfU4ugh+dC7k7cWj+/+oxVAGEyjoDVbXrgeoBmsivxcRg+JChOHjgAMsqS6lwklQKmZc/lAFhkBJQcNRWKlYq3AaT0QAkX8K4MR/g2R49ygUQadFKSUpk/sOa1WuwfM3XcPXxh1VvgNWohdWg5RCYp483Fzhr0rRpYSiLFiAKg+3+6y8m7FIojLlEViG92MvbG/Ub1OeURyIhP4jggAamMwCBJleSll+zdg3zrhggOKP85+TI55LEIitrUBDX44nHnyjGSXLWgyAOp3LPt1HNsftrUHZ9CbpNa2DY+h3EMimP55IbeZkgcYHrkE8grd2YBcBMFivW7juFyT/shUQph8lkwWP1wjHrhQ7w87hFld9SaY53ykEggGBgXQSrjSqhUlaDoKNA6ZISmxZQBiPl4h4YcvIQ/OinULhXrwIIo0Zxej97O2fNmmWjNEBSCqS0vPJWOXRyzFftVtUDD2wPkOV+9cpVrlFAPJJ/Dx3iBZZEXOQurpB7+ELu7QepqwdEEpnATbBvlMmgjzmDvq+8gPcGDy4XUZEWLgIIVF/hpx9/4lRclVIBJak2Gg0wmExs+Xd/9hm83e8dtkxLbgQg6H4IGNDvtPhRhcjCapElyMEP2kN1BiAQkPpmwzfYuWMnL+IVAZZYSMtkZDA2cfxETst2bAwQZg2DNTkGImkZ1q9NxCBRFB4F175jYE1Pge7LabDp8gXxrpKHEClVr4eiWx8on3gVuk2rYdi2AWIqWW8n+V1/ziIOQ0GihOuQaZUQIBgBkQk2mxkWs5GgFv9OwEFi08GmCETqhT12D0IVQKBkAJIgqAIID9pMVnU/laoHHJLf+Xl5OHH8BOfI/7VjJ7KzsiAjr4JMDrGrO+SevpC6e0GiVEEkIQtNgrzLJ9HhoYaYNO0TTv29040AQmpyEgx6Hf74/Q8sWbIMr/Z5FY0aN8aqL7/E/n/+YWnvx7t2LZen4k7b9184zmmA8O03XDOmIvlCBNQo/DNh/ATOpCoECNoC5C/5COYTeyFWKEt3K6l1UlXbRq2g6jMSlrQkaL/4BDZNCkRU26Gkt4NKkRuNcHl5MOSdekC//Qfof1whKBlzxdGim3BueAbAbdhMSMMiGSBVHg+CCRCR6qIdIIisrJ/AAAFVAKFwDFmtnMlXBRD+C7NSVRsfqB7ggk0aDSsSbv7jD+zftw+J8SRgZC9FLldCqnCBSK6EWKaAPjsDtSPCMH/RItSOrn3HfUFStGnJKayk+Of2Pzl9+NPP5nHp6M/mzsPXG4Ry5Z27dKkQq/eOG16JDnQGIBAQu3DxAuuppKakskVOtRPu1uao60BkU0qfJpG3YmnPViuM549B9/Mq2NLiBEniom4BKhseGA5Flxchr98CVoMOhj2bYNq/Fba8LHvdgutuBJHcBZI6TaHs+gokgaEwJ8dDv3k9rOePwmbUF7ktCqWIADdPKDo9A0XbpyFWCl6oKoBwt57+vTlPFQfh3vRz1VWqeuCGPUAvIaXTXr58CVt+34ydO3fg8sXLbOFzWi9pDtBmBQJDgrFg0UK0at36jhdvBggpKdAV5GPXrj1YtXoN5s2jiov++OGHHzFz9mxW6yRFz6J1Iqoe4fUecAYg0N4OEJiWnsbhmIrYVK4qhIaElqmJQm5+a0EuLEnXYDNRKXv7gi8Cg06xfwhE7l7CcyYNAJMRtqxUWDKpvUJ2jbDZIKb9AkIhUbhwtg31gU1XAGt6Iqz5OUU8Djb2eIl9gyD28oNYdr3S5N0FCCS1XLaSoiCnbM9ioH2YiKi3CyWRp6BEiIE9CIJkc5UHocg4r/IgVMQrW3XOqh64/R5wAAUS/Iq5GoOL588jKTmZtQZo8v5n3z5mw0/+ZCpe7N27lAiYs1ck0JGRmsIVRIkLsXDBYixatAC+fr44evQYRo4chbfefhsjR4+qEuK6Qac6CxB4aXUU4HL2Ad3mfs6U/BYW+5IARUirLcWNKGxvif1F4jJBKQHO65UUHY0v+9zOAIQbZ3vYoNOcRurOIfCO7g6P6H6A1SQUauJCTMSJMQhcAi7gRHUXDBDZMxSYmEi/E3Cg3/knyTOTsqLwO6ktiqEDqjgIgk1SBRBu822s2r2qB+5BD7Cim8XKMsv0klKa5JxZs7Fw0QKMGD4CI0aNKqxServNoXNrMjOY90BEyVmzZjPnwM/PFympqRgxfCQiatTA0uXLHkgNg9vtr7L2LxsgeGPR648hMuA6D+BuXOtBOsetAAKJFlkMmay3UYwkaRN0Qkz5iUjbOx5eUY9DVeMFFvYScI+Vhb5AYIUWewYJVMiJajRY7ADALrXMgIK8BSahsmNhlUcjeyTENh2gDKgiKVYBhAfp1au6lwe5B8hV/esvP+O9/u9xlVLSQ/APCLizMIPNBqoNkZGRxpoGU6ZMxcKFCxAUHAST0YSRI0fjakwM/ty5g3U3qrbSPVAMIKTlsH5E7UACCJ1RK7AKINxozBBAWL//ND7+fg/ESoU9zbEaZr7QEf7uSuTG/ATNya8AESGC0mexWQwwa+MhVaghVvgX0ZYglOAACfS7/VPMG+IImdC57R4VCuHZvTwuai94VWvBgl82pX8VQKgCCFVTX1UP/Dd6gKz+E8ePo9/bb0OlcmEJ4waNGt2x1HZBfj7SkpNw+vRpTJz4EebMncPVVEmAa/y4Cdj99x7s+GsnatSoeWcg5L/RrXfcSgIIF5I1GLJ+B84lZTGJ310uw8wXO6BLvepcq+L/T1bn5t1JS3aezoAp3+/B98euQCKXwmQ2o1fz2vjomTZQu8iQfXEV0g58CpGEsgzK5mxwSiUv/Hf8+K5HWzgSQimZIrj614BvrR6Q4X/sfQeYXVXZ9Trn3D69l/TeQxIIoXelKQroB4IKCIKgNAFFkaIIIkWq5ReVT0QRUT6aFOkgkEJIL6RnMr33ue2c8z/rvbOTy5A2k8lMZmYfuE/u3Hvq2vvud+31lt0I15ejCYImCPvQwfShGoE+RqCmuga33Xor3njjdclHPvurX+2xm4FBkVXlZVi7Zo2c66c/+xmmT5+OaDSGO++4A2+/+x6e//eLmDZ1qiYIO2lnGqealnb84B/v4LVVW+DzeuDE45iWn4XzjpqGUTnpCZlcb4KAqiL+zsoteOydFbB9XlEILAO49UtH4Jx5U+CzDDSt+zOqF94Lw+IiZp06QBcmwPogiXjPHQxBkBZ3w448kQT6qg2SPu90SyTW9UnsQ89ESv545Ew8C167Hm4gWxMETRD0r1cjMHAQYLntv//tSbCA2VlnnYUf/ujGTxXG6c6TxCIRKZa0fv0G3HTTTTjp859DVla2KAof/Pd9Scd7+dVXJRZhfxT46c69Hqj7RmJxPPruCtz30kLxhZumgXgsDkRiYF2ifZrhHqgPvQ/3ienvrAAAIABJREFUZZhADAY8QRaNAqIxG5OLsvGbCz6HCfmZEkPQlSBwJVPXNQEe3BljYMKFw4BJWFzpLBF3ICmcnemVlHO4PwMz+TmVCKZdyjm4OZ1cQs4EObOrCcLOmlYHKe5Dh9eHagT6EgH+WBcvXozvXn45CgsKcc9992LipEk9MuCstVBdVYmSzZvxwx/+COvWrwezKVmoiUThzLPOwnU3XL9PFRv7Epv+uBbnrxurGnDrc+/jvbWlQhD4EjvVHzc0AK6ZWIk3kf7ps0x8/5S5uPiYmfB7mWbpfIYg2HEDwbzJ8GdPk2yDjqqPEWupRah4FvxZk2BYPtgddWgrW4R4azn82SMRKDgEViAb8fYqhKsWIdJYAW9aLkKFc+HEImgt+QCWP4BgwRyEa5fAbqsV9UErCJ/tQJogDIAflb5FjYAIqq6LqspKXP/964Qo3P/gA/j8ySd3Ow5BVXOsr6tDRWkpbrn1NixZsgRHHXkkZs+ZjYNmz8HcQwf3Wgq91aNicRuLt1Thodc/xqJNFYiy/HTnybWD4dMoE5dEcScDuSkBnHXoRFx67EzkpnYuMrUzghAzkDLqJKSP/jL8OdNQ+/HdsMONyJt3E2JNWxBrrYQVzELzulcQb9+M/MNuAAwfIo0l8GeNhROpQs3CB+HNGIGCw26R2g5V8++AE26VfetWPIhw+UJQRtAEQROE3hoX9Hk0Av2CQDgcwSMPPYT777sPV11zNS67/HKkpqZuXytld+4Aycd3XMTiMbS3taG1tQWRjg7ce899eOvtt/Gr++/HMcceCxbe0Wuv7H3zxm0HG2sa8fLyTVi0uRJlDa1SMVAThB0YJnIMXGQG/Ridm4FTZozBcZNGID3o26GAKYKw4F4YnnjCe8DjYj74Msei6IRHUPvxPfD60pE1+1o0rf0L2sreh2uHEW+vR9q4zyNr6qWonv9ztGz5ABnjT0TuwVejdtE9iIcbUXDET4QgRJs3onn9i8iafiHqVzyAcMXHmiDsortrBWHvxwG9p0ag3xGwbQdvv/kmbrjuOqRnpOPkU07B1KlTMWLkSKRnZMhSy8FQEJaVWDhJCENnxLdtx9HB+vwtrWhpaZZ/WXjpqaf+gQULF+LOX9yFs84+E17W4ddbtxAg+eqIxVHT0oHq5nZQWdBbVwXBRXowgIK0ELJSA7KaadJ6ZDtcDAvug2HGJXbAMFwJJaAaUHTs71Gz+D5EG7cg9+Ar4AkVS4xBtHkzGlc9gdTRxyN15KmoePc6hGtXI1R0CAoO/zkaVv4WsZYq5B5yNZo2voy0UafCiTfAE8xD7cd3aYKwm46qCYL+FWsEBhgCW7duxW0334x///sl+L1eZGRlIi83D3n5+SgsLERBYQEyMjKFKLA2P2O0YtEo2trb0NzcjOamRlRV16CmuloKI7FyY2pKKu6+716ccsop8Hi9AwyRA+d2E8H1iYh5rSB8WkHgX+Jg+BQrSGo7URD+F9ULH0EgdxycWDOiLSWADfjzJqLw6F+j9uN70V7+PjzBHHiC2QgWzkPa2DPRsvFpOHYbsiZfgqoPb0NLyX+RPu5zyJtzvRwT72hA/qHXo3r+IwgWTEbWtAthRxtQveAmhCuWJBSEvM4sBkdnMahW0QThwBlb9J1oBPYKAaYo/ufVV/HXJ/6KzRs3orGxUdZysDlrZY19rgrp8UhNA4vLLrMqo+PIIlAMDnOkOiPr5ZsI+H0oLCzCV885B9+44JuyGqDOWtirZtA79TYCroPGT/4XNYv+juITb0akYS3aS9+DP3c0fJnT4MsYj5oFP4c/cyT8uYcg2rRWVIRQ0VGop0rQWoW8uTfCDtchXPMRgoVHwjBM1Cy8B1YoH3mHXIuahQ8j3rYZeYf9AN6Ukaj56HaEKxfL70bHIHy2QTVB6O1Ors+nEdjPCFDOjkQi4h4o2boVZWVlKNlagoryclRVVaKhoQHt4bD4fNU8lqlcXo8X6WlpyKTikJOLnLxcFA8bhkmTJ2PSpEmSsaDJwX5uPH36XSOgCMLCPyJz2umIt5YJ6U0fcxLceBhtpW+hvWwh/DkjERpxopADJ9aCjuqF6ChbANeJw589AaFhx8CTMhyx5o1oLXsHsYYSeNOHITT8GLRuew92SykC+VPhz5mJ9rI3EW+r7ExzHIfcCWfDqxWE7W2kCYL+wWoEBigCsl4DV+tzHMRiMbBOAl9ct4FqQbLQTWmXgYckCT6/T1wPfInKYFndzoQYoJDp2z6QESBBWPcnVC94SFYwNVxbiiebJpeKduDG2ztLJJP3+mCYAbiyQFMHDC51Kt4dA4bph2H64DphuE50ezGkxGdRqbfg0qdgUl3jeg0M3gVSCsYgb9KZ8DqNulBSZz/RBOFA/sHoe9MIaAQ0AkMFAddFW8WbaNrwLwlOTBQ4ov3uXLiJLNeJw4htg+vJAcyMRHEk+VxWc9oJUjsqKSa+VEmoibwKIQdyKRf+tHyk502FFauAG9CllomWJghD5cenn3PAIEBlgIoAf5yc3TOeoCfSv1IWeD6lFCgQlPrA8zJmQW/7jgDjO9huXTdiTPz7EufkPsTr8vpqVVD1d1/ez96i69iRhFKw0xBPF/GObWhdcy+CRSfCX3h6ZwVFVkxUSzzb4PLTLiMbXUdUCIlylGqLXOpZ/RuHIas6UoFg7QpbyIcZa4IRrQSCerEmTRD2ttfq/TQCfYQAB/ampib885//xPr16zF58mR85StfQVpaWrfugMZg06ZNch6e7/TTT8dhhx0mZIPXYPzCJ598IjUUeI1gkDKu3nqKAInBihUr8MILL6C9nQZux8a2+9KXvoQpU6YI/n2xMVvl6aefljYeMWIEzjvvPKxZswYvvvgisrKy8NWvflUW5+oJ8eyL+9/ZNWj4O2qXouKta5Ez+QxkTLkUhq2WdI4IASDBcBwSARIDLuccgcm/SQ4c7kOyEIXrRmE4fB+H48TgcMnnzuWfTTcMBItQte6/CDc2o/jEX8GfNnpI5qVoBaG/eru+rkZgJwhwFvrSSy/hZz/7GUaNGiWD+l133SUGXuIKZIEZ41NxA+pznk59T4PF49544w0JPiwoKMB9990nxoHf3X333Vi6dKm8/8Y3voEvf/nL24sj8RzcaMw4y+TfvAYHC3VtKhsDybjs7862WUpW/xAtLS0S8Els+CK+TEtlu952222YNWsWWltb5cXv2TYkEHzPbBSSC2KrYkvYXip4lPElDEDludgumZmZQuwYsFpXVyePyLZiu7Ey5jXXXIMZM2Zg9erVcm9//vOfpf2Z8XL88cfjoosukmN5Lp6Tx/F7v98v7c1rqe8TJZJd+Z7X7Je2dx201y1H5dvXIGfiaUid8M1Oo01XREIpcEVJ6CQIne9FRZD30R1KAtUDIRIkDvxd8XsqClQdIoA3HTVrXkW4sUkIgk8TBNxwww2ysBs34+6773a5KMwtt9wiHU1XVtvfQ4w+v0YAMjBzIP+///s/GdSvuOIKXH311Tj66KPxwQcfoLa2FqFQSAZ+Gpv6+nq8884722etNDA5OTk46qijhBDwPRUCnpMLPHFgnzZtGh555BGcc845ePPNN0V+prrAc9NI0Hjxs7lz58o1SFIWLFggNRQCgYDMhA899FBkZGT0j6E4ADsKF7liW1122WWYOHEiPvroIzGofE+cfvCDHwjJI25///vfUVlZKYaZ7XPhhRciPz8fDz/8MLZs2SKfK6PNtrrkkktE6fnrX/+K999/X4w523HOnDk499xzpf2pXPBzjtMMPq2qqpKA1T/84Q+48sorpX/w3Ndffz1KS0tFQRo9erSQB268Ho877bTTpBYG+9qzzz4rbc5rKVJy4okn4utf/zrS09P7vBVEQahfjoo3roQ/FIAvc3QijEAsVnL8gQQudMYX7HifWD1LxSDQ1aAOVp/zbxYWs8EVIzvqt8GxClF8AgnCGK0gaILQ531eX1Aj8CkESBAef/xxIQhcZfHb3/62zPbWrVsnxICyMAf3bdu24YwzzpAUx+XLl8usj98XFRVh7dq18i/Jw0EHHSQG/Sc/+Ykcy4GdBIADPs9LFWHVqlViqKgycMY4btw4mT3yGt/85jfxxBNPyGyVn/PaNDBHHnmkEBfOKPUGWQXze9/7nhCEiooK3H///UL2aMRvv/12wZD78DMqQ0cccYSoBO+++y7a2towfPhwlJeXC/EjxiQGJGtUk0geWJ+CbXXSSSchNzdX2vY///mPqAsbN27EMcccI++HDRsmSsT//u//4kc/+hH+53/+R1QkTvbosrrxxhtBteP555+XCpy8D5KAmTNnyuckNuPHj8eyZctw8MEHC0EkmSG5IDn8+OOP8dvf/lbus88310G4YS2qF9wFJ9KStDpjT+5kT8tpSeSjpEvmH/YD+FKHa4KgCUJPOpo+RiOwbwhwpsnZHmViGg0O/M8995wQBBpoSsLHHnssvvvd78pAzWqJlJD/9a9/yTEXX3yxzPw4eNPfzI3qw4YNG2RWS8NOA0WJkH7y3/3ud7LfHXfcgddffx2//OUvccEFF8jskt8zTXL27NmiHPI6hxxyCO655x6ZqfJclMx/85vf4NFHHxUC0i9y875B3utH0/izfb7zne8I2Xr11VeFhNHQ08j+9Kc/Ffzo+yeRePnll8Wgs13ZDm+99ZZI/j/+8Y9FJWC7nHrqqaI+sA+wf/zqV78SssCZPZUIEgW2L5UftgWvQ2LAmBMSAMYdsA3/8pe/yPfsR/yX/YLXIXngv2+//baQlOOOO05UjGeeeQZf+9rXhJz+4x//EHWBSgWJAl1f7C+8fp9vLuDIugsVskzzfq9USXee6YUVKoZpDc3qojoGoc97ub6gRuDTCHBwfvLJJ0V65qyRhoOD+a233ipyLrfHHntMZqZ0G3Dmz8Gd/kAaExofGmoO9pzp0+DwWBqZ73//+/jCF74gBob+cH5OdwVnnZzZ0pAppYIEgi8GtlGaJuG46qqrcPbZZ8s1HnroISEPlKJpVEg06IbQBCGhICiCQBLFGTgNNsnCgw8+KO3EmTpVF6ovNNpsZ8Z/UC1im5EgcIbPNuBsn8oPZ/4kbpzd08XA/ZTiQ9JGV9FTTz0lhI1uBZJGEgvuT9Xp17/+tbQh3Qnz58/HvffeK22vCMKll14q70kyGLNCokKCwLamW4L3zjYnYaDi8Itf/EL26xeCoH42kpfYF6MIYxuYYtknF+uLB+r2NTRB6DZk+gCNQO8iQMOv5HoShL/97W8ya6dxOP/888Xo04hQVqZxoKzPGAHO5BYtWiTGm8aGkjLVBRp3DuJUIq677joxEDROJB3XXnutzGqpAtx555145ZVXxP3A2SJntiQknCmSrNB9wb8pfzOTgv5nbrwHkgMaLioPOj7p0y4GumBoWBkHQiXnww8/xO9//3tpA7YR1R4SAM7MOQCT/DHbhG3AWIXLL79cjP3YsWPFVUHSwP1JENiedP1Q7ic54LGML+HMn3EiDJKk0kByyO9JENiubHOSOpKKZIJA9Ykkki4lBq6SyLCv8Tiu0UHFgUThi1/8osSpsM/0m4LQuz87fba9QEAThL0ASe+iEdifCJAg0HBPnz5dZpec2XP2STlaGWDl06ZByMvLw8iRI0VG5mxfEQQakq4EgUac0rGaSXJmSRWB0jXT4Ch1U0HgTJIzYMrZvB/OSkkQeH3eBwMdeT0qBvSzc5bLWSQNGsnKUN+UgkDjTvJFckYjzjZlECJn3jS8xJd/c5ZOw0vfP+MMSNQYjMigcKYi8kVyyHgF7k9yQRLAGAbK/ieccAImTJgg/YZtSgVBBZJy9k9liIb8T3/6k5CP9957T0gGySNdDCo+gaSEBIGuKpIHEgSSAt4nXySrJKbf+ta3JD6FfbPfFYSh3tn68Pk1QehDsPWlNAI7Q4A+Yw66DELjDJFpZAw65CDPaHL+TZmX/mb+YKky0HgzmJGDPmeI3IdGiH5puiFoTOjzpjGn5E1pmkSB56BfmoM+Z540TA888ICQAErc/I6zVwaisY4CZ5UkBZShaUR4X5zB8vw0TvRNawUBkulBbBmUSJwYDHr44YcLMWP2CANHFy9eLAaeWQIM8lM1L5iBUFJSIq4gnoPkgm3MtqSBp3uIQadsc5IFtVFRoGJAxYcKD69B8sj2pLJEskKCRyLx2muvCelgX2G7MsaFLoOTTz5ZSAADV9kHqC7w+lSNSB4Y9EhFhDErfCb2I7op2Cf0NvgR0ARh8LexfsIDHAEGs3EGSqNL40u/NY0CZ5ic2dNQcFbIQZzfcSbHGSUj0Ok2oL+bnzELgVIxjTi/p5pAY8+NaXI0XHRP8F/m3lPi5vFMxaOB4sb4As58eT4qCZSWGWnPczKSnkSF5IJxEDQgDJrTGyQwkISNigwxpBpAhYWKD4kaNxIw4sd92D7cSAToumG78z0lfxp2xoswK4XtxcBHEgS6dUgCuHHgZlYKXUBsHxp1xoJQBaILg+fn/dDVoBQe9g+2M89L8sLsF2ZMMNaB/YEZDCQBjIkhIaBLgffK85Jo8Ng//vGP4i6hMqK3wY+AJgiDv431Ew4ABEgSaCTor6bvl8abs1GmmnGGzhQ4SsiczdFYU/KnG4IGnrIwyQQJA4+lEeHMj35nHkPjRdcFjQHz3ouLi8UAcJZJ8sHjaCw4s5w3b57EPFCSpjEjQWAAGwMWeTyNDc/LGAkaEx2gmOhcVANoWDmbZ3vRoLOdiD1xI07EnSSAf5PsKUJGEkClgG1AdYGZCIxJYQwCMaYqwP7A9EWSM1WTgISNbcU+wP7Bfeh6IkHh/ajPqVrwM5IAEki+5zl5b7xnkk62K/sO//33v/8tbgyqEkx55PPwOAZWst/QDUKyobfBj4AmCIO/jfUTDhAEkuvn85aT10/Y1Xfqc7XeAn/QyoBwYFdVFlUtfv5NQ6K+U+sE8HMex/1UBUCek0ZOVVJUBXpo5PqqZPAAabrtt6mqUCYTp66fqb/VQWwzEjAGF5IAMsWUGSo03Koio9o3+djdXWNX+yffy87ui59RKSAZoKLAe+NnbHuSQmZdkLjo9h9oPbNn96sJQs9w00dpBDQCGoFeQ4BqDdMS6RJizAiVgP5aTIlGgQoHgy2piHBjUCvvi6qFVo16rdkP+BNpgnDAN5G+QY2ARmAoIKBm6yQGB4IRVvejsNfBqEOhF376GTVBGHptrp9YI6AR0AhoBDQCe0RAE4Q9QqR30AhoBDQCGgGNwNBDQBOEodfm+ok1AhoBjYBGQCOwRwQ0QdgjRHoHjcCBjoAL24mhI9YAw/Ag6M2EaVgH+k3r+9MIaAQOcAQ0QTjAG0jfnkZgTwi0RqqwuvKfWFP1MrxWEHNHXoyxOSfAMn17OlR/rxHQCGgEdomAJgi6c2gEBjACjhPH5rrXsWDrw4i7ETiug6zgGBwz9iZkpYwZkmvYD+Dm1LeuETigENAE4YBqDn0zGoG9R8BxbTS0b8SCLQ+gpm0NLK5Z7wJRO4oJuZ/HISO+g6Ave+9PqPfUCGgENAJJCGiCoLuDRmCAItAWqcZH236LzQ3vwmNY23PnqSLwh33oyO9iYv4XtKthgLavvm2NQH8joAlCf7eAvr5GoAcIxO0wPql+DsvKH0fcCcMyPdvP4sJF3I4jPTACh4+6GgXpB+mgxR5grA/RCAx1BDRBGOo9QD//gEPAceOoaV6ND0vuR2PHFnitrsGILlwXiMQ7MDxjHo4aewNC/nwYMAbcs+ob1ghoBPoPAU0Q+g97fWWNQLcR4MI5LZFSfFTyO5Q2LRC3gmmYOz0PXQ2uAxw07OuYWvhVeK1Qt6+nD9AIaASGLgKaIAzdttdPPuAQcBGzw1hV8XcsK38CJsmBubt6B3Q12PBZ6aIiDMuYt4f9Bxwg+oY1AhqB/YiAJgj7EVx9ao1AbyLAYkhljR9i/taHEY7VwbIYd7B7t4Es1ezEkJcyFUeNvREZweF7PKY371mfSyOgERi4CGiCMHDbTt/5EEOgsX0r/rv5l6htXQ2P5dvrFf9c14Ht2JheeA5mFJ8Pnyd1iCGnH1cjoBHoCQKaIPQENX2MRqCPEYjGW7Fw62+wofYleCwvjF3EHezqtmwnDgNeHD76WozNPRGmsSProY8fRV9OI6ARGCAIaIIwQBpK3+bQRSDmhLGp5jUs2PoIDNPZZVDinhCK2RFkBSfguAk3I90/vNskY0/n199rBDQCgwsBTRAGV3vqpxlkCDCGoLplBd5YfxtidiM8exF3sCsIJB7BjmFk1lGYN+pKpPjzdDzCIOsv+nE0Ar2JgCYIvYmmPpdGoJcRYBGkDzY9iPW1/4bfE9jruINd3Ybj2IjYURw28gpMK/oqDL3qYy+3mD6dRmDwIKAJwuBpS/0kgxCBaLwNL6++BY3h5TAlYcHd/pSMQ2AdhF1vLhyH+/PVuZ/hoj3agpnF52HeqO/pCouDsM/oR9II9BYCmiD0FpL6PBqB/YCA7USxtPTPWFX5tJRTNlxDbD3dBS5i8n7nAYuspugCrpUgAZ28wjEceK00HDbqe+Jq6G6w4354RH1KjYBG4ABFQBOEA7Rh9G1pBBQCkXgLals/geNEAMleMNAaKcPqyqfRFq1OrOLYZXPhIB6PYWzuSRiTcxIMIRSJLcWXj4zgSFjmZ4/TqGsENAIaAYWAJgi6L2gEBgACrGWgNhr/urb1+GDzL9HYsVVqInyGIDiOLPs8a9jXMaP46/CYPiEICWdDgmTsbOOnu/VaDACs9C1qBDQCvYOAJgi9g6M+i0agzxAgWahpW40PNt2NpvC2XRKEmB3FjOLzcNDwC2DAh8rWONrj7i5rL5I8hDwGilK9sBIBD3rTCGgEhjACmiAM4cbXjz4wEegJQWiPevGHlQ1YUxeFZe3c+MdtF9Nz/Lh0RiZS/Ltb42Fg4qbvWiOgEegeApogdA8vvbdGoN8R6BFBiHnx8NIGrKwJw7sLghDlyo+5flw1OwupPk0Q+r2h9Q1oBPoZAU0Q+rkB9OU1At1FoKcE4ZElDVhZH4HXZHrkp6/KjIeY7WBmXgBXzcpCiiYI3W0Wvb9GYNAhoAnCoGtS/UCDHYF9JgiW+Zk4BE0QBnuv0c+nEeg+ApogdB8zfYRGYL8iYNs2YrFYoo6BZBUY8Hq9sKyE7N9fBIGDRTQa/dS97Fcg9Mk1AhqBfkVAE4R+hV9fXCPwaQRIDFavXi0vVSWR/06cOBEzZsyAx+PpF4JAsrJ161a89957mDp1KmbOnClEQW8aAY3A4EVAE4TB27b6yQYYAjTCW7ZswR//+EeMHDkSfr9fVISysjJ53X777cjJyelzghAOh1FaWopHH31USEEkEsFVV12FESNGDDCE9e1qBDQC3UFAE4TuoKX31QjsRwTi8TjefPNNvPvuu/jSl76EZ555RoxxKBRCMBjElVdeifT09D4lCLz+c889h2XLliEjIwNnnXUWHnzwQVx++eWiJOhNI6ARGLwIaIIweNtWP9kAQ6CtrQ2PPfaYxB9MmDABjz/+uBCE1NRUXH/99SLrMw6hL2MQampq8P3vf1+IAV0d06ZNw69//WtcdtllmDJlygBDWN+uRkAj0B0ENEHoDlp6X43AfkSgublZZPyioiKJOeCsffLkyZg/fz7q6upw7bXXIi8vr08JQm1tLa655hoUFBRgzZo1uOmmm/D0009rgrAf+4E+tUbgQEFAE4QDpSX0fQx5BFpbW4UgvP/++yLn07VgmiYuuOACPPDAAzj//PNx8skn9ylBoNuDRKWqqkoUjUsvvRTPP/+8JghDvrdqAIYCApogDIVW1s84IBCgSnDfffehsbER9fX1OPbYY/HWW2/hxhtvxO9//3shB2eeeWafEgQCx0BJ3g9jIC6++GK88MILmiAMiB6lb1IjsG8IaIKwb/jpozUCvYZAdXU17rnnHkyaNEkk/UWLFmH8+PHgj5SBgnfddZd815cxCOrhSF6uuOIKXHLJJXjxxReFIOggxV5ren0ijcABiYAmCAdks+ibGooIMDhxwYIFePLJJ1FcXCzxByUlJVi8eDEuuugiHHPMMZJm2B8EoaWlReIPmGZJNeG6666TVEy9aQQ0AoMXAU0QBm/b6icbgAiQJGzYsAGvvvoqmpqaJK3xhBNOkNm6KkzUHwSBA8XKlSvx0ksv4YgjjsDhhx+uCyUNwP6lb1kj0B0ENEHoDlp6X41AHyCgShqz5DLTGn0+nwQrqq0/CAKvzfti2iWJCis66k0joBEY3AhogjC421c/3SBEoL8IwiCEUj+SRkAjsBsENEHQ3UMjMMAQ0ARhgDWYvl2NwABFQBOEAdpw+raHLgKaIAzdttdPrhHoSwQ0QehLtPW1NAK9gMDeEoSoHcXM4vNw0PAL0B7z4pElDVhZH4HXMmF0uQ/WOojZDmbmBXDVrCyk+BJLS+tNI6ARGLoIaIIwdNteP/kAReDTBKEUHuuzyy67joOYHcUMTRAGaCvr29YI9D8CmiD0fxvoO9AIdAsBEoTqlpV4b9NdaOwogWXsJKPAcBFz4phdfB5mDf8W2uM+rSB0C2W9s0ZAI6AJgu4DGoEBhgAJQnO4AhtrXkZHvA4GmAKZ7DRwYcBA3IlhRNZhGJF1FFpjpiYIA6yd9e1qBPobAU0Q+rsF9PU1Aj1AwHZt2HaY1Qm6kAN1MheuC1imF5blR3PE2WuCcOWsLKTqGIQetIo+RCMwuBDQBGFwtad+Go2AEIOI7SDuuNvRaI85+MPKRqyoi+4xSPHbMzIRsHYoEqYBBD0WjK6RjRprjYBGYFAjoAnCoG5e/XBDDQFSgvLWGP6ztRVVbXbCqLvyP7Y2R9ESA0yTDojPbrbtIM1nYEy6F24nG+BxAQM4Y3w6xmT6dnrcUMNYP69GYKggoAnCUGlp/ZxDAgHbdfHCxhb8bW0zzC5Tfo8J+czYlRTguuDxtpMgFNxIJOK2i8nZfty0ae3sAAAgAElEQVQ4Lwcp3h0ln4cEoPohNQJDGAFNEIZw4+tHH3wI0MA/va4Z/1zXnHAL0D+QZOz39MQ7nBKde7pAzHGQ6jFw77EFyPDr+gh7wlB/rxEYLAhogjBYWlI/h0aA3gQXWFXXgf+3vAl1YRsei+6EngUPCFmQAkouLp2egWNGpMBKIhwacI2ARmBwI6AJwuBuX/10QxCBqO3ipc0t+Nf6ZjDh0UpaCXJv4UiQA6A5HMPxI1Pw7RlZCGn3wt7Cp/fTCAwKBDRBGBTNqB9CI7ADAaoIDZE4Hl3egI+rI/B5zM/EI+wJL54j7jgIGsCdx+SjIOWz1Rr3dA79vUZAIzCwEdAEYWC3n757jcBOEXBcF1ubY/j98kZsaY4JSejO5jouwjEbN8zNwcGFIWjPQnfQ0/tqBAYHApogDI521E+hEfgMArbj4oPydvxhZRPiDiQeYW82LtzUHLFx1vhUnDM5A36re+Rib66h99EIaAQOfAQ0QTjw20jfoUagxwjQ0D+5thlvl7YLQeia+tj1xFJkKR7H1Cw/rp2bg3RdUbHH2OsDNQIDHQFNEAZ6C+r71wjsBgEGG9a0x/D/ljdgVV0UPi71vJuSiFzy2WcAN8zNxdQc32731cBrBDQCgxsBTRAGd/vqp9MIgPEIy2rCQhKao4B3F64Gx2V5ZuDrk9PxuVGp8O2lS0JDrBHQCAxOBDRBGJztqp9KI/ApBLg2w0ubW/HshhY4riHllpM3x2G9AwdHDQvhwmkZerEm3X80AhoBaIKgO4FGYAggQFdDS9TG46ua8G5ZO/wea3tmAuMOwnEbRSEPrp6dnVhzYe/iGYcAcvoRNQJDFwFNEIZu2+snH2IIMDvhk/oofrusHtUdNnweS9Zc4CJNQQ/wtcmZOHpYUOIU9KYR0AhoBDRB0H1AIzCEEOAS0EuqO/CbpQ2IdRZhpnpw2phUnDspA8Fu1ksYQtDpR9UIDDkENEEYck2uH3ioIxC2Hfx1dSNe2twm6zWOyfDgu7OyMSbDN9Sh0c+vEdAIJCGgCYLuDhqBIYYA3QptUQcra8OIuQ4mZ/mRE/TssUbCEINJP65GYMgjoAnCkO8CGoChioDduSITiyfpmMSh2gv0c2sEdo2AJgi6d2gENAIaAY2ARkAj8BkENEHQnUIjoBHQCGgENAIaAU0QdB/QCGgENAIaAY3AQEGAdUpY5ZTFzOJxVjt1wM9YMt3jMeVlMSOJrsJe9hVqBWE/9RLmnO+u5v1+uqw+rUZgOwLsg2rTfVF3DI3AwEKAxrm9I4rKumaUVLegpjWKunAMYYe/awMhvw8FhRnIyAgh3TKQZRnIS/EhJeiFaZq9ElekCUIv9RkOxgQzGo2itbUVsVgMXq8XPp8PHo9HXpZlJRpOmF4vU71eeg59moGPgOqHbW1tiEQi0vdUP2QfVH1R98OB39b6CQYfAvz9NreGsWZjBd5buhULS2sRy0jFiFH5mDAsG8NzUpDh98FjmoBpojpio6QpgpqyOhSEIzh8XB4mjMhBVpofFvfZh00ThH0Aj4cSQA7CjY2N2LBhA5YtW4b169cLUfD7/UhNTUVGRgZycnJQWFiIgoICZGZmIj09HaFQaDt5UIO1Jg772CBD9HD2Q5LSlpYWbNmyBUuXLsXatWvlb9UP09LSpB+yD/LF9+yb7Icks5rADtHOox+73xAQlS/hL5AZfyQWx9oN5Xjq5UV4ffE2eMeMwrzTZ2L6hEKMTQkg3wR8hgHRBwwe6iLOtGXXxYq6Vrzz/io4JZWYMjwfx82agOmjchAKWDCMnhEFTRB60DXUDI2kgIPxypUrsWrVKpSXl8tMbcKECcjKyhIloaGhAU1NTWhvbxfSwIE4JSVFvs/Pz0deXt6niAMJRSAQ2D5g61leDxpoiByiSAH7WWlpqfTBFStWSJ/kwDFmzBjpWySw7Ifsr0pVoJLFvsZ+yD6oXkVFRfIZyYQisMnEYYhAqx9TI9AnCDh2FE7jNpihHLTEfXjtveV49G9vYHlJB0YcPA9HnDEHY8fnYFQqUOglOfBInAHNPR0NDkulu0DUddFiAytKKlGzejUCrfUIhlIxfdhIzC3wInfUCFiBVHFNdGfTBGEv0RKmFo+jubkZJSUlWLJkiczSqqqqZDAdO3YsJk6cKDMzztiUEkCAbduWYzs6OuR4DtR1dXXy4sDNAZwbj8vNzcWwYcMwYsQIjBw5UkgEB2oO5pSGNWHYywYbpLuxH7I/kXCSkFKx+vjjj7F161YhlaNHj8bkyZNRXFwsRFT1Q+UCo8oQDodFWWA/rK+vl37If9k/eW6S3OzsbOmHw4cPx6hRo6Rfs5/znLyOcpUNUpj1Y2kE9jsC8luu3wx78V/RNvpz+NuHTXjoDy+gPmwif+xcjDlkKsYfUohipxIHta1GWkExjClHwjKsBEEwXDAcIea66HBdtMWBLU1hLF9ZBs+29ThtciXCsTia3ivFSfOmY8zxp8BKzQa6oSZogrCbbqAGY87QysrKRCn46KOPUFFRIQMkB2OSAg6iHDjV/gSV33cNEuNgzc+58T0HY5IDpTTU1NSgtrZWBmx+xvOoWd7UqVPlehyoSRp4PQ7k2iWx33/H/X4BZdw5+2cfoetg8eLF2LRpk7gVSAbYD0lSacRV32L/6to/FMFM7oc8P/shSQcJK6/BF/shCS3JLfshSQNViXHjxoFKA1UHXo/EliqD3jQCRCBRf8tNzHAd99PjIOg2ZxxWAquhPH650Q6EP3wSsdf/gOXueFz/GrChyUHe2AlIzZ+AvFHDcLT5MWZufAWhFBcdF/4QvilHwuMYsAigAcRdF1HHQUPMQUvUwaaaVpRua0Ht2iqMN1fj6yeUoKrSRfmLG3HS9AkY/bXL4MkavtdKgiYIO/lNKxcCicDGjRvx5ptv4pNPPpEZPN0HkyZNktkVZ/bs4Nxfbbvr8ByIFWlI3i85/oDf0xXB2RxdEyQMJCeUkDnr40BMg3DIIYfIi6SBLgm9DT4E2BdIAKqrq4UMvPfee+JCYH+jusR+yNk9jbQipDvrX12RUft0zbTpqk6RGCj3BBUGKhb8TfA9j6XaReJ66KGHyr0wnmEoD/iDrwd274kcUbdcNLdG0N4RQ0dHDPXNHYhE45Ah0gC8HhOZaQGkpfhkLMtI8yMU8MA0h17gtt1Sj5Y/3oK21/+NRrh4z8hEJLcA+dnZcNKK0FZaj7GbPkQoxcaaM74H79kXI931IGAYsLjiqgMhBzXhGLY2dKAjaqO2rgPVpa0I1VVjdm4zhvs+xtGzG7F0ox8V/28hTr34bIz4wqUwPKG9alxNEDphUqSAgx9JAZUCSrccoDlrnzlzpgzGDC5UM7RkhaAnbDj5eEUekqVbNcvjuZUszAGawZAkDSQS5513Hk477TSRffU28BFQpIDkkLEEVArYF+kOoHJEg0ylgLN5RQqoFCT3v+4a6Z31Q3UOXkP1yeSYByoMmzdvlheJK+/rqquuEtKgt6GDAOPr4raNxuYwtlU2Y0tpI9ZvqUdtfQciMRsd0ZiQBriJGa/huvD7PAgGmFnjwdjhGRg1LAPDC9NRkJuK1JAXPi+D6rrnKx+IiEeryrHttmsR3TwfaRP8cGHAibuSmeB6fKje2Ao7GkXDmHFYcOFDKJowCSEYCFoG/KYB2wHCto3ylgjK69vR3BxFa2MMHW0OqjdUYYZ/Lb55TA0mppfC43fx5rvtwJotOO3G2xDMPRowPHuEbcgTBA6ulG5VBgLVAg7OHOjmzZsncirlVXZYJfX2VRxAV8VB/WjUvy+88ILM6O6++26JSNfbwEWA/ZAkkLEEjCt49913RTWiK4kz9ClTpkjwII01f7R9WeMgmbwq91lyjA2zdh5++GE88sgj8pvR29BAwLYd1Dd1YOmaaixcXobahnYZJ/OzQxhRmI7MjKAoBtyiMRv1jR0oKW9GfVO7zHapMtAF4bFMpIR8KMpPwazJhZg4Kgt5OSp+JlHLg/3e60m4aBPqugHTMgb0AmPt5duw+a6rkRJdCdd2EWmJw2FmAoCYDXR0OAgETVQZmVh89g+RetTx8MOE18sgdr9EJ0YdFx023Qtx1DVG0R62ETU8qN7Sgq2vv4Nrjl6Ccz9vIbalAS1ODC/+ZSNO/dYJGDHzOhiezD0SsSFHEJSRp4RfWVkpgYacpdGFQJcBXQizZs0S/yp9/CrIMPkn35fsNlkO5r2onHamSr7zzjt49dVX8atf/UrcDnobWAiwPUkKOBtnfAv7If9l/6LriP2Qwar08av4lmS3QF/2QyLblbCyL5LAkFDfeOONuOWWW3DiiScOrEbQd9ttBGjUW9ujWPFJNRavqkBbRwxjh2di4pgcFOWlIhRk/RdLcvCVEEClIUZFgYV+InGUVbdgw9YGLFldia1lTYjGHESitmT85WQGMaIonRNpSc/jYmJer4mg3yOuiVDQg1DAi6L8VOTnpiAt5ENaqh9+ryWkQf47wAUI13UQ2bQQDX++Ae2btiEq5MCUrATXNOBwQmoCnoCF+vIwosF8hObMhuWxsMmfg83HnoPUsdMQjcXEzRAhoYg5aA27aGmKo7EmjG2L1mBi05u457Ja5KcAbesaUNZmY/iMdGQVXw0zddYe0x+HDEFQWQiUakkG/vvf/2LhwoXiY+XsjLM0BhtSqk8mBX2lFuzsV6oGZP5L5hwMBmVAVsVuOMt85plnhCDQoOjtwEdAGXqqVgw2/OCDD7BgwQIxslSrGFfCQEC2tdpXuQ/6mhAko6nuhf2QhIVkmgSafZEE54c//CGuu+46nH766Qd+I+g77DECJAfl1S14Z8FWVNe146Cp+ZgxMV/iCugXZyxB1y3hvrVRXd+O8qoWbC5pRGl1C0qrWtHSHkNLe1RS9TramekVQZx/UCUwmNnlQUZGClJT/YjbDpyYLW5fkgkWCvKZQF52CONHZWL8qGyMG5klxIGuCvbNA5UoONE2tL54Jxqe+xva6mNwYxBSYLPgHjH0mDD8JsyAicbqMAJxL4qLU+D3mFiZNRpPz7saoenzEI/EYBNfG4jGgXAUaNhSg5p1m+CE0mGvW4R7T16K44+y0VbuwhuPwTfKhZF6BTzZx8Iwdh9cPOgJQnLxmEWLFoliwAGNPtxp06YJOeBsnBvB4KurlN/jX1MPD1RBjxyUOUtjECKJAd+rgZpEZv78+fjrX/+Ke++9V6LY9XbgIsCAP5UNw9gWqgWMI6H7igF+7IuMMaABprtB9YEDhaDyPlTBJf7Ljc/E+yXppoJw6aWX4uyzz96jbHngtpK+s90hQDfBpm0NWLSiHKlBL+bOGIbCPI5LCSPTWe9H8hgYd9AejqGmvh2btzVi1YYabC5tQl1zBO2ROHx+L7xeD4Ihn7ghvD4PTNdAS2sHGhsZoN0Ox+bEyIA/4EVefjqKijKRmhGEwTUJSBZsBx3tUbS0hFHf0IZYOAq/ZaAoLwXTJ+Ri2oQ8jCzOQHqaH17PgUMWZAyv24TG330PDctWIdJiwyU5cAzEmfVB5YQEIWDCF/LADaYh8+BjEZg0Gss3teJf5YWoGns4skcUyNoMMSoHdc2IRGzErQBaahrQuG4NHBhoLyvDTYctxTeObYU3OwTXMWFYjTAzLoe34GQY1u5j1wYlQVCZABy4qBJQhl+3bp0Y2cMOOwyzZ88WgqBUheTI7/6epSnVgPfBWRrJC2dqVDqSg9HIjmlk/vSnP+Gee+6RIDG9HVgIqP7FID7WzXj55ZfFhUCip7JQSApU0GtyNkxygGp/PJVyxfFfElRVcVEF8yoizftkKiQJwvnnny+v/r73/sBrsF+Ts9RV62rw9qItOHTmcMyeUvCZYEJJayQx6Ihi3ZZ6LFxWhuXralHF2ATTQjDkh+VlLAFLzyeUBr/PEqnA52EJcAvMliVxqKttRVl5I1paIuJioBIQSvFjzNg8DB+WLa4E7msanYsVWSbC4RgaGtpQWtqAkq11gOtg0sgsHH/EKMydUSyuCy5s1J9jvBApJ47oqtdQ97vr0bi1GU7MFfWA5MCGAZfPxXiLoAV/ZgBpxbmIDT8Ef6sYiVcaiuAUj0bh+OHweD1CEOy4jfoNW9FSUQkrJx9uIITm9WsRqypDhgf4yuiluGxePdKH++EtykW0ehtsfBHe4WcgUDQSxm7KMQ8agqBm1sxCYEoYXQhUC2hYmX3AGRolXEq3KshLDXL93mE60x+VK4HEQOWXkxRQBVHBYWogIkGg0Xn00Ufxy1/+EjNmzBjsY9SAeT62GV0GzIYhQSWRI0lgXAvbiYoB2zfZCKuH68++mOzS4n2QmPI+qXKo7IpkkqrulQThJz/5Cc466yxceOGFmiAMmJ66dzfK2frGrfVYuqYK0ybkYuLoXIkxSN4YX1Db2I61G+uwcHk5PtnSgOb2GEyvBz5JYzThlVoZCVVAVAdmNPi9YvyZuaCUiGDQC8tMGMzqqmaUbmtAJByXwkA8R1FxBkaOykVmZlAi+gwzkfbHYEevZYLplgyArKxqFqLQ2NiGvAw/jpwzHAfPKJJ4iZRQ/2V9ObE2dLz5K9Q9/QSaS9slMJEZCRJ/QOLkMeAJeuDP8COQFUJ6XhDvxybgJ1VfQer4EUjNSpV6iFRswjW1CLc0I9YeRmtlhZzHNUxEm5rgaWvCRaeGMDu4AofmNyJodiB1znC0rduGDW8FUHDoN1B8+tkwPbvGYlAQBEqdLOpCXy4j+1evXi3xBCeffDLGjx8vqYk0snyp7UCZ5Si3Bg1+8kyNz8QAtmTDoQZkRSSYE//b3/4Wv/jFLySgTW/9iwDbkqoVsxCeffZZcQGxoNCxxx6Lgw46SLIQaGCZnqqCDQ+EfpgcfMj3kp+ewVXiMmRgZwGlrsQgmcjQdUKC8IUvfAEXX3yxLprUv92wV6/O/lBW2YzX3t+Mw2cPw8SxuTsyB7gMMVy0t0clk+Gld9Zj3dZGmQVztk9yILN/Uybz8Er6YiIjwedlip2DgD9RHZYEgcoBLX4o6JMAxYCkQ/rE3cDqgDT4icWHXIRCfkyeUoTCgnRxZ0iZhU4CEQyYCPgNqa/A65EgLF/JmjbVyMkI4H9Om4rD54xAKMCKtzS0nYGNO4mf6FUwO0/G+IP2N36J6r8+iZaqDrgeU0gCyyMaPhNW0ELENRHnIs6pIWBMATanTsQv27+FQDARmyEEwTQQqatHy8b1iIfD4vJzYjG4diLLyW1uwe3fiuDcWRUw7SgiJQ1In52LpjUVeOyeGpx+0ZWYfP4lMDy+XT7mgCYIBISzNBaQ4WDMmQxzxOlC4MDMmTgHtuSKcv05Q1OtoFwaShWgT5ckhgSB90cDwntWRKDrPatBnASBqWV33HGHSNZ66x8E2FZMT2SMyxtvvCFklarV9OnTpT/StaWIoCIGB1o/JHJUDKgWqHgXEmoZdDrjcnYVD0GCcOutt+Jzn/scLrvsMk0Q+qcb9vpV2VebWiP4cHGpZAswGJHZBCrlm7P0TzbV4Z2F27D0k2q0hGPw+r0ifZMYcMZPF4AKXCRB4Ma/fV4qB47UROA+/I7uBtZGSEvxiprAybRhmbAsQzIf1m+oxYaNtYhFY2IlvSEvRozOxcwJ6chMdWHChYfKg52YXZsmCYmVUClgorUtLG6LivIGZKb5cfD0QsyaUoCMNN6LJfuAZYz53uhcLnk/RDk60Xa0PP8LVP3tSbS1huGy6BHJid+A6TNRVhFGWUkHzCiwPHsq3h9/ErzpKWgYdih8fgsGMzU6WYITiaOjYhuiTY2wWSo9FkkQBKZCt7Th5vMa8O3j62GEOxBvjyFQEMSmJdW488EYfnTn5Zh4/AUwzEFIENh5qRTceeedIt8ec8wxmDt3rgxwau2Dnc2+e/1X1I0T7kzCJTGgjMuNigEH5OQgyZ0ZEkUc+PwPPPCAYMBn11vfI8C2oEuLBpI1KU444QQcfvjhEjui+uGBEuOSTFDVPSmyqVYdZfAriQFJanLA7u6UDhKEn/70p6KUfPe739UEoe+74X65Iisgzl9aJrPVw2YN3+5WYCZDfVMYr7+/Ca+8twmNrTH4g154fAnDKiSYlRFN1ikwxV3Awss0/hzP6AogQaCC4Pd6hBykpPgkhXFHqqJaMoDG0BQ/ucd0UFVVi/krKlHRQgbgwnRdzJsQwsHTh8FBCFW17di2rUFcCEVF2Z1jKa9tyfl5D9XVzVj0UQkqKhtw1MHDcfYpkzCsIAAYZBZ8GbBML0yLpex7v2iT096Iul9fhqrX5yMKBiiaMLwGrBQTrR0O1qxogh1xkBnw4INxx+Jf4y6GZTriqpG0T6ZBSquI/MGoBcTb2tCxdT1i7S0J9cB2YLS14eZzq3Hp8VHYdfUwU0x4/Q7eeKMdL65Nw823X4CCkedyajD4FAQOYozgZwDiN77xDfHvclMznuQn7jrz6Y/Zm4p74LU5CO9spra3s0tFENasWYP7778fP//5z3WBmv0yRO75pOyHf/zjH6Uffuc735GCVSo4URnYXRGE/uiHKu6BT0ZXAtUCElRV80OpBsm/md3dJ8/HlE32QRKjK6+8UoIw9TawERDiu60Ryz+pwrFzRyEzPSCGiemKK9ZV4+V3N2Ll+jrEXMBHN0FnqWTVV4RQ0p0gZYFpwqhQeWWRIQYKelizwACyMoJSbpnpjKpuQkJxSBhCy7IR8IYR8EVhmQw48GDdNhvzl9SisaZFCAKvWVyUidycELZsrkFmVgomTiyU7AVxaVgmohEqYQy49SIt1Yd4zMGGDdVYvaYSGSkenH7cOBxx8HCkBJkpxn1joOOCBMFjUdntPaJgt9Sh8ufno2b+SoQtFxbdCn4LVpqF+roIyje0IeAxkJFiwZ42Br/2fw3LjLFSJ4HPSngCRgfSzTDC8KM57ofd1oxw6Xo4kTBcBjvaDoLhVtx+7jacf7wf0ap6+HIdoDWKJasjsPNSMe/EH8JfeCojIgcfQWDw4e9+9zvJTvja1762fYW5RO7rjqqHHPDUAN2VNOzu7974eSfP0ng+DpwkBhyQSRI4S0v2R+9Kwt3ZvXBfEgTWQLj99ttlcNZb3yPAfsgYEBbduuiii6SvqToVqv2TFa1kf3+yUpSsdvX2UyT3Q0VCFTFQQbvsh8nq1d7GRvB8jFEgQaCKdc0112iC0NsN2A/na2uP4cMl2zBmeCZGD8+UuIHW9ogoCv96dS3KatoQSA0mah+IQzwRLMgZLv9IRMbzt6AUBCAQ8EmpZX6WmuJDVkYA6WlBeFgRkS+R+BMG0OvtQMDfCr+vDbA96IikoS0aRCSaSIvs6Ahj2bJSlJU3yf62kwh+nDwpD9OmDYfPy3RhkocEIWFKJJ8pFrfl2gG/FylBL6qqW/HB/M1obGjByUePxenHjUd+DtfY4TlZJjoiRMEy/fCIosDn2rcqTHZbE6p+dxMqXngebZEYAukeiTvwpFpobYqiuaxD0jVTUyzkTUlDZSAHT7XNxYLoBBimiwmechybsgGjC+NoyhuNlyvH4KWPvWivKoMTbku4F+I25hTV4pZTy3H4dI/US4BpI94YRbw1CjNUiIyTfwNPzoTdPs+AjUFgJcSHHnpIFpD5yle+IoOymlmzM6uKg8mzHzVQK5Vhfw3WXV0JJAOMh1ArMKrMBBUb0R1ikGxIWGiHKY4kCEceeWQ/DCP6kiQIt912mxhJrouhYkfYH1U/ZF9UBlfFIrAP8pXcV4hmb5KGrsSA90RCQJKqFvjaU7zLnlqY1+BvkXEwjP35/ve/rwnCnkA7wL9nSiPXU6hr6MDB04vEIDe2RPD8G+vwn/c3I2q78AW8Eh9AX3/CXiZ89olFl0gWEn8LQbASDMLv98E0XGSkB5GfnSKzeX7F2Tn3Mc0ovL4G+DxN4pO37RSEw3TVMTIvoSiQDIjL3jLR3hbBilXl2LS5VtQB/nZyslMxbVoR8vNTxb0hWROyii5kaWQqBymhxIyZgZIkJyQOS5eXYs3aChw0KR/nnDYVY0ZkJoiFy9o4jAmLyvktMwDDTMRY9HRz7TiaPngD635yHZpba4Ug8OVJscStF6sJIwAXwZCJaIoX3kw/rJQA6pyQKDE5Rhv8oME30JqTi7Xp43Dnh9OwflsYdkMZnLiNDLsDN59dhjPHNyMtzyNRopGmGOIdcYQrY0ib/SVknvQjmMGs3T7GgCUI9HuyQBD//fKXv7ydIKinVWRBSfo00skDtZKBqTCoQMbkAkXJxGJng/bOUO1KDNSArFIWk3PI1fF7O1Prej3eEytCch0G+n+PPvronvZXfdw+IMC4EdYAYP8iUVWuJHVKFYjKvsB9kvuh6i9K1idhUASDx6vZfjJx6Pp+d/0wmUyqIkckquxzSjFI3qcnLg9FEKiiMIXz+uuv1wRhH/rTgXAoV2NcvLJcqhIOK0xHRXUrnn3tE7yzsBQuMxCCnu1R9LRYsg4TsxWkxHGCICTGtYRawJgDbgwWpGpQmJcmWQs0+qIeGGF4/dXwemoBeBGN5SASzQPcgNRL8FKG53lZH4DXSHgv5NyRSBzzF23FijWVQmSY4pifm4o5s0cIWSChYLQ/74Dn4N8J14UhlRhhuMI47LiLNWsqsWhxCUYVp+CbZ87EtPF5iVUTqSE4Dmy7I6EQegIwkFiBskeb6yJcVoJll3wLNZuXw5/uQWquF740C166GiIx+KI2fH4D9R0OttbYyC0OIDvbC8tjIB5z0dFu45PGAF5um4C1vnEoNQvR0tiEeF0pnJiDqZn1eOjCakwJRBAs9MHuiKO9JgI34qCj1ouC8+9A6ozThezsbhuwBIEZC8z/5wMwvUotYqMMrnIzJLsXxH/TqS6ogZqkQQ2MalanBuzkinY7G0iTB9RkcsBzJisGic6VyKZQA3xPBuPkhuTxXCSHAzMJAoM09db3CHD2zFkzC2+dccYZn8qYSb6b5H7IPkjCoEiDIq6qDyuFSREG1Qq9UmoAACAASURBVA+7EoadEVfVD9nneH5FDKgY8PzqnMl1NfalLyqCwN8iq5LecMMNemXRvu+GvXZFGlguqFRd14Kp4/NRXdeGf7y0BgtXVMDyemBJ1gGpgCvV/7i/pB5+ihgoJYEz7kSNAokTKEhDTlYIXo9XSINpNcPjK4dp1sIFU9GL4NqZgOEH+QMXZ+LxJBH8V8hHp7EXlUKyJCzUNXbgtXc3oKK8MUFODBN5uSk46KDhyM9LT8QSiDpHdwiD+jqVjU5iw4NIRKiGbNpShw/nb0ZOhh8XnT0TMyblSxXGBGF3EKfLwYnDsvwwDa/cT0+2eGszVv/oBqx7+mlY6RbSsj0I5foQTPPA4zfg47o7kkRqYFNJGFsq4jACXqms2AofVsYL8J4zHdt8o2RxJsZN2O31cJsb4eUqv3M24SentSDNsOFN9yDSGEW4Pgq7yUZHfBzGXPsIgiMmJXImd7MNWILQ0NAgxpEDH+sdcPBTZWp3NctKllyVrC8FPDpndoo0KHKhctYVcUgeqLteg+dWZZEp4SaXo+XxauupYrCzNmSKJzMYKHEzglxvfY8AM2iuvvpqjBw5UpbdVuWHlRrVlUR2JQ2qHyYrDOyHykXB8/Ccqo5HsoFPJq3qvVLOVMoifx88l3Kv7SllsbsIKoJAVxcXOuOaDHrp8e6ieODsz3LKqzfUICs9gFjcwV+eXYHl62slfZFEgOsEJBMEFXOTsDOJrAWR9UkAaIhp5D0W8rKCKMrPgId92wjD8m6D4d0KuCHY8dFwnHwYCMBjOUIMfHRNsGCQkGlDUh4TLgZmNCSMfOKKhqxouGhFBVavqUJ9bcv2mX1xcQbmHDQC6VJQKRGPoH6PCcKRCKKUqIJO8sF/y8oa8e4HG5AasHDpObMxa2rhdhWE/v24Q5JgJ0iCuWOC2Z1WdLlM8/P/wvyrb0BrtBmhDA+y8n1Iz/PBEzThC5jwiislEd8xf4uBJz/JQo2RjQZPNmp8BeiwgnDsMBBthhtpgxVrR0pKPoYFW3H7Ketx3HQH8TbW0nHRUR+F0eHgk402bGsmjv3lrxEYNmLwEgRWTKTfk2mCJ5100vaFjKqqqkQ+VYFiijgog941cDC5UcXHZLGiF0uBMv0mIQnzM25qkOX5k1UG5UpQMQbKfdHVSOzLTK1r5+M1Nm/eLCTp5ptvFoLQm+fvTmcfyvuyYiIj92kcWQeA/YYuperqaumH/FsZ++QZf7KikPyeWKo+m+yS4HtFLpMJQ3KtAh6r1u1grAGvp5SrXbkr9rXteF66Weju4yJTP/rRj/ZIEJLvZV+vr4/vPQTYLg3NYWwpbZTll5/9zyeYv6wcHqYwyhiYqG0gEygVL8OF5DrHx8QSzJ2uBVnJMUEU8nJTUZybJamGpm8DDN9GwA7BiY8BXBIDLvqVUAq8fHlN+Pg3ayGIgpAIhEyUC0gENEpQJO/BNFDbGMb85RVSdristB71tW2JYEcTGDYsA3NmjURqqi8RLyH3rVwiifIDCXLDKgoJVwazMsormvHam2uQk+bHFecfjKkTcuU+pJw01+yxI5KmaUmGQw/KNzO4t7QEi667Fp+89hZcn4PMDC+KR4fgS/PAFzThDTDbw4DlNRBxTCysDmF+bSbeqcpHaXs+Yu0VcFs3wXAi8JlRzBlp44QJaRiZbuNzR3oQ8AHhymZ5pmhjDHUtPjz+3wDOPfdzOPTaW2CF0vfYeQasglBbWyvBeUxvZO45jTMrvzEXnQFjyjirATeZMOxq5tV1FsYfjFIVOCPjSw3Uym3AATo5IDLZj6xmh/vLcG/YsEHUA0aQH3/88Zog7LG79/4OLIpEgkD/+3HHHbd9/QwGzzI+JtkYKldCciwM7yh5n64EVrnFpPqczyfKVLLSxeNV3QLuQ2LAvt7broTdIcff23333Scriv74xz/eKUFQSgNJLVUXPkNBQQEKCwt1zELvd8senZGZAOXVzbK40qIVlZKx4HLCJGWVE3N2uuy5bkBi9p3ou2oCJUaZ7gTX2U4aGJA4algOAoEmOP6VgNEGRMfDcLgGQJCLFiYqIHos+Lxck4GKLhUEK7GIk8QosDJiYulopvCxnzMbgkGHLK1cXteONxdtk6qMdsyRVEcu+KRiFSZOyMdBM4aJkrGDIHQSDGEHkoKR+B0CQo54P1tK6vDa62tRkBvAFecdginjchM1CBh34dqwnbC4OEyDlR8TcRbd2exoBNue+z98+OObUVtZCcMLDB+ZgtwiP3whC96AAQ9jErwGWA2ZxKg1amJBlRdLq9JR09QKO16HjAAwOtfF4aNMTMgw4Q15EMgPor2eSgczGhzEa+P4R0kO8kaGcP4N1yJl3BmAuedy0wOWIHCGRt87Sypz9qwIAj9XJZXZ4GoGlRz8xUFXKQTJOdvKf6sMeteZnTpOkQUO1nzxHMkpi4lO2Fntqjs9Zi/3VTIy0xx/8IMfyOyNbpb9RUT28raG5G5cGfR73/se5syZI3Egyf2QGQ5qFq+yFxSxlEGusyZGsjrQtQ8qApFMapXSpfqfIq7sh+znvG5Xgry/GkcZ/t0RBO5DsvTUU09JOfTi4mK5RyoP5557rqRHbjcy++tG9Xn3iACXUF66ugKvf7gFyz+plZLJsmgQ+yqn7zSgUl6ZWoEqZESDzXUVOAlPKAvMwaepTQ0GMW50BtJz18P1boEZHw2PMwGWkQ7aavFGdNZFkMWaLIhrgcSAigLJQnNLGE89vxIjR2SiuCAd82YUIRjwoCMcw7tLyhJVGGnMy5thekypxtjRFsGmDTWyj4o3mDq1ENOmFCUuKMGKlA4SkgL/kVgCZjnEHQmgZK0EZmKsWVOBV15bgzlTC3D1RXNRkJOSlEbPoOKoFFSyLAZudjMewXURqavF0jtux+I/PYE2O4JA0MKY0SnIzvXC8pvwBCyJSeAiV4wnpKJCpYNkLhJnhoUNv1SmTDwH28sbNODEXdg+E2aaD7HKDnT4TFRlZeDg449B1qE/gOkjFnu+3wFLEOhK4OyZpWyPOOIISd2iu4EEITmSXBnN5AG6a9Cg8v92lYIVQVAxCWqwVufkwEwFg0aBs6jktR72p7FOJgiMGidBOPXUUzVB2OMQ2Ps7sP7B5ZdfjqOOOkr6IfuC6ofsDxxclUKgjH9yqqN6r8hnskuia39LJgtdlQkWaGL1RgZN0vAmuzN6/6l3nDHZxcDy0jfddNNnFASqGSxB/corr+CUU04RBYFKB7ErKSnBJZdcIkR/f/5m9icGg+XcTTTGL63Bf97bzJB/eHxeMUaiYnW6DrimAoMTkydPidLJNM5emX2HQh6kBQPIzzORlV8PjxWBxy2C4eaLTJ9IbXQRCniREfIiGrfhuIYUB4raTsKNIC4CA3bcwYcfb8OqTbWIxlxc/rXZSAn40BGJ4f/e3ohVG+uRnuoX9wVfJAtUFRob2rB5c60cz3gDVms8dO5oDCvOANM4VVEmCa7sdDuwHUkQwpEYCrIZR+ZB3HGwZFkpPvhgEz535GhccNZMZDOmQVaudBB3I2JnPaIifHoBq73pF4xlaFi+DAtuvhVr3nkP4XgU6SkejBgWRDbjEehm8LMtWGI5oSKYrCBJBUeUDwaLArEOV1woXFaBaoM33YKvKASpuRiPwcN2GXMoQkdeDzNrcmLhh73YBixBoCuBCgJXxps3b972inCc0SXPnpIJQrKhV4NtssKgUh45o6MvlwRgV+RAGWku10vXBqvJ8fi+GOTUtVkHgQSBqY4MkOuLa+9FnxpSu5SVlQlBOPHEE3HooYd+qh+qWBgFSFdXghpkFUlIro/B79j/aEhV0F9yv04+J9/n5uZKFUeSA5KE/algJTewIgis6Dls2DBZtKlrkCJx+Pvf/y73xHuj8kUSxayP559/XlwzTNPVFRj776fDokKLVpbjN08sRktbFH4WNZL6BZ3Wk9K644oBjcRcBP0WCvJTZAllVlnkwkhcV0GywmAhlFaHlMxGWHYBTDsHhsG0wEQcgeMABdlBFGQG4GfanpModNTSFkNbJJ5QEDrjDWjwG5vasXhFOTqiDvJzUjB7SiFCQQulVa1YuLIKyzfVo6kt2ln8yCMFkEYPS0dNRTMWLC6B12eBZaNTQn4cfeR4ITESQ6EyIzprJST0BBdx1nnwWsjJ5Fo+jhCAV15djTVrK3HVRXNx6tHjYHlMcXc4bhyuqAgszcw1H/Y8K+/aylxgqeajhXj3hz/B+o8WyRoVIb+J4YVBFBQHYPkh6Y8kCokltbnWQqcCw6qJXKmK95xiIkQXQ9CCle6By3UzIlEg5kfqwScg/bjvwpM9freVEz9zb46D3/zmN+I6ZIYS492kS9x9990ufdu33HKLVEc70CRA+nhJELggzsEHH/wZgrA7Y5k8o0sGRA3Uyqer9uNArQIXkwve8H1/EgTWQbjuuus0Qei/cRXbtm3DFVdcgc9//vOyYFaygqCCFHdFENTnioQqhUFmJ47zKbdVsktMKV2K5PK4/iIIvAeqZ1wTZFcEgb+nF198EY899pgQHuLELKQvfelLeOaZZ6SOCcnVgTbG9GO36tNLM1VxW3kTHv7LYqxYV4PMjESAq7gM6OvnfNMyZJXFnOwQCnNTkZXByoIJV4CQURpGx4DpdeBJq0Ao6MBnj4Dppoox5WxXYgIMU4hBTjozABJKAefdNP4NrVFJn5SgRKZHklBIjQIb7y8qQVNLBDlZQcydUSz3yEtSIVi7tR5bKprR3BZHfUsE4aiD2ZNyUZgdwstvbcCSVRXgktUkQUWF6Ths3piEKpJUU0FWnOxEnc/isApjJyniGg4smPSvZ5YIobnxO0dgynjGI5gi8bPaoiiAErDYfYIgv/doFLVLPsZH9z+ADW+9jVh7q2QxZKR7UTwsiNQsC35RE0x4fIkATAkCJZHii2ke0hYJxwHjJKjMGP5C5H3xIqQdegY8aQU7/Dp72cMGrILAgflnP/uZVG/jUsfJA7NK5dpLDBK8UYW4Jh2kYhjU0sv0+arocJVHToLA2RAVhORStd25dk/2ZUdkmWkqCHfdddeQUhCSZ+I9wa43j+EqjiQIp59+uvRF9g9K/clZDN25nnKPKdeE6psq5Zakg/2QdTaSiQXrMNDd1dcKAu+PfZ9VTRlbsDMFQakMq1atEsWAv10Gdr722mtCFDgzofqht75HgEaxrT2Kp15YjT8/uwKZmUEEU/wyS7VdphxaGD4sE6NHZEqJYkrzMvvmeKkKD9F9H2VaYgf8eeUw3BT47FGwTA8cCeZLzMq9polRBanISGVmmAEfSYDXQkt7DPUtUYk58EssArPJIEQh8d6EHYtLxUMqFlKgSJVwNIHWtjhWbKoDUzS5pYZ8GD+c9Q9MrNnSgEf/thg1de3w0+ICUmlx0oQCxGxGWewo8NRJhRKyPRc8okLACpBeL4YVpmFrSQOee2EZZkzMw/WXzENedkpCcYjH4BhReE2Snj0H/u2qlRlQ2F5eitW//y2WP/YkOprqJaWT61qlpXuRV+hHZo5XlrI2LAZ20p3AehLCzURVcAwXEdODj8v8aKu2cMz538Cki78DT2raHlMad3ZfA5Yg0HdJgsDZyEEHHSQEgS9mNyQXJOJDq4G0q4thTypDMmCURtlpODCrQTtZQWAQVl8TBBZKooLAVEcaqJ6y174flnp2Rc5U3377bWljBgTS593fz7xlyxYhCJwNM5Oha7BscnQz7zW5QNHOUOhKVJWqoM7D4D72764EgQaWKkJyDEJfYaMIAjMSqDjurA5CY2MjHn/8cSxduhRf//rX5V9mNFx88cWCm1YPevab2NejKKF/tLIC9/x+Pipq2pCbm4JQqg/ZGUEMH5aOyePykJ7iE+m/oyMmM/FYvLOyIAPlIrYsxRz1bUSbsQHVmwuRFZqM9FQWC05UUiTJICEYlpeCzFQfUgNe5KT7xEC3hm00tbHkOCTA0O81EPBZCJIseJnZwJUf+d4UAlDb0IHRxRnih5e0Szch6jNWgK6RkspW5NB14bNQXtsus+itZY1YuaYaZZUtksbJ39LsWSOQn5eaKNEslRkT8v2OjQQhMROnesDqj+lpAbzzzjosWVaCy887BF88cYIQGK7ZEHfCEodgeXyJZaN7uPH3Hm9pQuV/38XaRx9F9dIliLS2wrIcBAIeBAMGUlJNBFISWDEuwbFcuKw3ETBg+z1YHclBIDMP8048AcUnXQB/dmGPyAEfYcASBM7cSBC4SNG0adO2r47ImZtK8VJ+WDX4dI1HIAB7k57CRqNx4qYIgjqWszbGIPQHQWCaIwkC60GwmmRfGYQe9v19OoyG8Z///KfMQGmIsrKyJIMjuT326QI9PJhGjlkMZ555pvRD3g8VBAbgcbavNpE0O1OhdkVU99R+aibOH+3OFASqWeynKkhxT+fr4SN/5jAShAcffFDSFrnsNV1yyRtdDHQlUDG46qqr8Oyzz+K5557D1KlTJbDznHPOkfbsq/vtrece6OehUa5taMPDj3+EV/67CRlpQUyfUog5BxXLAk3Z6QGkhjzwStVPwOqcVS/+pBYv/3cjamqZLePCV7QcbmoJ6jfMQiA+AhPHZSIY6qwl05muSBeFBAayroHHlPoC4bANr88Uf3vQ7xG/P4kAayCIksDUR48hn6UGPFi4uhKP/msFfnr54RhZlC7Wm8SjoTki8QvDC1Jl9t/SHsfqTQ1oDbMOSWLV0vbWCFqaw0IwVm+sQ9QGJk4skPiEROGnhItB/UvGIv5+l/ERicyGcaNy0NLcjmeeW4bsdD9+fPmRGD0sQ9wMcbsNpuGB5Ql2Fovat97hxOOI1Fah+t23sPWJv6B1y1rSIIk1MO04AkEXwVQfLL8HZqoJb6YP/rw0+IuKkD79KKTOPAWenIkwvIG9ylbY1d0OWILAgZkEgcFNLPGqlk9mkKJaBEdlK6jgLlWARpW6TR6QkmXrrgOVIgj8nBJy8qDPWRsNQl+7GHgPrKRIFwNjRQYzQWB70rgwTe7SSy8V+F944QUhCDQs/bmxDSiXf/WrX8XkyZPFcNPlxH6oVhJV/ZD3qQJMu/bBZJUr+X3ys+2KIPD8dDGQIJAc8MWtrwwuSQldDLw+FYSuBIFE6YknngBVBBICEltiw7//P3vfAR5XdW29pjd1ySqWLNmy3HvFBmwIJTYBQguhhBZCCCmk98efvCTvkZdGEko6JCQkpLyETgwG425cwL3KRb1LozIzmj7/t/a5R7oWsi0bi9jk3USoeObOLfues87aa6+9fft26YLJKpD/YxHe2Uhm6+ZX1x/Gg394E940F6ZNKsScGSNRWJAhbY8dnMzZWdFuhcdphcvGlbwFPcE4tu5rwbo9B1EZ3IBYKoCemkmIBrJQVpIudDxBAEv/+rwMjNQBDZcYl6wsEKbAbYPbaYHbAAcEBkw1uF02+Rsn/017W5Cf7YXNksADf3gDSxaW4e5rp4swkjn3VzfV4W8rDuKqxeUYXZSO5s5eSZtwH9J90WDuujp7JW3AL4oaWVeZtNkQ7I2rbpCGMyPNoFTGmUyJslgm0zJ2dC6y0jx4Y1stXt94GO+/eDxuvXqKCDZj8YAgDIfDJ+6Kp2dLiTYh3NqMwIEdiPd0g94J4YZ6xDrqkV5WBnfJKNg8LjjSM+HIHgF7VhGs7nQBBqrz5NvbzlqAcPjwYREp0gNhIEAwaxA0ODBb1XLC0aWNWoBoFh+aV3h6kOUgyJ/NKQb+TmqXk9Q7DRA4WZBFIYPA63DllVe+YxPC2wu5k3s3z5NiTJa03nHHHTLBEpBR9EZw9K8GCJzsuCr+4Ac/KBU1Zi2M7tap0wT8ruNQ23ab41ADWLNY0QxG+TMn/4EMAn/nddAAgWzLqQIEPTDqzzVLc8z6KzP40CJFnWIYCBB4rkwpUA3N12ogwPOkA+VHP/pR0S+8U4Dm5CLw3flqXvvmtiB+/uSbaO6KYEJFnlQhuFyctB0iSPQ4bTIxZ/lU18UMH026KCq0ojvRgVX1z+FwTQAbXylBd5cdJI7Gj86Rbo0sNbQ7bJIj588sk2QNP10XqSGgAZKAAwEGBAtkEAhCLGJ4xJX+7kPtMrnvq/ajKDcdty4di5888QZe39WEz98yG1csKhfm4Kd/2Yb12xukOoEeCR6nXfwKmNIoyPMijWDHbkOoNyYsgi7d5N/S093oiSbQ1BZCTyBitI1WbpCMfb5WPbdJjCrKRHFhprzuxWU7EemN4Rv3LsLkcbmIxQgQ4rDb00/NE+FEYWYwGsJsJBJIxiKwOpywsKZRcwSnKJA83keftQBBuwiyvIwrNzODMFCkqPO6euDV5WRmm1rdk0EDBg5i5gGLuV1uxwIIHPjMPRdOdL/f7r/zXJj/5iT5bgYIFLTpToFkjVhWyBX7U089JeCIKZ5/5cRCoSirfGj4U1FRcZQfhwYIA1kA/q7TYNo2WccO485sfKTTZJp90CZI5hQDP4cMAin+k9EgmJ8LdYxaHa1NvvoI16PCVZTtXIkZ6IGghWWOnOSPpUHgs0ZWhak4vfGZI7Dh11BSfW/3mfm/9xtXgHnuZAo7K9uwbH0V3G6nUP2cBIOhCJpbA9IAieZF5aOyRWDYG45jfFk23rdoLHpSdVhbvxxZzkIEasfiqZfrEIpEkZ7mQsXoHHicDpnsmSKwOQkQVOtzNmASN0MCBAtZCbIHZAvIINhFc8DXpHmcWL21DrVNAQTDMXQGoshOd+Py80qxelM1nnrtMJacV4Yv3TYXG3Y24qG/7BAmQRksaUBiER0C9RN5mWwv7UVBrlcmV3aAlMk/mRLmJDPTjXg8hY6uMJo6QugKRCWtINUMzDGIEJGlnXaMLx8Br9eJPXvqsXrtQVxz6QTcft1U6UiZRAx2mw92m+uUyh3PxPg8awECBXrMd7K8TK/cCBK0D8JgaYLB1O+8ALqskSyAdr/TNej0Q6Bq3Dww68H6X8kg8BjIohAgMNXybmQQOGk++uijsuqkkI2NqUhR33TTTUJps36e4sB/pQ6BXhTs5njzzTdLLwL2YeAX43AwgGCOHf2zmnBVWSPjjJO89lBg/PH8NHDVDMSxAAJjmO81A4uBA49mCfTzwMFVd5cklRqNJtEbjiBMUVqcg6kq+eLKjpMJa+QddlXXzuPu6QnggQd+jJKSwX0QzsSB79/1mCTW2HMhFMWKTbWobaQADmhpDaKmvgtMO/RG48hIc2LJ+WORleHBn17YLQJBGxy4cHEGLCVbkOsoQUHyHDz+zD7UNPWIkj4/Jw2jR2VKgyWaFhEgWMW4SFUisGOi9HSgg6jVItQ80wwupwUephZodkQGwWGX/RForNxSgxfWVaMwz4dp5TlimrSvyo/i/DQsnleMHQfasb/aL1oC7pvpCd1iWhT+hqMtexqke10YmUNGxI5MOiUa3SgzMjzCmnDjeTb7QyJ2pOiRpZBSwcmOvHFWFFiRnelDuteBjRsPCeD41mcXo7TIgWQyApuN3SpVhdG7YTtrAYKmnenMNn78eBmUqQ/gwDwYEHjrINmvWTWvpDgg6oGag7V2RyQCZjqBFLJ+vQYIWqQ4lM89nUHD/DdBEul3Ngp6twSlvkZcmbJLIO8ruyXyd1LSTCk9+eSTooJnJ0XW3x9vi8YD8PceQjIZQ6anHB5H1mnJz/Ez9+zZIyCNynxWVTAOCVR1Nc1Q7olmtvRrNcPFOOQ58zv/xhikH4J2DdUAQ6cYyCBogDDYilzFrZJicfDmGBYKRdDeHkR9fTv27N2Lw4f3obunV1ZONitfw2ZTNK6hwEx50NOVLiPdh9y8XEyaNB55uVl44onfo3zsGHx9CM2aTuczcLbtK5boRUfooPj4Z3nGwOPIOW2xeKJrwftPp8JgLIHa5h6seL0GLS1BVNf60dgSlBRAYUEaykqycN6cURhXliO5/J89+SZscCK/NAQUb8b43KmYlrUYuys78dtndkhVA0WIFA4WFaRL3Ij2gAyCfFeTtrRudthkdU2wwP4KBAYECmQrnE6KE60q7WAneLDjYF2HGAGVFaYjFovjmw+vQ1Vzt2HKRJdSxXqJdbJhfMTPJVFhk0ZpSu8g6Ts6HtqtSMYS8DisGDsqCwU5XqSlu+HxOPrGT6YVQuE46pp6UN8SQDiSkGeF3ghkFuTZsNvQ0xlEa1M3brxiEm66fDTALpW2NDjsyo753bCd1QCB1DoBAicNDsxcbXFgHmyiPtbkrSd7fTPNv/MmEyBwRUdqlECAAMG8ETRoJ8V3EiDoFAPZAwIErqbfLUFpvhd03WN5HO8DGyNxpXvPPffggQceEE0Cm1QNzHmb7w/Ljypbnse2+t8jnophVOZ8TCn8IHJ842F7GzXL+jN27dolYsnbbrsNo0aN6mMQtOX3UO/JQLrf/D7NcjEGyaYw3vilN4IH0vTHAghmXQEHSFrCNjZ2YOvWI9i2vQr7DxxBdfU+tDTvQnFxNsrKRsHn9cLn88Lj8SnWwOmCw+UUhTYFXYFAEB3tnfB39khb4LbWDsycORlf+fLnMXJkobyXn/MuGSdPy1gfT0Swr+UZ7Gx4ArFkGKVZCzG16CZke8thsx5d+XFaPtC0EwUOEuiKqNbzm7Y34rlXKuFz0tY3C6FIXFbJC2aNktU6J2y2Wz5Y48eu/R2YMsWDPdGn0Vqbjp4jkxCLsYIA2F/VAY/LgVgiibLiTHE67GMLHBQ6EiDYxciHAISTN2dq/ixCRAEFBpPAska2erYb1QwCGpQwkqwEWay6xm68vKFaqi7CUU7UYpSs+jowbcAFv7F/TuJkL9hHgu+Xzo3syJhIobMzJI2MikekSROmijHZUkaYSKiyRs08qKqHDvi7wso4Sff3SaVQlJeOyr0NyEn34pufmY8RuTHYLWlwONLeNWPxWQsQOHFwcqTFMHO/ZgbBrAXQWoKBQIAPyWBq8bfmZdXrzBoE877OBIBAFuHd2s2RAcpVotMcxwAAIABJREFUNK85GQM2BeI1Z6UA2QPzRDnYoBqKtuH1qgdQ41+vvNKTKaR7SjA271KMG/E+uLmCOwV7VP1ZO3fuxFe+8hXcfvvt0k9Apxi0UZIoto12uCca9DUoMMeXma3i+3ktCAgIVM2MA4WbGiDoHhCaYSBAIH3L9+3aVYM1a/bjQGUd2toa0dl5BC0tVQj3diEU6pJ9sHQ4JydX/Aw8HtaU0/LZC5fbBbfHBbfLI2k3DczCvWQhOnCkqhpNze3Iy83A/PnzcMEFi1FaOuqE7Z9PdF3eLf8ejLZhzaH/RmP3GwqcpixIcxZgfP6VGDficrgcaW+rJO1Y14kxFI4l0E1wQGOhrjC++7P1OFzdiQ9eNQ3zZpag3R9CS0sPJlaMkImbq/5DtZ148pn9KBmdRLJsJer2ZWNRyRUYNTJNeiMsX1+FohFpuOvaqeKhwGoDTsouB0scVf8DZXakWCgHa/Wp7bLSLVF1bxQdgi5vNASLwibYlf8BBY58Hyd42afNimg0jj/9cz/+/M+9wiTIzK8GdOMbPQ1UzwLVqNEqqQxhGqiHYO+CWALBYERVHtisKC3OwNxpI5VOgSCAXRCVKkfSDodru7D3CNkMljWwzbMV580vx/Y3q1BT04H7Pz8bU8bRnMkLpyP9/wDCv/qhJUAgg8DyvrFjxx7FIGiFuP7OY+VgZ/ZD0Kv9gav+wbQLfP9gVQz8+0CA8E5dFx6nLvV8NwOEo9iAeFwofYoz6Vo4lAY/oUgbNlb9CDVdG8XZTTq2JSlCSmFy4VWYWnQDfK5Cadt6KhvL9L72ta9JqR5FemaAoMscdRzqFIGm/48Xe8cCC9oo6UQAQb+f38kaHDnSjH88tRFbtx5CKhVCLFqDgwe3oqAgD5dccikmTBiPX/ziF9i//wAmTZqIRecvklSGw+kUZs7t8cBLPQ4Bg4PgwAEbhWV0F3V74PV4BDB0dXfhtddW4qWXXoIvPQN33XkXli59L7KyMt81g+apxAnfE4y2Ys2h76K5ZyvsNqcxEcU4OmHCiMsxpeh6+FwFpxyLgx0XY4yGRH6W8rG/h82CDa/X4tuPrBVNyZVLJmHxgtHo7AmjuaUHk8bmIt3nFlHiX1/YjwM1TbCPXYmONjfm51yDj984E7FEDMvWVeMfr1TiqveMxWXnjhHgsXlPC3ZUqsoDrvwJENi2mVoAofplJa8magEMDpVO8JA1YJqBAIEOiw5WNFCvYIWTDITxM1tDc2XP17X5Q/jGI+tQ29Qj+zL6MgqTQGtoChB5HGNHZQvYOVDtl2NSlULKPTEaiSqxLXtBpJLIyfJickUeJozOEk2CdKUUn2ll+9zQGsAbu5rR2R3G1AkFmDmlGAcqW7BpQyW+8ZkpmDExF0iRQfg/gHCqz8hpex8nCjIIbPhCcRgHM+aqdYphoK7A3AhHK8XNnfPMeWDzwK1ZBs0g8DPM4MLsg6AdHE/bSR5nRwMBwkUXXfRvMQCTUeDXwCqTY10qBRAeQE3X6wIQ1MSpRIFcI2S7yzGt6CaMyjkPdqvrpG8dy/cIEO688863AARdYisrkkTiqMoFfpC5v4IZNAyMP/NBESCQIRsIEMikmBkEnqfTaYffH8Rzz2/BK69sQkPDQUQiTXA6IqioGCMNpsg8UeTLz3/xxRclXUKTp4rysXA6HIgnEyp3bLPBl+ZFmteHwqICjCkfi5FFI1FYNBKZ2dmSgoC023UhzeOFv7MTL738Mp5/7gXplXLPPXcLkP93bshEBmHtofvRZAAEdV/VapVfeb7xmFb0QZRknStK+KG04z1ewHLSjCcS6AzHJQUgk3UqhUee2IKnXz4gwOCSCyqQ5nOJ1qCpuQcjC9OwY18L9h/0o6u3B/ZxqxHsdKNr7zx85APTsGBGIdgWurMnIqzBmOIMeD120QJwag70xqTr4pGmHtQ2UwDJlT9ZBEODQH0ATcOYwrCmhAFwG06JnPjFGImpAbIHZBEMYyVWJNTUdeKNXQ0IBGPwByLYeaBNqhxYkcGGUYzRts4QRpdkYu7kQqzYXIsxJVm4eOFoPPHsLrT6Q3Icun1jiuIGA0gIk2CnS6FTyiXHlWahYlSWgAz2eyBO4HPQE4xg694WuN0OLJgzGl3dEaxftw+fu70M48r4HOQMuwbhKDbcMHk66YFriG84a1MM9HWnQRBV7FocZhYp6vPXEzx/14Y1WvzFFZ4GC1z98OtYbnekdvlaqsc52OtBnOVl2gfhXwEQvvOd78gERcMoDXKGeO/7XmZudz3UnPnJfsagqxupMWY50fBsHCB7ox3YWPUT1HatF1rXfH68XswLu+05oksoH3ExvM4RJ5Vy2Lp1q7Q4JkAoootZRoaAVbMGQZfdmh9scwzy3zlx6hiUjnhmutRkRjCwzJFXjnHHz9VljolEXMxa9u2rxu8efx6vvbYCkUgz8kf4MG/eLFxxxftx3nnniSMl410LILlvliv+8Ec/Eo2BK300HO40ydVarRxM6XVPpWIUdksY2exdXz4GM2fPxIJzzsXYSZOEKbAmU3CTaXC5pF/Iw4/8TDQKn/vcp8UQyeUa3nz7qUSTqncfvljkMYWi7Vh7+Hto6nnDAAAKIMh/U0AsEYHd6sWMkbdi3IilcL9NMS1Xx12RGILROFw2G7I8DjQ09+DT31kuE9/dt50DNiLiSjkSS6C6rhOt7QFs3dHI6RCO8jcRdbahY+tCpLnTcO8tszAyP13ADDUEnPxFuGf0RWDnAt1Geeehdhys7VYAgakGSRHQudYuAkJS/YxxggOWOoqlMtMTZBMEKBBA26TagRoGj8uK9W/U4sePbhJGRFIZLvZ6gLAeH75mKl7f2YQ/PrcX77twDK68sAI//sMb6ApGcOc1M7DvSDte2XBEGAxe8bQ0p6Qd/F29Ut6p0hH0uXEIoOE1KSlIx/Tx+VK+2We2Z7NIyqGyqgNFRdlI83rQWNOAJef6UDYyEzmZhbBZjWZXpxKIA94jY3o8jmQwgHhHO5LBIBK9QeZI5B5a3F5YfT44MrNgy8yExemCZYgpzaEc3lkNEDg5shMcFe4cII9VxWBmE8y6Ay3+0qVl/M4Bk5Qq98UBTpd/8d842BGYsBZf53mZuuCA/k56IPDG8jwIWugHQQ0GQYoO4qHcePNreO1I2dN0ikK7wbz0T3afQ3l9Z6gKtf71sAm9PxwwwYJEKoKqjpXw9x4xRHMDPkfyjexHn0JJ1gLMGPkh5PjGDVk0RoDABkXsKcAJmteSaYbm5ma5H+ZUwWA6GD3Bm0sc+T7dcly3e9b7GcggcJ98PT+X1RyMw7a2djz9zEv405+eRHNTA6ZOrZBeHYsXL8KYMeWi2yD+kFpwY3CXLnBWG1qam/Cf3/oWnvjDE3DnlKNi3tXKYU7c5ZjbjSMRiyEWDiIc9CPY3YpIZz0yvcDUKRNw9TVX4z0XvAd5eSNUOZvDjo6ODry4bBme+sfTuPqqq3HTTTfA6z19g+hQYu24K+1UEt3hejR0bUYqFVNKt9O8cVJKpKI43L4c3eE6MdMZuMm9NJobUUw7s/h25KaNh+UU0l+8rb2xODrDUdgsVgEHFAxu2tmAu77+IopHpOOGD8zEmNJsEe2RYaiu8yMnw4M9B9pQGVqJXk81/NsWIBZ2IyfLgXtunouiPJ/hEWAIAlkIaEkilWKUMD+v2jlv2d+KpvaQmuSlfTMrGMgkKKMkJRq0SJUDhYpS4kjGgGkF0R6o1JgSOSpjJVZH/PJPm/Ha+mppHBVPpTCyIB2fv/McFBeki3/BwVq/sBK1Td3432X7xDjpiosmSGOl3z+9A81tATmWBXPKMHlCPvYcaMG2XfUitOU9YhUFQYKUNibY/8CBqRUjUDYyQ8YopiJ4pvF4Ap2BONIz0pGfHsGo3F7kZvkwqnAM7PaTZyIHCQYke0PoPViJwIa16N25E/H2VqSiEQEMvMiqZbUVFocD1rR0uMikLzwf3tlz4cjKUUDhbaqEz1qAQPU4exAQIHBS4wB5vCoGhdI1Wk+9RaBorlhgqZh2rNNirHXr1gkFq7UI7+RK+1hjlRbAmbUWpzKuMQgIjFgNolsX87yHd0uhsmUZlh/4b8mLDuiUcvo+WtqwcgVzNHvQ/wG66UsSsUQUHkcuZhd/GGU5F8JJNfIJgMsbb7whpaYECLqz50AGYbCJQMejGbDyZ94LggDGINNaGohq0MrX8F6Zq2n4N4oU+X39+vX485//hqqqwxg7thzXXnstlixZgvwRI0RPYI4VOTf5v1Wpv8XvwIpDhw7iYx/7GNat34hRU9+L0ZMXIhpWvUikzSz/Z1FCMP4/0tuLjpZ6tNfthC3mx9KLFuGOj9yBWbNnw+v1IR5TCvnlr7yKR3/zG1x+5ftx4wevR3aOOuZ/9cZJmSBy7aHvIxIPnvCen/LxSv0/+xqcOBaj8Qhc9hwsHH0vijJnS2nuyYBoTngdvVFZ3We7nFJSGI8l8au/bMUvn9yKMaW5uOWDs5CdpVKmRItHajpRXpKDsOcw1jY+g52vliHQMAJWB0F0CovnjsL1l02WFbwGlkbxgFE9y4igW6JFTIe2HmiTEkFhEKQ1tJFqYMrBospmtXhR2AOnEiG+RZxoU3/nqv6hxzZi+75mMS3iuc2eUoRP3DZXNW4i72GzimPi5t2N0t65vDRHgEksDtQ394jXQzgax4jcNGnW1NEVwutvVKOlnU656gr73OypIA8Ekgm2fk5iQnkOpo4bIc9eKk59g+qc7HC5MSo/DK8lIJU/5aMq4HS8jbGTIDHci3DlAXS+9CKCGzcIe2BxOqWKQjeVMpppKqBgCCcFOMACd8V4ZFx2BXzzF8CRmyvA/1S3sxIgMDipHqfDHpvkUKzGVREntcHKHAeKwcwXy6wn0D/rgVq3eWYPgNdee62PUTgTBrVTveGDvU+nJgiKSJOTmSEVPLxMQgqH217BisrvwGUfZucxebBOtKnVj9Q5p2wYnbMIs0o+jAw3LYCP7Wm+ZcsWAQi0C6ar42AphsEAwmBiWH0fzHoEXcVBwEBwSqaBuhd+kd0igKBh1po1a4Td4muoLWB1D4WHObm5sMGGlKzy+hkDGei4ijMYiP5UnMolr1q1WspIO7p6Mf2iO5CZkSfiTitZBJacKzNayc3Kji1WcdzramtG46FNyHD04ANXX4EP30Ub5WIB3Kwi2bljJx586GHMnTcfH7/nrj5gc6K7M5z/Tm+HGv9arD/yI8QSodPSbOeYx8uJ5QSgSKyART/AFHkKo7LPxTml9xgCxhP76zO10BONoyscQ6bbgQyXSlmxG+P/+8kavLaxCuPK83DLDXNk1S4zqzWFmroAnD4/GlyvwtEzEWuWOdHWoUSALFPkavyG903G5IoRqmOu5L/VYkuAK8vCWfLaGcaRhm60d/GekwlQfgRkAZhaYIpB9WRQ4kW+pq9qQZozMbWgUgyqCiIFr9OO17fW4We/26QABC0XAZw3vwwfumaGHCNNnqrqOyWNUjEmF1npHgTCMQEE0bhqvkTPhkgsiV5W3vh7UdvgR1WtH7GEqnjgqyiQlKoHo3WTiBgTSYzI9WL21CIxkSL44N+ys72YXmFDqKsVze1JzJo8GXnZLHM8+YiVlGd7O/zP/R1dLy1DMhQUrYa6vuJKJs+aiDBTKZUO59/4JYjFsGGWwAG8M2Yg59Y74J00VViGU9nOWoBA9fj3v/99WSFRPU6AwFWW7uaoVjukv4zVDldHA+7aYIO0mWlgYLOtNJkKcaezWuWB5ZegVT4UhmWnesjUZzIvFk8qNMrFsdEv5FTuzzv+Hg7kdCukvoPMzPBtCiC8RoAgjUVO4Yk6rQdnsEuigFZsQq5vAiYXXouy7MVw2o/2v9AfvXnzZqmmIUBgRQtX8lzdM8Wg0046Bs3pBv1+/W/muDP/bNYi8GElqyCTeyoFsmivv/66pL74DFCHQmAwevRoAbM65STDuBGzRx2L5BlUM5qBxxaLRfH444/j29/+DqKWdMy68Ga43B7EqW+QlRanBtX4hp/DSVZcaS02YUBaag+gs24HZk4pxWc/82kBBOFwRJ6F/fsO4Fe/fgznnbsQt9xyM3Jy/rWdHPsBwg9BI6OhlqWe1vB7y876tQmRWAR5aeNEJ1OWswgOW3/DuMGOga2P20Kqk2iuxymrb97/lrYgPvvfy6Vkb9rkIlxz5TQjfUQBnhUH69pQGVuG0sIMTE27Ah0dEXQHwtiysxE79jdLL4abr5yCCWNzZXJUDFQKkShZr4SIAA/Vd6M7QCdPwOWi5bIqbZSJXhsmSUWDagEttkkigjVSCYZ3AQGDg50YjfJGUv/bdjeiqrYT+XnKzCnD60R6mhNOlx27D7Ti1TWHcLiuU9pPl5ZkYf7MEhQXZcJqZ6liErWNXag83I729oAILVnqyPbVwmy4VIUTx3ael89thcMYkowsnGgVcrI8mDWlUESRBMTjxmRibIkDoUAnXllTizlTJmPejCJJY5zMlkrEEa46gta//gnBTRskLSTzVx8AFztH2aXMP8cACNQJMRUo81QkAkfRSOTd/hGkn7cYNlOjwaEe21kLEKgep8veddddJ6teM4NAdKu/dB6YAamb4fBnc7pBD7i8aAMHyr/+9a/SYthDcSLLhGDBOLcb0VQKh6UmPQlngR32Qiui1QnE/UkJyMkjVanN3iZVdsOAObmQGeotPL2vIxCiWI7gi9T08Hnkn2kA4ejryMkvEY+LQnpRxVdQkffeQVeWmzZtEjB11113ST8EAgSmGFgJYI5BncbRAkTzxK8ZKx2Hx2IX+O9dXV1Yu3atMFo0TjrnnHPwgQ98ADNmzJBnQO9DsWFGbbgMKAqpctzSg4v6XIMA4PhDgCuDpMqzko0gS/fgQ49g1IRzMfWcyxGP9vblNXUjG5U7TwoVy+eBzwmnj2BXJ+r2v45sZxc+/elPYcmSpQKaqGfYtWsPfvGLX+GK978fH7791r721ac3moe2tzMTIOhjV0AhnmA5pBOLyr+EMbnvOaYuQWkPYlLWmMWmS061AuWEceBIO/7r5xswaWKRrLAp1FOOmWqVvrl+P5p763BJ+VykO/JEmMqVekNzEG/ubkRzaw+mTyzAvGlF4m7I+8j3bt7VhOXrq+Fy22SVzWoJvk/ZH3O1b2eBi1D9UuprpBtEl0CwK1bfSqfAdCMFiE6yDGQQDPDAigcpm6R9s9UiPSNa24Kycq6kJ8OqSvSGY/JZfQs5pERDQL1CNJ5EMBDpc16U3L2sItW47PHSCMwm+6AI0cseETw2Y7WuUmrKP6EgLw2XXUSdkhWlhXYUjrALM/H43/Zj4uh8fGDpRGUINcSNC5JwdRUafvkwgju3wUHtG1NR/UIh9cydECAoNkG0QsZ72f3R6vUh/55PIeui90qq4mS2sx4gcHCkGnugBkGvwoS2iceFitVVBrzZHKj1Vz+9ejT9x/ewAx1pZLITDKTrc3JxZ34hwskEflxbj9fSAhj1mXz4pnkQWBtAzQPtuGYy8KlL3SL+eXhFFH9/MyluYP/yRfIQIoPXiKtUKvNJMQ9fWdqZDRB0/JAyrci7FueWf3RQ58WNGzcKw0QGgUJRzSAQIJg3xqD+MoNW7c9hBgWDAVbui06SbJtM1oDW2uz/QHGpuQW5Wu0YFi8yphgV4pLzNUhTAQ+KqtYFEvIqAgRhUIz/WCEpu4985C6sXr0O0869DqPGTgerJOS9xg60uE5AQlI1ouLKjP9OU5uaPWvhijfh7nvuxNIlS+W54HvWr9+AV1esxMfuvhsXXrhomFNaxw7+MxsgqOPm9YrEezG14FrMK/sUrMdwAeX9JnvA+zrCy54GaqLi37fsbsTyzfWYP6cMYdEn8H5T/GdFZ+ogNtW/jrzEuVhQXqGQoiFOFT8CB3P7cURjcfg8TkmCcMpkWoGgsKE1iKqGLvRG2MfBhbwsN7pCMenKqBgEZa/M1IK27uZEr1MMTD+JP4IAApWO6CuNZBpCnJTV66mHWPbKPmx6s05YCaYW+D7xQzAzxQohI2k8D7JIM9IiSdNgzDNx+xxIz/QIOAgFY3JuXptiyfh29URRj5BAxbgCzJtbhrxMJ8YUpEC5VjAUx6vr2lBWkI4l55dLJcZQNh5vuK4WtY/9Aj0bX4fd5RB9Br9kQasRvE4nHItBUFRDH0BQk416zpKRKKzpmSj87BeQvvD8k0o3nLUAgerxH/7wh9JmV4vDjiVS1Lld9aAkZWXE1Rf/LkYvhskLb4iZXSBAeOihh8DPcrGyAcAXi4pxeWYWSOP9srEFfy7pwdivFsNV4ESkOoLKr9bhq3PjWDLFCksSeGZnEv+znDk35Rl+pm+8Jsx3sx6ek97pAAhcvYQ5YaQgPeW5KmDwnlkphqPvjJr0mLtM4LzyL2BC/uWDGthwsuYq++6775YVPAECqxgaGhqMAVbxRuZSR+6bsaX7LPB3XebIeDSXOZqPitUzv/rVr7Bjxw5pUkbLaQIEHbMccHmt+8RserAUJliS36ZUztF8liEjUCOhmMOoVBoH1O3btuGuuz6K6oZ2LHjvbcjJG4l4jKsxNYloapYMAv/H2nuqvBP8EsCQQF3lFiS6K/GJj39EQEI0ogD7y8tfQWNjE77whc+hvHzMMDJW/RNtrxGLUmMvD6XWIJxJKYb+O8/rnEjFkExZcf7oL6BixJJjMgik0psDUWS4rchw94shOam+9noVfvr7N3H7zXNlNU6AwIkomurB/uiLiAYcyAici3Fl+TLBSfUK57mkciVUc6qJCZUMFSWuLFvU7BTTrBbpBrmzslV8EShSJGWuqhj4/PP1ilWQ98nkrno08GcBA2QcDL2CAAoLc+4sebRif2ULnv3nbsSiKjXGFIX0YlCCGPE36V+NaZ2ECm2urGUYNumiRfpnsyI9ywun245wOCYdH90ELPq1SXX+9ETIz8/A3LnlKMxLYUaFW8ow61ui2PhmJyaNzcYFc0qkGkJA/3FWhQQf8VAI1U/8Ds1/+ROcHhccdJ3kPESmhdfD7HNgVC7o+UzBH4ZvUiF7JaIyPCmM35WwAvHeCJwlpSj+znfhKisbckr3rAUIVI+zZvv666/vAwgnKnPUj5ymdLUIUZeO8e9c0fFL53DJIDCdIb+nUpjn8eHmnBz0JBJ4vK0NBx1xlNw4Apmz0tD+aifqn+rA5IIEPrKQaDOF32+xYGeDanV6NjAIDD4yCF/60pfeNkDg/BGKJbCjLYKVtSFEEknMynfj0rI0eB0WE0BwvWMNa04I0OQZY71/ChnuURiTezEmFlwNlz190Ldu2LAB3/ve90T1z9QC0wz0ytAMgpkZMKe1zKksXeKo249rwMCY02W0Grz6/X5xKly1aqUACcY/K3moQVBDgrHWMZgEMgXKxMaYzPvSaH3DizG4GKentJrGxtWTKgN98YUX8KUvfxlxew7mXfAB6dGQSKm2uUrHoLQInIi4ohSQkNQgIYVoPI7avRvhjjXgnnvuxIKF54I6h/a2djz73IuYOXMG7vzw7QKuhmPjYQajSRzwR/ByVQCheEpi8bIxaXDZUoZIkQAhNHg57HAc1In2KcBAGYNlecokzUVbZqedlsyDb+yp0BGKI89nl2ZHeqP4dtmqw/j6Ayvx/qVTZAUcj3OCTaEusgndlkpM8lyG6sM2FBb4kJVOJX5KCfUE0JsEiUaMmXOmnMj83WHUNHYLCGjuCCHYG5WUgDgpGloCZbusAAF3K5O/kV4gw6WAiFLrizUyJ0thDhS7QHbrr39/Aw2N3eLmedwxVU+opktlYBwlA+0rwVBjs9PrhDfNbVRCxGFNxMVYSp25kf9P8pgtOO+88ThvpgX52YDDmYkD1Uns3udHSVEaLl1YhgyPo6+fw7HuFZ+PjbW7sOqR7+PcLUfg9ajUAr0a5Jyl6sUAGjyXREIdhbowCqAnYoaGyFh9ihJZf6JQgQYyAhKhMLKuvBoFd38ctjSWbZ54O+sBAhkErR4/UZmj+XLoAU3rEriaIVDQDXGU8CqFP//5z6CtM/PyBAjMBFL5rRS8gI10acICi92CJLuaOYCYDMj9ChenTQ3bZ8tGgPB2GQRpKRuO47lDAbxSE5JcvnQRtALfXJiHcdlOHGpbblQxOIel9rzveovCmrfs+BSOrNTYNdFiQ0nWfMwovgNZ3jHHtb5lWSH1GgQInNyYZiBAoEjxKLpzkJtvZhXMYlpd5kimiz9rwMr45sBKEWRdXR3++/77UVtbi6ve/3585tOfwYSJE+S1fX4YMrCrSgXGa9/Kw6Be+2LUuCwCI0SD0Gc2p6WIosf4zaOP4lvf+g5GTTgf0+ZejCQSorNRY5LqcscvqQRJUOhJLRBTK0qbEInFUL1nDXLtnfjs5z6LstGjEY3FsG/ffmzdugMf+9hdmD9v7mlhrY561gFxE3zhSABPV6r2xhx80xwWfHFuLsZm2lArVQw/RCwZMtbEp/tp7U/1cCV8/JJFdU0TybhMTkXpszB/9L1IdxWL0dCxNn5CTziOQCSO/DSncg00Nt6D/122Fz/49UZcdukkzJtTClbFBZJNqIw+j/GZ81DuPgdb9tQjI9ONwhyfApuiWxFyXU2UFjVhGgJ/2TuPlZP8vsPtIhJkmoGnSD8CSStQNyDVCHz+mWJQ7cXlbwIK+DsrLfTcZ6QCjDFW/k4wYbVKJcYzz21Dd09YJtMTbrq0XQ5U/cf4ptIHxg74NwKEnBHpsNit6A3FEIvE4JDSQW4GyDYE6EsuLsPSxay+iiORcGNPdRrq6zuRl+PCpeeOEfaGNtLHE1+3hbrxzY1PYNv2tfjwmmZM7onBwWtGtkU6UNJ10ioshoADtwf2cRVwj58EGzVxyRiinTWING9DorcdlhQ7vqoGaex3ocTEitFRrIkCfPm33Q9X6TnqYp9gO6sBwk9+8hNJMbDkyyxS1AOveZU22I3qo0h1CBhwVNtO7zVhAAAgAElEQVQy9/T04Le//a2oxc0dAxWWNC28jBWUopTUv+nKk5MUs57ofg37v2sGgQCBwruTTTHwQWMZ0aGuKJ451I3trVF5sFm2RGMTWwr42jm5mJTrQnXHaqyv+jEc0slueCScPJ9oIoBkKmrQ12/9HJnkSEymgHRXkazSxuReNKRWvPTHYKqLAIETt5lB0PE1sFJhMBHiwBurWS7dTZTpCIIFCpqyc3Lw5tbtoo9he3OP24lpU6fhhhtvwJVXXimGTTTXIZ3KFSJzqGadzcAJyiAB1GBvVN9IKaPB1LLKgaNOW1srvvXtb+MfT/8T08+7GsVlE5GKc1WjwLQG3QSDIlYki2AIhqnlIHAI9HShZucKzJ9agttvv0X6NYRCvVixYhW8vjR85tOfRElJ8ZAp0OM9ELyf0WQShzqjeHJvNw52MgZUzp00dLrdgk/NzMHEHDsauzZhS+0vhhEgqJk0kugRs6njgdWkYdzFWJyYfxVKshciw82W5sd/RhjFXey5wBjxsvNm/+t7IzE89rft+O3fd2DpJZMwZ1YZIvEwqqKvImXrwbyca+F1pGNHZbN0aqRdsZ4Wtbi1LxOv8Y0ASdVJkeNcU1sIW/c2oScYNaoWaJJkAAQpd9T9GAzWoC+9oBgGVXVmTGgGoGf88o/6XHbuqseWLVUiGFZxfJKbGSTI6lrtgzHOksLcokw4XBQdJhDujQM0z0sofxCHk86RQG5eOq5ZmoNxpZxwgf01Kew64oLXlkR2hguXnj9aSjXTqScwgTTzkXIBtbJ2B7606ucIpRKYu78T177ZjMIUhZq0oVaiTVbB2RwuuGbPg2fxxYiPLIcfaeiJ0Nncgry0GNJRg3jjJkSqV8ASbTH8JgzNBx0p6VxJkGCjCWoU1pGXwDHpM7BIc7Djb2ctQGB5GfUBpFg1QOAKiwOmUkqrG6+/H63uNudi+y/QQAqYF4fllKSLzd7/WpzVN9Ab9bNH08lqv2dDWsEcIjo/zhw37XhPpuSLA3JnJI719SE8fziA9kgSblIGxkqAug0ChK8vyMXEHLdYz/p7DxnVAafwsJ8guKUhSzyIvU3/i6bATlMvBv1GtVJLJuOSbB2ZMRtTi25EXtoU2IfYfpcAgR0mqUEgQGCpI1NdjY2NRzlbDqxaUIOSXlUeHauDpSL4fk64BApkJx597HG8vmEDMjPSpMsiWR9OLHRMpOhv5qzZsNnZMVBN3NzMNuKGIFqVT5t9qhQWkPy0MGTGmkvqEowGYZ/+zGewbXc1FlxyE7Ky85EUmlOXXxEYpESjo02ZONjyS6cd2uqr4a9ah5uvvxyLFl8or6utrcPLy1fg9ttvxbXXXHXcFt4nGtT0te2OJLCxKYxnDvagLZzozwuLq2EKGQQIs3IxIceBWKwTneGqPip5KJ9xsq9hCeXO+j+iLbRPmjUdvemmQYo1KEifjhkjb8eI9KmqydgQNt7nzlBMjIq094F+WzAUkx4Mf31xL0aOzMQN185Fr70WhyLLMDXzYpR6p8FiTaK6qRuNrSGMLc02TLHUKlONYyoPb6xH5WeKUVv9QQSDUWzf14Kq+m4U5afB52UqQbkoCoNAUyGmEvizRVUo8DhlpczJniWQYgJmsAfyXQkT+QPFiG0tPXh5+S5Eab5E3+bTuDGNRhYkf2Q2HNL2OSUxi2gMCeoRXHZMm1mKaDSFkkIXzpkSgdMeF0C9fLMFew6FkZ9uw/gx2bj4vDECJrx0ZRQW4a0r9XAiigfe+Ad+te05eNPS4e2N49qVNTinPog0locSMPH5cziQvuR9yLj6Ruzr9mHF7jj2NFgQjJJ1AYqzgAVjLVg8wQJf4E3E9z8GZ7xRmAhiEwEFfQkiXsok4B4B25T7YEkbd0IgftYCBJaXPfzww30MAqsYtFGSrj/nyZnZBL2S0/4IA+NrYL6Yv7OEkpSxGWycxrg843alV4I8Z3NDoOMdKAOQVq1VXTEsqwrgjZYwogkOCEcDMU4afKy/Nj8X43Ncqo5eC91O85WQRY4FCMf82Hjkx6jp2jAAICgRHl30MpzFojVg+ViGu+SkrG1pUEQmi4JODRAIVLUGQfLyhvOcjkWtJzAzC8eiIs0sGC8R9Qovvbwcjz32uAgFMzPSJbXB8zhcVQuLzYfpU8bilptuwOVXXoHCwqK+lae5ZDWZ1C6K/VQYrxmBg1EhpUCFukuCFpRiPYGVq1aJRiWCLMxedDUcDreswFjFoH0ReK/Fpz+pas3pnxBjdUMsqfQIBzYhz+7Hrbd+CIVFRYhFw1i9eq1MKvfd9zWUlg5dSDUwdKh1qe2OidZgY3MEkYTqYmi+xgIQHBbcOysH47P0ZK0qL073pmLRgl7pxfA/A3oxqIlXxqpUEj5nPsbmvRfluZcg3T0SVsvQJ0Je+87eqEzEPsMcSZ9LIBjFT3+7GU+vOCBVCBddNBbW0jfgcCQxJ+MaASxWSwrdgQj2VHegrChLtVLWln3K8kDFgbFTTuahcBwvrTkkZkNML1Hsl5nuQlamR4ED7X9gaBDE/8BwUJRVslgoWwUsqHSvwRYY3xVAgIgmN286gp276qSJ2PGo+1O5f6raJ4XsEWlIy/KqLo8AsjM8GFWQIdU4BYVZ6OoMYuaEJEYXxuTZqGkGXtkM8Zjoau/GZRdW4MqLK2AXoyUg3WmT+zGQ/WkNdeLeV3+KN9uqBOykrBZMPNKN69fVoygB+HjtEilknH8Bcu64B6sbs/C/m+PoZJWx8b+E2EEDDksKC8dbcP18oLB3Bex1T8KW7FE6BankVDdOYlvrJivuhS3/4hOOdWctQGB5GSlWphhI65p7MZhzu+YuerrM0dycSGsQdL544OqNJZQUn50on3wqQXkmvscMEHjeJ3oQ+fpgLIk3W8KiN6jtiRuUllFnbDpJAQgW4MOTMzEyzT4sg7EMtykgw2VDgdeGSKwDr1f9CLW63bORBYon42B2L9c3UQxoirPmwm49vgHNwPvFcydAePDBBwUgEFSRzSJQJUAwT+5a36BLHfV11mWOHCTMxl46ho8Gpin4/Z346UOPYN2atRgxIhe+NB88Hjdam1vQ6I8jrXQBEsF2uKN1eP/lF+HOOz+M6dNnwG53qonfEBjQO1+zW0aBg5ye4DVtzCarRtXAiBN9ONSLtvZW7N27T9i7jVt2YtZ512DU2GkKRAhIUEZTFNfRSIYd82L8naXGiQRiUeZsU+jsbEb9nhW4+LyZWLJ0CWwWO5qaG7Hitddw90fvkiZs5rTeUJ4VHnZvNCEA9blDPagNxI0c91s9SAgOfTYLbpiYjmKfQ2emh/IxJ/UaCsyz3Tbke+0Ix9vf0s1R0jIpsUxEYcZMTCy8DkUZs2G3saz65Fg1AQjhqFDU2v9AHyy7NT70+y34x/L9cNgdyC7pxOQlNZiZeSWKXZORREwxR4kkth9sRU6mD5lpBH5Gnl4filEmqKsZOKGzhwPNlNr8QYSjCQEFebk+uN1szKRFiKqKwQwK+kscjZy7ARL43GigQIDAL4LK5S/tRk9PRNiH070pJjEpE3tOQbrycHDYpe3zvBklUjGxa1c9bMkAPnxdDnxpNgHTK7ZYsK8miWBPCIcONOOCBaX45G1z4XKxSoQxZoVHvCj6WQRe030dNfjoyz9Eh+ErQm2HI57C0o1NuKCyE+lWwJeRiVFf/U8cypiMh5Yn0BNRYneyFvKYEqwZDSnjqSQummTBrfPDyGj+Deyd6xVAMMa7vnFcUjYpWAqvhLX4FljsavF7rO2sBQgsL/v5z3/eBxCOZbWsB+K+/KhRj272pNeAYbCadDIIGiCc7qA8U/fHoOBq+EQMAu1J63qiWFkXwubmMDoj7ObWny8ceH4KpKeQ4VTU4nCs1viZfDAXFnpw/fgMJBIDAAKldYkE3M4cjMtbgvLcS5HuLh5ycybzOTGmVq1aJUwWUwxMLTDFQIDANICZIegTDholj/xde3MQNGgAOlgsKj2Conf37d2H//neD9HT04W8vBx4fT7E4zEcqjyMWNo4ZI85R8Rg0UAHYl01GF+chhuvfx8uu+wyjCoZ1ed+pwCCkX/lSWmholmQIA2a1MT/3HPP4+WXX0ZVdR1aO0OycnR5slE0ehLyCrhfo/mTkc8lGCRQiMeViVKcrnVJlo3Sk4QudjHUHXgTmZZG3HjDB1BQUIRwOIQVK1Zi0uRJ+OIXvoC8vNwhPyKMxYZADK/UBLG5KYzu2PFjURbGSIlQcThjMZpIYlGxF9dUZCCVaseaQ/ejuWebrNh5XSjiTHPlC3tVnrsEGZ5RApZOZeO96goTFFngMwyS9H5oAPTo37bh8ad2w+OxoWDOHsyZl4dZ3uthtziVfTaNj2wW7DviFyfYglyfzERK06rgippwVE5KPcHKmyAQimLV5iOoPNIhEzpNmLIyPH1mR1KpYDAKyixJl0aq9ysNQn+KQbQi/DzDWGnf3gZs31YnTZ1OJDY+lWsnUNhorpaVlwaX16EEfnYbctKc6Pb3orMriPdf5MOC2WlSQdHUnsKy160IhJLo7urFoQONGF+eg299ZhF8mS4B41wmUbBo1iLwvq+t34NPrPgJEmKzq/qgJKwWFLeEcPPKWoz292LEBReg4BNfw0Nr7NhaDWmF3QfitWzSkFFQhJrpSeHeS+2Y5VsDW8MfYIMykpITMfKIoungCiBzLiyj74XFmf3uBAhUj//yl7/EDTfc0McgcMVBM5mBq/2BrIAGDZwodImZCMBM9eikibk/9nngytC8ojvVADxb3sfrcDyAIELEeBK72sKiNajsZG2H4RZ5AtGFWIcPY2pBA4QLiz348FR2uPRjY9WPUd25BhaLA6lkAiN8EzF15E0oyqAXPRH0ya3U9H3kdVq5cqUwWQQIjBmyWfw+ECDomDQDBS0c1LoPc7mjrGbsdtkXv3RfjJdeWo7fPPYYsjIzJL0gpb3NTThY0wHf6Avgyxmp8rhWK6LdLeiseh0j0uK4+2Mfwyc/8QmJZZnzU6qMrA8P9Otrxb9DBqK+bgsp/PGJP+I//uM+hFNpmHX+NcjKzoPT6YaFXvFGraMCfKoMQtwUKVAUczeDRYjFECFAjybAFU+3vx3+Q2tx8XnTMGf+fElT7N69F/X1Dfjud/9LSh9PdG/4meF4EjtawnjxCGORluiqRGwo7BePb7hqjBhV4UQKS8q8uGUimy35hUGo79oMm80p402etwJTim5AcdYCw0L51GJRTRwp9ESU/iptAEBgPv0vL+7Bjx/bhowRIZRduA0Xjr4OpZ4ZSCAmOgC+n6LCxrYgqpsCkmYQIaAWu+rA5+996F4J+CqPtGPN5ir09kbl9QQEOVlecTIUi2XDyEgxChwrlNUyj5XAQYtHOXwo11kDLNhYHZbEylf3gSzIcLAH+rR05VpWjg9pWR4p2RXb/N4ogt0RTB3vxLVL06UnhcvtwMo3kth1hDx/Cl1dIdQcbsak8lx867OL4c3g/VUpO13RoD+H5Y0vHtmIL6/6BSzS2MmoMlKFBnjPm824fFM9Jn3uK4gvuAJf/984ovSi0AwfMYVRwUj3UxFYi+4HuHmhHddMqoWr4WHYovUGmOr3hRBQl4oj6R0L69ivweIqeHcCBNaf/+IXv3gLQKBIUQ/GA4WK5oFdP1BaLa4rF8wGNvy3adOmCW387wIQNNNC1mQwBoEPTEsojnX1IayuC6E1nOgTF50JAEgm21QKBAi3T86CwxpHVftr2N7wJ0QTIbCN7qTCa6Su/FhudEM9D34WLY8Zh0wxDAQI3M+xYtD8GRo0DIxFglZ+EThwi8ai+NMf/4pt27ehtLQYPp9XcvaV+/ehOZiD7IqFsFmSCHc1IBZoRHmBD/PnTMaiRYsxZ85cjBkzuk+oaE4x8J5KxZN5buLfOMBxtWEBerq78fAjj+Dnv3wMJePPw9hp58Fi5M05uWgRm8IKqtSRKygBCnQzZUVDTOkQtGAxEo2iaf9GjM6J4b1Ll8Dj86ChvgEbN7K/xTdxySUXH9c4ifttDsaxlrFYH0JbOKnqx09F3T7Um34Sr+O16I0ncWmpF7dMyoTTFkd1+0psq2csdqM0eyEmF14nfhu2YzgjnsTHyTwTZAonlUL6AA0CUwf/XH0I3/zpBhROP4KpC+JYnPcROG0eVe5naAy4wozEEnhzfwtG5mfA61EraYll/VOfAJyMA1BV243X1h8xqheARDQuE5Yvy4PMLI94IahOjgo40DaZZY2SYmAKwcwgmIyPpDqCNHkyhfVrD6LTH1RWysOk/JZapkQSXq8LOQUZhlg3iVgkCUcigluuSUdBrjqXtoAT/9yQQqhXMWx+fxB1R1oxb3oR7vvE+bB5bbJQZ6rN53TA5+w/bgKEZyrX4j/W/ApwepSQ2GBmmDbICsbxoRcP4vqPfx21496D7z5LEXA/gjf0opJiUCJkpZ1JJC147zQrbp/XirSmh2EPH1YAoe+5NpYD7NfgHgXLuG/A4ip8dwIEqsfJINx4441HMQgsTeQkr9GgmU0wU74aIJivjvm12hehtLRUatv/nTQIx0sxtPbG8cSeLmxqCssDxDrmYXpeT2psNIM/AoQLij24Y3IWXPSnSMURiXVLQyGazFBrcDoGGcbEihUrJNXFMkcCBKYY+J1MFlMHjCMddycCrBpQaMaLv/NeKN1CDJWVh/DTBx9EPBaTRlpkD8K9QWzfVYlo2nRklUxAtKcBnVUbkGaP4Ktf+SJuvPEmo+zRehTIJUAQBsFYCUqzOBNGEFZSNyIzVjjtHe349re/jb/943lMnHsFikZPRSIeU74tusSXPvCGJ4LoLnSqIUmQQJGikWKIx2TF01Z/CJbOXVh68fkoKC5CMBjC6jXrcOWVV+ALn/uspGsG23jcBKqP7+nE1taIYRl8ZtmZ89L2xpJ4b6kXH5qUCa+D9yCOcKxTPCRovmW3eU5aa3C8ByMciyNEutnlOAooiZPihhp8/aGXUL50MxZVXISJ3suMsk6jDFac+5RREV0Q2U+AWgKtbhN6WrIKGiqoe71i/WHsq2wFTZBSnBfJIqSSsHtc8Ppc0lBJShy1UJHsgVFuqsSJ6t8IGKSk0WAQlEMixxgbmpu78MYWCvpI2p+YHTqlwYOTLJs3OawoKskWZoMMUyySwPnTgQvmuMCUEbUJK7Y6sOcwn23l/eFvC6ClwY/L31OBz9w+FwmrSnVy8nbYbMhw95edEiA8e3Advrb6l7AQIBieO2RiBKQ47Ji2qwXfP/8jCE66BN/4R0xZWxvGTnIbJMujrZVTSFrYDjuFq2bbcPOsFngaHoQ9UiXsTv8ArWmHJFLuMmDcfbC+mwECbWeZYuAETiU36VNdzshBlSsvfulc78BJfuCArf9dpyB0FQNX0uZB+1SD72x5HyelwRgEjg07W3rxk61+oU7PNHCgQZ8ZIEiZ5TBtjIlXX31VgKrWIOgUAz/SnMJiPJorGswlh2amYeChauaK1OqatRvwve//ACNHFmJkUaEAEaYXtu1tgqPoHHiycmVwTYa7EGzei3xfBFdfsUR6apSXlxuWzGoyGAiQRLtorDSOIrkNACHPBFXbNdX4j/vuw4rVmzBh3hUoKp6gykTVElMmavVKoR+UaZLhsBgjQBAmQWkQYskEujva0H1kAy6YPxEVE8cL27Buw0YBQI889CAyMwd3fOPrtjT14ufb/YjSMngIpi/DFAbH3O1gAGG4j4HXtyucQLrbDqepBp+T2ObtLfh/f/gdRp67B0sKP4k83xjEkjHlk9Fn/qYYmOb2ABraQigppHai3yeoHxyo2vpQbxTLVh1AS2tAJnmq8VkjK28xdAVp6S54PRThsrJJNVui9bLolQQYqFy/6nzbDxCIDqhDkJSR1Yo9uxtQW9MhFQ2nA+APdi9kYYkURpbkwONzirVyp9WOqxdZML0wLqChqsWBVzZZEArFaBUms3Vbcze62ntw5/XTcevV00SYy2oafemyPC7DYl49E6/WvIlPr3gIKZvSmxylx7JY4ArH8PX0eTj3glvxn88Bzd1WuAwQT0GjvMeoVabfCX+kROGei2y4sGQ37PW/gj3RBkufmZTBHgjoTyCZNgWWsV+EzZn37mQQ2NHu17/+tTAIeoU/0M9e18pqQRgHJVK2usveYKzAwLIyihQJEMy54+F+yM+E/R8LIFR2hPHI9k40h+JiA3pKZiXDeII6xaAZhOEECIwJAgTGoa5i0DFI/Yq2SWYaQMegThno6prBQOtggx8H0hdffAkPPvwzTJ8+SQSKTocLhw4cwJ6qXnjKFsDp8QqbaHe4ZUANtO5DpHE75s+eJAZEixdfAJdLtdbWGgQFqlSuVC82dGWb+TYpt0QlTNuzZzfuvfde7D3UiBnnfxCZ2QWixFfrSl0+qVZWojlJ0VFR2S9HjT4NZBLIKISCAbQc2oRppR7MnTdHyuT27auU1dDPf/7wMU2TCBD2dkQEIHQwzcVYPJOoLGPQH8ggDGPoy655zXsiMeljQKGi3kjTV1a349svfQ9wxjC290ZMn1YIn9elNCnGpEPXTU7IvF87D3agaESaOB7qWUy0brzFRhfIYDiO5asPoEkAgq6hU+bESruggIQvzQkXuzoalQoKHBgpB75GTJP6yxxVyot5d8OIyWaVlfzuXbXo8quW59oz4XReUz6PdPckQKAWgeCzKj0T7xvXi8vKQwjEXXh2jRXtncrpsqsjIBUO1F5EQxF89o55uOrS8cIeBGJx5dUoVtkuGS/l11QSO1oP466XfoCeBHts9Ds66nMhtJhsz8IPL/08dhzOwm/XKm0GyxZ0Gk+eXdIK1EnEUphUAnzqYmBk+O9wtD8vqRxFO2hrPwXaBSDkXgxr6UdgdRzf2vysrWIgQCCDcNNNN0mKQacU9GpMlLJ2uwgN+aXLyDQ7QLCg2QWtIjfngvXATY97JexS1Nu7fdPX51gaBA546xtD+GdVAI0BJYgSK9Yz5Nq80wDhlVdeEYBABoHXzAwkGYO6t4eOQW08pQGCrKRjMUkj8L0DRYx6tc99PffCP/Hr3zyKuXNmIDMrS+qwt27eiqpOH9LK5sJu1IdTEyB0rsOBWNCP7vo3UJyVwG233IRrrr0OpaNK1VQv2gP13QwK+DNXdXpVo4cXSXlKyiCB1atX4xvf/E/UtsYwed7lSM/Ikb9L+1xDuyBtZ0XopayWyRhQg5AggyBsQhLRSARNR7ZgpLsL55+/EHaHU5o3tbZ14OEHf4KJkyYeU4cQiiWxqjaIV2uDaAyegbE4SIphuMcPxj9Fm7FkCmlOgibdtZP9JurwnVfuR6J5DHz+czB2bDomTSjsq5DhhKxXvKyEOFzXJX4mWRnuvlyUPOdGOSRjjD+v2nAYBw61KlM1mbA4Jqjy2JR0hVTprDSfC06X0WdAujqq1JRy+VMxq8yR1Ou56c/Qf+ezUlvVjra2gKzu9fOhxy3z9dV+HgNTfMe7B9wPm4vl5achvygT7V4f/E4PFhQG8aFpIby2w47125NShUGA29bQiWhvVMSMbqcN//X5CzB/+kgxCuuOKu0A0wzZbjZiUteLn1HX04q7l/0AB4Jt6hwHbHyNNZXEXVPfh+vLL8OTa1NYvZ/2ycq9UfgA0WewgVQKxTnA7YtsmJFzCO6mX8MZrzGxBwZHIQUM6nlMldwGW+FVsJzAEO6sBQisP//Nb34jAIEMgloJGdSL6btcaBNYIFDQg/ZgAkWdjtADtWYQhvvBPlP2fyKAwONkSdnhriherg5gW0tE0g3mh/pED6DRgXiYTpl5b+CCEg/umJKlnByHaWOMLF++XOJQA4S+FduAWGSs6bgztxrXqQbtj2AGDOZUF1XfTz/7PP70p79g4cI58KalIR4NY82qDWhJFSO9eHr/AEsaV1ZeBCguIBlFZ91OJDoP4L0XzsfHPnY3Zs2aLQ2X+ngBw45ZH790lzV+OYr+lNWO6lnx/HPPS7oh4RyJiXMvE68FGEwCV6TJFKlPBXqk5JEgQRwVVetrmmtRW9F8eBsy4rU47/z58Hi96OrqlnLKn/z4R5g9W3WrPNZGE6SqzgiWVQexrSWMCKlWw43vRLed13c4Y5ETJDtHUoNwy6Qs0SC8ExvBWCCeECc/UvrcOCnsbtuOB1Y8BFfVpXDEipA3woW5M0YJY8DNqIRTpYtWK7qDERyq60RBbrqxWledOWvqO1HX0IXiwkyMr8jDjj1N2PRmjYADyXmLOY9RBmmU2PFaUz/AqgaWKuqqBu13oNMNmnEwLzwUOBAfR9jsCoC2twXQWN+JUCCimAqmLxx2MWeSNAVbRjvsUlIb6FEW5WajsGPdBwUQksjIciN3cgl62PMAFozLjWFpUReeWWtDZzd1NxaJ4/amLpl3QoEo8nO9+Ml9l2B0cZbEPD0p5BkgQJBOjf16rUCsF19f/SieOrwObpfSoehGayI85D1LJFDoScc35t+Gsb6JeOGNFLZUpeAPqZvFIcZtB0bnAVfNsaI0px2Wpj+jOLZBpTNk0WZAPjFPECMUJOj3Uv5F2LLmnLBk9KwFCFzBPProo0cBBPPgrIGBBg7mwVYDBj1g87s2qdF5YhnAYjEBH8z1/jtpEHiu1HQczweBA2t7bxyvN/RiTUMI9UexCYM/ftwvqTejnHdYxkql5iVA8OK2yZnDDhDoDfDYY49JioEMghpodb2ymloVpa88BTQTpd0UNbOgY1BraHRVTZ+xEoC///1pPPvsc1i4YJ5MpKGebryyYg067OVIL5porKZUy3LtVS9lZEZHvHBPKwKNOzAyM4Y7brsFN918M3Jyc1Wfe8NASVck9LEKJhG0BgyKWkghGOjBH594Aj9+8BHY0seiYvqFYu+cQkIGI32+4krHUkdJL/A7xZsKJBA0tNTth6NnPxbOnyZxF+wNoXL/QfzgBz/A4sWLTmj3TYq2vTeBjY0hvFYXQmMgIRazzHMfc1u81ZgAACAASURBVCIQNiQlbYSNuzQwE/y245P7jSZSuKTUi5snvnMAQSasqGTH+/wQ2HdhefUzeHbLGth3Xw2b0wKPx44Z04qRk8MUqnLLVFOKorz5/gNVfukySMMgpotq6zuwftMRdHeHkZebhgvPr0BXdy9Wbzwiq1mVjjB8ukX02M9EqQnaIiZCTqdhwSzx2e+JIGykAfBUuaPy6NDpKwUcFGAIBiNolBV8HJk5XmRkeQWECCumnjwBNA01HQh0q7SE+fl86w1WaTH2DRk7Lh2p8aMRTdpgc9iQYU8gs6UFDW0KGHDypbtid2u3HC+vx+wphfivzy7CCLmeSfGkYP8Z6Y3hcYkmRBOtNB772/7VuG/NLwGWC5tKiIQdMNIOtE8v9uXhzilLcEHhHLR1enCwGQj0poTFGJkLlOcnUNN5CPsOv4ilmdtR7ulvNSBX32AO1FwYQzJtutIfuOgzcnxW/F0HELSoi970NTU10umREx1XbXolYqaj9EA9cHWnB2qqqE+37/fbHnmGeQdDAQgq2CA2tvs6wmJQs6stimiS4sXBUw58UPiIXlTqRRah73BsxvNQlm7H9BEUBg3fqo2xdiyAYE5ldXV1CXggGDheDGp2S3/XA5qO6Sf++CSeeeZZnLtwPrxeH7o6/Fj20gr4nRVIK5qguvKKQlxRyxbmew3FN8v/7HYHktFedNbvhDPWgCuXLMZtt92CyVOmweWicY+ifDkIJ9jx2ugs2we8jQlEqh3Ek1mVP7Lt+i9/9SiKxl+I0gnnCIsgjoqGaZI4K4rtMhkEBQpErBiPSeqhrekQUu07cc6sCcjIzEIkEsbevftx//33Y+nSJUN6/lQsJrGvnWxCAPv8UaHHjyWk5fFR9HX+SA+yPbajRWKnMS5570ZnODEtz6CYT+O+j4d+CMZYzcBeAFy5doY78OiOHyPYnoamtefC6onIZFVYwDRDEVyugc8jtQhAu78X/p4YMtI9OHS4FTv3NqDT36syCbCguCgTLqcDR2rajcmXt18DBHWENoddFq/SJMsoqaVToZQ/2o0UgyFW7PM/MNodK9BiVKf0iWDV4ph/JwBgPDlZRsj909ZcGBMDjHMh0xqAv62n3/TDSGsMvH5i6JUERhVasfSiTGzpLUZ31AG3xwZLawDddX5VsiupDSDYHUKoKyTjYDgSx41XTMLHb54Dn0d1VCVAoGCapZM53qMZBH52pb8en3vtZ9jdUS1ln+bNrAul1iHL4cN5xdNwbuFEjMsslgZ3BHJNXS14o/4Ath3ahKsL6nHNKAt8gqj61MUGQFDPK69PsvQjsNFJcQiltWctQKCDHVduN998M7KyaEKiUJe45Ble+OzESKMjahT0FxkBAgYO1nqlp/ULgk4lUIlwlW6BFs4ED4Mpv9+JZ/1Yn6Fp39OtitCUMM/7RE6K+tjYva+tNy6+CFKP3svSHsMx3HSAuhfDl+fnoqLP/354riInOgEqw7N72Suv1UsvvSRxqLs58u86dcX4aWlpwXPPPYf8/HwBqyyDZLxS18I41UBUX3fNZOk0hAauBKpP/vkveOaZ5yRX73F74G9vx/PPvwy/owJpIyeK0IytqtnylYpwLs3sygZP5XrB+nMFIIL+OnQ37MCUsbm49cbr8L4rrsCIEflGLwbNgKiLp1c90vhOM5ZGCoX7ZOtpdrT8+7Mvo3jSxSgoGS+No5QJo6FBMCoZErppk3R6JJOQRHvTEcSat2He9HJkZWcjEoli/4FK3P/d+/G+y5YOCSDo28xyPvHpaOjFqvogWkNJOMQ46uhYUL0YrPjUjGyUZ/H5Hr5AeSdiceDRcyzsjat23F6nHTXdh/Cr7T/C3Kz34s2Xi9AW7BbhYHamFyXFWcjJ7k83yeRrXBCOp3WtIZnYV6zYh5a2HqHuJf6ND2U8JWJxMTSSB46unxI4gI3lli6ySkrvohIPTPsqYMAVP9MCokHQokZj7BCWvC9l0V/CevS9UjdO6gUUIpXj6mtDnkoiGktKKoLal0hvDPEIUwT9TqJq7gCi8SQKRwBXXeLEmDInXjxShvaoG954FKm2HnT4w7Iv3Vuls7kbyWgC7GfK6/3Vjy3E+y6sENdElWJQDAIBco6RYjAPSOF4FH/c+xp+uOXPiKSSfeeq76VmEeT8pCKCgM+DbKcPLptdPsPf7kdnRweuLEzhmzPtyKUMRMNdrSw2BEapZAxx72RYK74Au5sGSScO+rMWIDDFwIGZGoSBAIE0Jf0QKB7jxlQBB1rWjfPfOPnR/Ijv04O1pnjNOgYGEVvn6mZNwzeEDH3PMkYbA7X62fjlqETx0Pc32MDCoOB1Gkovhr5gBoTW3N4WwfLqICr9UQlTmoroMBzYzXGoR8l7QkFpd3e3vIX3zwzwhrqf0/06Xqdly5bhd7/7nQAEc1MvDiKMt46ODvl3/s4YIyjg8dManGBB9xHhe3UMqgGrPz3BSd3tduEfTz2D5a+swEUXnA+3x4uO1jb84+kX0GEfA1/RRFVmqAGCjM4GQOCPJmqWUyX3GY8G0dm4D95UO66+/ALcdOMNmDBhApxO7T3QP4BoEWPfd6VY7AMMNdXV+M53/hvPv7wG42Zfgcz8UiTjRpdHDQ6Y/zQYBBFp0n45kYS/5bAAhJlTypCRmSmVRkeqqvG9730fS5dcelIAQQ/2NCjaSafPIwFpIsZcsGjE9MTHNJqdzZrYWZQ16qc7Ov71+yP4CsYSkmbb3vo6/rz3UVxXcQcObMrFuu01KBqZhUnj8uFkdQHzfgoZqFoU4zrxmrV3R9DaGcaqlfvh7+xVaYRUCllZHllRs8FTIsK0UkroeAGFcfoJ2GBzO6T0kX9Tu1TKei3M062ixYbZqjo8Mj1Egx+lPeg/nj4fADF1UnSWoTrT2KBfhyYVNIbGxKik4HnGo3E01/pBoKoZOsY0+4ZkpCdx6WJg5iSmKWxY01SB5nYn7J0BpOIptHSE0BuOyyo8Go6iV3VOEhajMD8N3/3ihRg/OkeuHeO6KxxTYAVJ5AgTfTSbSaBU292Kb657HK/WbYXddnQTqv60tq4KMcqG5blLIRVLINEdRX4qiR/MseM9I5KwaTMTbXBiiGwolExY3MDoT8Keez4sQ+wQelYDBDIELHMcCBA4MPOrvr5eLG+rqqrkKxAIHMUGcJLhREhWgYM1V3jcF1fOujSNK78zyQdBADqA5rAVOa4UfHYlGjydG4OCk9jJAATj0Rd7UpZArqwNYkVNCD2xlJgVCW09oN3zUI6ZD4nf78cLL7yAffv2yX7obvme97xH7te/snpCA4THH3+8DyBojQH/jfHFlf+ePXtQW1sr8aidPkUnYLXKa3idGXeMQQJXzXIRMGhWjGVrTz3zLNauWY8lSy4WDYK/rQ1//dvTaE6Ngq9wopQeyMqMbahEMKY654noTBgEJTJXVQ68J1bEYiG01exBuPlNzJ4xAffd9/+waPEiA9Spcsg+MyVVsaUqHLjiMaha7fewauVKfPJTn0Qgnobxc6+ENy2nb7XFFTvvvyoxNoCCQQ/7mw4i0bYd0yaWwuPzIRQKo6W1BQ888CNcfNFFJ9QgHCuOqORnLJLZeulIAL0JwGNMhOI2+C4HCJw1WVbKuXtz4zL888hTuH3Kp9BelYs/Pr8bmVleTJlYKFUKnOiFtFeL/D5anwv4SDyFI7VdWLPmoAAEBlL+iDTMmV2K6uoO7DnQokAFuzTSeps6ILIXrM+nR4XDhtxsD3IyvOgJhdHa0asmdGpAbFaMyKEjqAX+7rDoh0hQMDYV4aDMm2QzWiCb1JSm1JBiEOQ85DvjU7ETTD+wMyWBDWO2sd6PjqYusW3mnuNxwOeN48Jzo5gxhZ+vulDuaB6L6iMuJHsjsrpv6wyhOxBDLBJFyB9UoMdqQSQax5JFY/Dluxcizas6g0bj9KNQJYx81rK9LnkGB240TVpXvxv3rXsMNT0tsNkcfS/pY+4M2k5VZfCapmBJJJGMRGHpjuLmEiu+MDmFHDG0MOgQg02RayXPXQyJouthL74BNgfZoqFt7zqAoFGXzuNygOagtHfvXtB9UfdqMF8eEXKxA5rXKxMjB+uysjIxlyFA0GWOZ4JQUTMITzdYEU5a8P6iFDLtKSlrOp3b/2fvPMDsqqo9/r915t7pJclk0kNCGkkgtCACKtJUUBEroIg8n/Vhx66ISrVLs4sUQRRUEAUpAiK9JYT0TjKZzGT63H7v+37rnD25DJNMOkmcwzdM5t5T9tl77bX+q2+vBaH42exROjw+tSGhu1f1aEWn1ynOhEtA+trcOk2pLd2m4fb09Jj5ur29XRMmTDBtEq0cDfyss86ytXq1QMJgAIEXdDEsjBGr1rx58/Tkk0+KGJlitxX/5t04H8AASOCHbqIjRjRYXvufbr9d9973gM54x9tUXlamjvY23fj7W7Wqu17lo2YoGAp5EdzyosSNyfK39V3wAAL/K+TSyvS2KwVDyrSroiSriWOHacaMaXrb296mgw8+xOfHXn1+qi66w1cyzYxJbMULC17Q8mVLtXjJUi1evFwP/vsRJbMhjZo0VyPG0eXRy82n5CydHWGIFo9gQCFrgmTj2gUKdCzQ9APHmfWiu6dbnZ3d+slPf6xjjxk8SHFrhMT4uzN5PdOc1D9X9WhRW9py8dlHZZGgPj2nVgfWlOyXFgQD7YWC9U25e8XtemTd3frw7M8qkhyhq258Wp2JrMaMqdGEcXVejn3BAwhGl4YSvNRu6HzVuk49/tRqraYV9IQ6zTxotBKptJ59dq3isajGjKlWU3OXXlrX4RsJAqqsLFVNdZnqa+NWkZHz6Oa5bNUmLVy20dpCN46o0uiRlQYEmjZ2afmqTUpniGHxBCufo3hHiZEwNwA5BV78g3NjeO/ZZ5zoS5WMREK2b7y9sLndcUtThzpaugycAEhKS3M66vBezZmZVpSOk6GgujrDen7pBCXTFdbJFKW9pSOhto6kVQNNdSeVp6S072r86sdfqxOPmeAVi7JU05y6KHudLygWDqmqdMstqnsySd2x7FH9+Ok/aW1vi4EEzxHTD1D4XhRzo1BHpDutWdGcLj8kqKllOYWcabkIHFgbdlIha49VeMzZCpYO367Knfs0QMB0S7tnl+boNoT7zUKhofE92hoa3PPPP69ly5YZcyOKmgNwAMNKJpN9n02ePFmnnXaaSHPEGrHXHH5RkxtWF/RAc0izqvN632hpVJzGMK5Izc6NlrnYEQvCK9ExtfIz+tuKHv19ZbdFdL9mVEwfnlmtuthmpLy10bJmH/nIRyyNECsCoO3Nb36zbr75Zp166qmaM2fODmuYOzdLXgwCLobrrruur1AS9yzOWnB/41oA1EBzWEIef/xxC6LFnO6CEPu7t6BLYmh4T4DDH//4J91519/1wQ++XzWV1erp6dJNN9+qeWukirEHe9qHaVlhYUG0TAZnOQh4WlGys1kbVzyqVMc6hYMZfeIjH9app75ZY8eNN3fHZveCp8V5RlyXS+/3bPCDF5995hmd/6nztXz1RgXiI1USr1GsvFol8QpFSysUKSnz/NQERvlVFTG9ot1hpvXSHTPauPI5RRPLdOAB40wD3djSquqaWv3y5z/T5MmTtik9basgwQcpTT1Z3b6sUw+sTag3ndexo+P62Oxq61uwPx9kjdyx9M96YeOT+sCs/1FdZIx+f+cLevDpl1RXV67xY2s0coRXMRGBgvXJtG3zfXu1DBKJnJatbdPG5i5NmFCneFmpNjR3qrcnrYaGSlWWRfX8i02at6DJ/OVl8agOP3SshtdX+MqB54u36P9sziov1lTGLDjS4gW8nkfq6EhYU6ZNnb1qa09a2+WG+nKVl0XNJUVXSoRuU0u38pZeHVDAr6fAvb1aCh4g6KuD4PJTAgGlUhlteqnNa0meDyoayWvu4Zs0Z3ZCkQjWClKEw7r/oQp19I7VsBHl1pGUvdnU2qPW9oQK2Zz1m6AwUjqdU8OIMl1xwfGaNK7WyIj36U5l1OPTfXVpxOJAtnQABRKZlIGEyx67Uc2pLgso9mqVeMjHdzL4gYZ55ZJpBToy+sq0gM49oKCIsyIXg4O8V+q9UPdGhcacqWDpiO1WpvZJgMCgiUEAIBCDAOMd6HDBh86MC5MlHgFNDs3UAQRMufwbLRXttKWlxUy9Bx100MssCK+WpurebbONoKAbVxX0z2ZPI58YD+hto6QZVZ5Trq+wzQ74VSHIHXUxDLQG5iJI5axeQipf0MH1UY2Ik1a6bYNjPb7+9a9bIBwuorlz5+r000/XrbfeauBw1qxZOy1AdlQ4ME933XWXrr/+ep133nkvi0HoD1b5G5CAdQDBDw0SwAhQBSRwQIcWeNTWZnSItQtwe/zxx5t14aGH/q2bbr5ZZ5zxdo0dPcY08Dv+eqf+8chylYw6VCWxuG+SpaytF3BrP8WR4NmUupqXqH3dfGW61unYY47Wu979bp144olqHDnSZ0q+I5OW0KZ9vXyGvDiEgjra23XNNVfrl9f/WTUTjlNZRW1fSppFkfsBin3/xpKABcFqImBByCmTTqplxVOqyjdp7LiR9nnThma944x36lvf/Lq593bVgQDqTEOLSXWlc5o9rESjK0tcp+td9Zi97j7pXEq/f/FXWt+1UR+Y+b+qjw3Tsws26Ne3PW9xKrFYRMOGVahheKV1Kkyn81qxfKO1bB47us6CXyGBnmRe3YmsATznjnAWBnjT/BfXa9myFqs9EI4EDSA0NlSZ9u3SKKEJpxhDRwh7E4J+Uy/L77dUQxS2rNFxJOIVBPL4uey7Ves6rNSxxTj5MQabwTk06/IA+up7WgZNW3OHMkm6z1KTIas5h7Ro5sxOS0EEUGezET3/fL2ef6FMI0fVq6GxygITGeP65m5tbOtVqiNhGjxP8LIXpusj75tj2Qsc0LAFKFrWFu6FSF89iq2BhJ50Uvevfla/nXeXntm4VFkzoLhgyoBX7ZI9RUBoT1pHxQq6+JCAJpbk+jqwenyH8eaVC9dJdccrNOIkz3KwlbTfLY1rnwUIZDHg+y2OQdgaSIApAxBc69ziMswwqmLND/MvP3zughT3BveCB089H+H1q/O6b4OXqpWhYEZAet/4oI4fTrqXlUPfqcjsnXEx9F8HD9R6+eYu6GhbuSgEumTJEn372982QED8wYoVKwwcfvOb39T48eO3GxVv67MHO4+x/e1vfzOA4EotOzrqfy3nckCHCD2sUo4G+9OWC8oERPT29nrBi4Ggli1fpiuv+pmOf8NxOnj2LBPeDz/4L/3uDw8oP3yOYhVk83juMoKsLF/cfvslb/1sBrT0VG+H2tY8rY51LygWLVg64Yc//D867NDDbGxWu4Boc1icD+Zgzv5reJpmSAZmLrzwQv3hjkc14eA3eyDHwIEXTOvSzQx4EnvgZxrBRPk72duh1qWPqKEiofphdepJJJROZXXpZZfptFPfvFvAn43JE3H7rWuhmP4SmV7dsOAarexYro8cfIGGxRqt8+J1t83TotVtKomh3QZUWxVXbWVMoUhAS5ZuVC6V1ZSpDRo2vEKY6zPZgroSOeu/QJGrnu6UWjZ2qaMzqfHj61RZGVPzxk4tW9GiSDSsaQeOsOqJBg76Am+9yoJO0fVCBjaDSVd50MW+eMLOK9ntziOGZfW6TnuuV27Z8To/gMJ/+ZcB20BAye6Eujf1KBAIKxLNau6RqzV9apuCAeITcM8FNX/eCM2b16BkMqfxE+rVMKraghBxi21o6dXapg4l23utdwW0XB6P6LIL3qBZU4fbPvNcOgCEjG0A0kyts+Y2KkRUG13Rtl43LbxPf3rxXrVkexQMRxTCTEIeEpa3VEa16YwumRHQCcPzilhOsd8BJQ+ACylXfpCCDW9XuHqWgqHSHRYG+zRAwLQLQNiSBcFtEsecHfN2AWL87dLLtsTQAQh7lYvBH+h1K3O6b0NBUUqZgsQLBGBJR9WHdProoCooBTqYhNvC9xD5rnAx7ODjX3YZwX0AQdp744+nic9RRx1lriLWhmZdW+r4tyuev7V7OIBwww03DGhBGIimXBAjgtRSDkMhnwF6AXyORp1mxjP4HEsAJYi//8Mfa84hB+uEN77BAMYLC+br6mtvVGtggsqHj+1rbEPlRQvw8oskWZyNAwpOM6GgTsc6tW9YpGTbKjUOq9QbTzheZ7zjHZo1a7bKK8pM0DuVzxuT4zXO6SstXviiLvzWRXrsxQ6NnHKMAub39ISwpxwSc+A1wXGBiqRB4v/tbl+nnhUPalR9TKXlZerq7NKBUw7SFZdfqmnTDnzVwN/upp09ef9Etlc3vHCtVrQv0f/M/oxqS8cJSPDUvPX6wz2LlbeWy57vnEIAOJRwBaHJYxkvLY2aoI+Vl1hzoZfWdxqAwLyeSefMZTBxQp0OmTPWjAOpVNanQ7/Utq/ZeJYCv5mXxbZspg/jxQYGXGqsDwis8ZMHKhxNWTXHdZ3q7kn3dazcbJH0zF3c52UlUAJSqjetrtaEKip6dfCclZo0aZMJXtwKuXxEy5aM1MKFI5VORyzOYOz4Oo0aXasMFgSCG5u7tHz5RuV607YliJV46/GT9X/nHN4XnMh+pRcGLizcHTUxqjtuuRLoQHTAPLSnejS/ebnuW/2snm5epOUdTaL6YjaVVr47qXc1SBfOkMy+xpwGIyqEa1WIT1Kg6hAFKw9SqLRhm7MVtkSP+zxAwMWAMBvs8IKtioz029hboTjN8dV2MRgt+Ej6t8szure5YBYEx8KzFhwY0JH10nmTIqqJBKhpt11akouaB3RtbxbDYGuwvd9DnLfccov+8pe/GCig/8akSZN04IEHmuBramrSRz/60b4Khtt7/5093wGEG2+80SwIAEkHALZ072I6HMgq1Z/Giv8mzfPan//SXBlnvvfd9rt1U4t++L0f6+mVBVVPOEQAg1AQjcjzw6IZme7hCs+Yy8HjzKZ9Wc/nrHram9Sy6ln1ti7XmFHDddbZ79cHzj5bIxoabK5hzp5G5mlpLmXN+UgXL1qo8z/9BS3aWKrGiYeYdcDlpju3FeZkAwhWI8H796Y185RrflqjGuqtUVN3d6/OOvscff5zn1JNjVffZOjYuRmgiuKNC36mJZte1AdmfUITqqZZ4GJnZ0I3/WWBFq/pUCxO4R2vkQ+WAx+pel0eLRLP01BL4yUqLYvp2fkvqasjadkHCM9YPKKDDx6ryvJSr2WxCpYN0FdR0883MA+DyzbwCxpZCQMfMHhZCK4Etpeq6EADGjsHFQxXre1QIp31qmUa4PXTgn3/hUvH3WxFwG0RViTQpjmHPqFRjR0q5NgLHkBYtmSsXpw/Qdkce0dKJ7OaMGm4Ro2uMRCEK4YS08uXNKuQ9lqVU4nyO585VkfOHuUB2T7rAe6FgiqiYeuquaNyg7lI5zJq7mnTok1rtaBllZa2vKSNLav18bEpHVErFcL1CpSMUiE+RsH4eIXijQoEY2Y53BXHPg0Q0Cy3FoOwtQkajJG7+AW0Vsf4d8WE75J7BKTfLM/q3vU50bDNa9MeUGU4r1EleUWD0mtGhDR3RMw0gR05cDHws6PEvSPP7H8Na0QwH+4FgMCqVavMPI8VgeDAk046Sccee+x258nvirFxj+21IAz0flsbi5t756PFp3nPPf/Us889r3M+cLZGNjTY5b/99a90423/UnzCcSotrxKJZq5tLoABP6ilWJFj3he06PtpcUOYvR0/b0ZdrWvUsvpZKd2qWTOm6p3veqfFfNRU1/QFX1rhJRcZbnzZi1v5+1136gtfulCZyoNUO3KKctl0Xy66aYcGDvwgxTy1LRJqXfIvleWaVVtfq2QKk3FE3/nOd/WO099qAcZDx87PQDqX1i0v/krPbXxS75n2Ic0ZMdcEWCKT05PPr9Ptdy9WnpoZfq+IfKagXBo/vVfTGJDgsufQUGqHVamjN63589dZVUGvtLFfQrkkYmvM3xPH16mxscqzkPkGJytj5LufDCjYv/3v/fbIfdanPoUI2nHuKq9o0MZNPWqhoqOfCmluBt9tZLaHoqQuzzUW1rDh6zVt+guqrm6zugYU+crnIlq1bLyWL5modDpqqZrsu3QqowMmj9DoMbV9AGHJkg1asWyjZyVJ53Ta8ZP0ibMP85pZ+VaXzlTG+m+UBIKqpO/ELugFY2C6kFcqmxHFlTLZlKojeUVxaVANMci4KfznNcvatuiubaOrfRYgEKQIQMDE7OogbNsrb9tZzi2xt6U5MnoI+FdLM/pnU9YTBpb/GtCsyoI+OzVkRWHor47f2stv3v4Dq8yrDRA8bSGtO+64Q5jxp02bZuZ2YhAAB7iXXk33z2BBits/61u+wgHaVavX6pZb/qDXv/51mnvk4SotjenJxx7ThRddovbYVFU1TlEI64BFovuBigYQKELj5SNgNbDWyD5TpWscxWw4KPmay6S0ad1CNa98RqFCt0464Xidc845OvLII4wmnE/ZRYs7N0I6ldQfbr1ZF116pcLD5ipWVW+FkTwXqZe6ZhpqztMwu1pWq3v5AxpeVapwLKa2jk2aNnWmrrryp5o5c/puiT/YlWuyr9wrmyeL4Q96eM3dOnniO/SG8acA8WxdmtsTuvXvL2rBslZFqHropwMSpZ/P5l5WPAlpDh3icqhrqNZz81/SS2vbrZ4AIMF4jSW+BE2gjWyo1PRpI83Un8+7AGq6PHquKjQbZzlgLnFDGdwssiZYJoUFu7q4Fu83boa1G7qUTODOcIWd+pIf+5aG5xLP0DhqlaYeNE/xWFK5XEiBQtYsCKsWT9KyRZOVz5Pe6LxpAQMFB04ZoUYsCJgLggHNe3a11q5tt/E0DC/TRecfp+mT6v2OqAX10JshlbW9VVUSVmkk9KoqWLuCPvdJgAABEaRIDAIAYbAYhB2ZKAcQ9sYYBKp+/XRRSo81Z3X8sII2pAqaaRULfwAAIABJREFU3x1UPBTQV2aVakpVUJm8n/u7nQDBmYOZ070BILB2RPnPnz/f0gIxd48aNUpTp0591VwLjp5cmiNBih/60IdekcWwI3Q32DXpTFq3/el2A4FnnvkeVVdWKpVM6eKLv6s7H3xRlROPUQnNX/yUL1wM6BSeOwGgQGaDl7poRsiiLIW+fnKWKhlUordDHRtXqHP9C6oozeuE419v++2IIw4zYOIx8+J0yIJ6e3v005/8VD+69iZVjD9OJWU1yucyXkaD36GOp1v2wtIHFepaofraOiVyGaWSaX3ik+ebe6Gycut96gebp6HvN89AvpDT/av+rruW/VFT62bqfTM+rLhfLAdtf/GqNv31X8u1bmO375L0OiZm0xnlMznPDeWb0D2XQ0GV1WXWbvjJZ9ZazIGLAXC/cQeUlEQ0a/ZoxeMU/HK1CjxTgue5cA29jJIso8EAQYG6A5szsrxsGP86oyOvudjG1m5LhfS9DJsjuP1KCYUCwYhpjZ/0okaNX6FIOKtAgSJhOWVSUa1YMFXrV41RPg/A2VxT3DT2bF5Tp49UY2ON1zckX9AzT67W+vXtBmA+/J5D9N7TZqg0GvbqHmRy1t6ZMKLykrDKo14htH392KcBgsti2FMA4dU0tztCY59QM/yqRb2qCeb0gckxPbspq+8vyCiRlyZWhnTJ4XHPv+bv6+0h0uIYhL0FIDB+5/Ixmdavjvr2vN+uPHdPAwSXBfLE40/ovvsf0HnnfUjTZ0xXrLRUjzz8kL745QvVorGqGeV1drSmTcQg9PUY8WIOsDgFSWH02+R6ZXD9fgW+y8DDlZ4VItnbqZa189W25lkNr6vQ+977bitSRTExLA7OggCTR0A0N2/Q5ZdeqpvueFwVE44xfyjR194a5i0orrt5pTqW36fyUkzTpdbBcebMQ/WD739Phx02e79grruS1nbmXrh3nmr6j25Z+GvVxYbp/TM+rpEVo/py68lK+NcTa/XEwmYrl55MZPpSEfPUHXBuBGikT9JLDaNqtbapSwsXrvdSViy11gtZQNhHwmHNPniUAYQ8NVqCXraCWQ4AAJa9UAwUXCS+53LwaNDPYPCtUBTtMgtDPm8ph1R2dKmOXlgjqTOeS6G8ulUTp85X7bCNfiprUKFwTplkXKsWztL6ZdQFoPOnM8q7AEdcDwXNOmSM6usrLK2SOXjs0eVa39Sp2dOH6+sfP0ZjRnogFn5MWiNgK0bnx9JwXynpnVm3veHafRogUGq5uBfDZiG6Oa1msxnUY4LbehRbEEiN3JsO0Pn6rqTqSsOqiEbVm83pinndeq6toFReuujQMh1SGzHUuyMOKcz4uG32JoCwN81/fwvCQIWSPO3a8807QDNY3Mtg7+jxy4I2bWrVDTf8XtOnT9e5556jEr+Ox8Xfvki/ufWfqpxwnGLlNVaNLRjGUuDVlseE6rXj9YsoWawCf/lVFo2Nop/JNEmLbfH+Z6y3p32Dmlc/p2znas2cMUlnnXmm3vKWU63AkpmYfaDBHdesWaUvXPBl3ffkOtVOmOsFnuVpayOlUwm1L3tYwe6VilfElUonFY2U6zOfuUAf//iHVFnptc0eOnbNDLB2L3Wt1s+e/Z7oDHjsmJN0/Pg3Kex382Pd1q7v1J/vW6KN3WlFYxG1tye8roVYeygZTAVDH5hbTEwur/KKmGqHVerJZ9aY4LTOjD7DcSWWZ84apVgZAME33/spppaW57IYnFuhL/PFz4Dx0yO97AYyIrzfWBOsxXdbjzr6LAhOuKO551Q/apVGTVyisoousxpA2aFwXonuaq1eeIS62+uUS6eUS6c9IOxXbWTG2bPsizmHTVBFeanFPJCxcP/9iy2r4ysfO1pHzhpl/StSuZy6klkrAmfgoCRsBcn2luPlgdCvrGky2Dj3O4DAC1EMyZWudQDBMWo3YYOBheIYBADCQBHng03u7vreCoP49bXYKCWhgJ7ZmNBl89PqSQd09qSI3jO5zIBDUbHybR4O74pVhjiEweZpm2+6H57oLAhYsqj0WNysyVliLJPANzU6gOAqLe7I3Do6fPDBh/SfRx/TF77wOc0+6CADAE8//aQ+/dnPaGlzieomHOl1yLMCMF65WSLODaxY2WUCEIAOXvyKBXhZQJpnqc35hWZM6PvxA5xPBURiB5pXPaNIvl1HHDZL/3PeeTrmmGMMUHrVBTyF8onHH9VnPvdFLWurVEXjDOVp1FTIq3PtC0q+9JhXWCaQV28ioWOPOVE/+MEVmj598pD1YDfsle50l36/4Jda1DZfYysO0Fkz/lc1Ma/yHwfBzM+80KQ//mORwvES1dSXqbMjYamE0FwmkfZjEoKWtWDtvgsFDauvUiEc0r8fXW49CVypYaOCUFAHTh2hquqYlwUBUfgAAUuSIxQXhGsuKB81cC4xCdCkVwvBL7bku7UQ2Bs2dlmqpbefvNiHSCyh0ZMWqH70SisiZ+AgRF+GvLpbxuqlJYcqnSxXMJyzMVFTgMJDXg8pT7DzXCo8HjpnvEpKwzam3kRWf//7C/rQGTN19ttnKhoNWXonMQcED5dGwh44eJXdCsxDJp+3viNtmbxa0/zbU5hLgwGNKA2qPhpSKf1xtoHO9lmA8NBDD1k3x/6FkiA2AtuoQgczRLi74kjFPqGXRYgXdS9zc9YfIOwIM9+G+d+hU/o3cES/iwQKunFhp0bFA5ozIqaSaMlA1by36XlYEIYAwuBTBY3Q7hmA0L9Qkvklk0mrmOgKdFG3oNg9siXQuTVa84yoAavA+Ovf/NYKRX36/POt4mIqldT1N16niy/5iVKlU1QzmnRQHxT4Lge65lk7p75ytK7uPu/rsQzf+OtZErzct8056lBVjiCxlDpb16pj7XOqiqX1umNfo3PP/ZAOPewwoz2uy+fSuv+++/Slr31ba3uHq7xhsro3rlbnin8pVuhRMBJWJplQRXW9vvq1b+ncc89ULOZ1ktyb9tvglLD3n4Hl4KmmR/XHRdcpHi7TyRPfrsMaj/YL8HjjBwzc8/AKPfDkGpVWlKpuWJkJ/PbOhLkdUl0pqw9gkfJo3Dkvg2HcuGFav7FLTzyzZrM1yr4uaMTISo0bV7857gBhj3pu1oLN6QzgDS8t1qudYP/5hTQsdNHqIHgxCxRpamvrtUqKXuVFfKk5VY9crYZJL6q0rMf2CAHcwQA9QCJqWzdFrWunKZ+liqsDJ54bI09PkKQPEmgql6XUfEyHHDqur0X1uvUdCiQT+sy5R2rk8HL1ZuiUmTWrGcWQiDtwHSr3NDUwTViLu7N5rejO6j+bMnquLaN1ibxas3mlqCVBz4lAQCNKAjq8Lqozx8c0poyg1K2Pdr8ECDAXKiHSOQ+wwN8OKMCsKVIDsy5mQjDuYutCMUBwkfJ7K9MyNE7mQj4rBEC2QIRycYWxbSdZ3pufIYAw+JwxT/fcc48B1f4WBHc1ghywCu2QtufoEPpzgKGY7oqtDFscAcHioaCeefZZ3XnnXfqf8z6kE054o2V4dLR36PJLLtZ1N/9VpaPnqqJ+bF8dBJi6F3EOSNicquiXuPRa6MK2rZWub0pw6WUei/fqGzjmrpCyZDysX6CedfM0trFKZ73vvXrb29+mCRMPUCgcViaV0k033qALL/mx2gKNSjYvVElig81FbzZp1o1TTztD373425owfkxfHQln+Rt8FYbO2JYZYO2ae9brt89fqfZ0m8ZXHqDTp5yluhgleDcXF2rvTOrOB5bosXlNVhipoiqmqspSK7/c2ZVU56Yepa1UsWdxKuQKFmMwdmy9np63TouXbbSYF2u0BJWFA5YJUFmF0kKGleXU+rEIrsKqDwr8gGpX6dJcCgQk+p9bLwfJAhPb23sUKHjNyUoq21Q3YYmqR66172lORpwNwi+bqNSmlQerq2WsAlgSvKILXorj5rhEZZMZa58M4KDsfuPIas2YOdrLoKBgVKCgtxw9TmMbKy2NsTedtT1UXho2gGBZQbv5wOOCe7k3V1BPtqCk1RXxPpvXkdH9G9N6pjWrziytnb0W7xVhaXhpUCNjIbMgbEjktLIzp+lVYX15RoUmloe3WidnnwUIdGb8+c9/bhaE4mZNBjb9okjGMDs6TItzVeqsslwo1MesYVSuql2xKdjdhzTHbSmAs5tpY9DbO8Gys35uHuQsCICEvRUUDTohe+AE5hqA8Itf/MIsCBSWMsbZx3A90x5glT4flE02BhYMGjhwgKGYBt21zg0xEGBwgAJX2m23/1nt7V264ILPaWTDcOWzea1dvcoE7l33P6342NeoZtgYBS3dwCv17DQdy2oAGPtjNhbXl6/u9/Qw6wFs1Q8wtMp2HtN0IBrGle7tVMeGhcq1L9ehsybrXe98p05+08lqbBxl++/Kq67Uj358tTraNioWjSqTowJfRlMOnKaLv3uJTj7lREUi4b7GVXtLIOoeIKM99gjqIdy17E96aO0/LYth7qhj9foxpygWifeNAWG8bkOXbrnzRa1Y36mKmriBylhpRGVlURNGrc1d6mjtMbeE0Wk+b02fauvK9cgTq9W0odP88F74ildICVP9mLG1ipdRkAmNFleFF2zoNSLyAgMtbscX4ibGrX6GZ9ZyZbvb21Pq7EgpGu9WReMqVY1erUisR4G8JX1bloLyISVbxqnjpekGEgJBr9CXnwvhAwU/zxeyz+QNJAAeKMQ0ZepITZgwzH/Hgl4/p1FTx9eoN5O1zrkloaDKo1RJ9FOGd+MqMudd2byWdGU1vyOrF7qyWtNLt8iCyGhjejZlC0qZt9Bz49SXBHRcfVTHDYtqXDyk2mhIlLloz+T1yMaMrlzSo7eOKdHHDihX6VbMCPs0QPjZz35maVd1dXWvWB7HRJ2pF+bMD+jQAQgugmECEGDSWBf4XWwKBnzgW92bYhB2Iy3arXlX13J4CCBsebaZp3/+85+CDrEgDAQQnIAHdNFsiiZhroOj+85ZE7AuFFu4ioVk/3XgWuIOaPj0299cp3ETxuvjH/uIysriJrwXL16kyy+5RA8/uUjlY49WZX2jaXVeHQQ/m8GsCK4ZjOtC6b2vpaCZBueXw/WrH3oeB6+nglflDsbuaV4w8ERXq3o2LFQ006xj5h6s97zvvVbMCvcHBZBuuulGZdJp03zGjT9Anzr/Uzr7bBquVfZlqhTHbexuWv9vuj9CeG3nKl037yp1ZTtVFa3RiRPeqtnD5ygc3FyUCsFPKePb7l6oVU09qqyJ+66qgMorooqWRJROZLSppVtdnXTAJQKxoHFjaewU0MOPrlSHX2XRXAA+TykpjaimOq5ISUiRaMTiUbro2Ehb5nBIZeXRvnoKXlxCXxFHP8jVy1DIBLqUCC5XfOQKxarppUDwAumLABYp11ulRNNkJTaOUz7HPb0W0UX41wolWVaQX3CwgNZN7QeLuZFmHzJWdbXlluGAS+GIGcMUj1E/QRaMGIt62UG7kz+ynzoyeT3VltHfNyT15KasWpN5CyD2kkb82CFXLMp3DlqdhtKg3jKyRCeMKNGksrCifotzU1hyBf1mZY+easvqooMq1FAKsBr42GcBwiOPPKJrr712qwABQODcC/xG44I5o9HheuDv4vS5YsAAo8ZyAPgYNmzYy0yf+zNTYWMCorAekMmwOzfAvj6PzNW9996ra665Rv/7v//7CoDA+0FfzKfr/wFQcM3AiFHgb+fWcfRXDFodcLWGTf0CoBzAWLZ0mXV5nDv3KH3g7DONYdPid8XyZbr2mqt170NPq2TYwaofM8VrjW2FlDyQYPe0UrUEKPp56cYtPE3EVcDDteA1X/Jq9Nu+8fPTrX0z/1F7w1Lcssr0tqtn/XxVhjaZ++MD7z/bOqR+5zvf0Z9vv12jGifoS1/5hs44482WtVBsdRmiud23M+js+Mja+3T3ij9b1Uo6O544/jRNqTvISnS7g/VdsaZdN93xgprakqofQcCy1/4ZoYmwLy0JWevjzo6kOtp6rYsjIKGzO6VHnlytlN+NcbP08VxYHGYtsvt5bgMAwohR1Rb85wUq+nEHVvOAmIWgFO6WKlcpULNChWizD2O9hlvBUE6BbFS51rEGDjK91Z7VwEt83Hz4MQfZFMGNQQWjpODmzfLGeQQclsWimnXwWNXVxDWyoUzDauOa2BC3OINYmGyg3W81IKbgxa6srl/dq4c2ptWRLkpF9ouabZ7NlyerGWjPY3+RxseDOn10TKc2lqo24nW+ZE+/2JnWD5b16ksHlmli2ZbLQe+zAIHmPVdffbUBBBhP/8NZDjDt8m+nncFwYUCOccOgYeCOURdrdZxLaV/cDACG/d2KwLxY//BCwRohMWdDzHrrFoT7779fV111lVkQvCj+lwfYQWcAAqwHCHlAJ7+ZV+gOkOqAqwMKznTPOVgXyI6ADhHuxevhLGF8ThnqP//lTh166CE6+aQTfBovWHGp3/7657r/oWeULhmtmtEzFK+o8nym1tDGZ59OG/J5c18xG79St+cXBjDkvZQ12sm6Fr2uvoGrgMe7ZVLqXr9AyZeeUjRS0KTJk/W+973PaidcddXVGjfuAF122cVqbPTKRQ8de24G2pItum3RDVq06QVFghE1lDXquLGnaHLtNJWES/08FC+af+VL7frTPxZpZVOP6oeX+W4gz3Jk/v8Sz8yOSSjhZzw0NFRpybIWPf7UWov0x3LldVwM+WmzCDsvY8DiFfMFxcpKNGyklzVlsQYGVj33VyHUrUD1GgWrVigQ36S8ssp6YRCWnWC5OD11yqyfrExbo5QPS0EA7SsrKxro9bO7vGgIQIrn6mCQjPWAifU65JAxaqgvVzgs1VWUaPLIcpVEvAJi2xT+vxPLmczl9Z/WtH6yrFeLOnMGzJ31z+I3NntGtsaczFWDC6I8FNCbGkt0zri4uRuA8Qs7M/rFql59alKZRscACAPfap8FCI8++qiuvPJKAwho+AMdDiQQJIblAOJz8QcwXWfOLY496O/D52+YOto0jL3YPbETNNB3qfM1uw9ebYHMPJHXjmtlf6gEtivWaEv3gBYeeOABo0NiEFzTsP5CnE0GQNi0aZPRD0K/f9CsowNn0XJ/u2A9d8+BrAhcw7PXN23Q9ZSknjpVp536FqXSRJ1n1NXZqXvu+YduufmPauoMKNYwU7WNk1QaLcX56lek8apqmVZiSl5gc7Ml14feb8uL0kfpZE60BjoEtnJJMKRcNqOeljXqaVogJddbOhUgJJlIqzReqgOnHGhAivf/wQ9+YI23Xm2a3500sjfeG5C3umO5/rjod9qY2KBwMKyKSKWOany9Dh05V/HIZouO1Uho6rT0xyWr2zW8oUrRkpBXbpultxf0SnvTxRP1lKDGkY2Ven5+kx57YrV6erDWUpCIct9ePxBr8oQ53wCCVD2sXFW1MeWzAeVzWDKw5bcpWLtYqlqtYKTXAxc5q+6hXIFsiqzyiSrl1h1oloNCNqJCYGu9ZzxrgxcDIWUzOXMrhEMBVdXENby+XPX1ZdaZcnhduQGHZCqrQw6oVWNd6R7hh+l8QXetT+rHS3vUlPIyOay5mu8O709P3jcDYxYXb2FZIbmCjqmP6mvTcSkE9URbWv9qSetjE+OqiGy5sdM+CxAee+wx/eQnPzGAgIa/JYDA52hq+H7phufcCi5YsZhZFwcrOqbFBDk3BaDCWSAc494VgMEBF6dV7mlLhXMruAJJAC7mZegYfAboCfLDH/7QXAy4ZQYCmI5GcClAg7i+XF0O5hm6K7ZwDWQpcPQ20Iigb0Ds8OHDtGzZcv3+5ltMCAMSuHcimVAqkdSixYt03z/u1qNPPaNuDVPZiKmqqmtUNBYz5u61dvbZSlEp3M3V7PiOoMXN9fK9swPK5tJKtK9XcsNiZbrWKhRIqbSkxEy8uRSuvbSiZTEdcsgc68+wvmm9PvWpT/V1wRx8pofO2JUzQH+Gha3zdOeyW9WWalU4EFZJMKqpdbM0p+Eoja4Yp2iopM8S1dLWqzsfWKrHn29SzbAyVVbEfDrw4lS8eAEv0DCTylr74wPG12r9xm4tW9Fqgra9K6WurpQSvWlliQGw7KuCgqGwhjfWK0q/+lCPFG9WsHqFAmUtCoQTHjDAxQB8JUVROWUTpcpuGK9cywQVkuV+oK0XV/Cyw43LsIsXEInAjQQCFnQJIKipLVM4HDQQW18d08TxwxQKA3ZzikdDOnxKvdXs2N2JCgQ/Yjm4dFG3lnfnLOtgWkVIbbmCBSX2T5E2oO6/sRec6dc26GcNsF3Lps3mddqoUn1iclz3bUwpWwjofaNjFp+wpWOfBQhPPvmkaSAABMzhWzucwEUAoiEDFmDWgAXPX+NVu3PmXBi9AwKOufMbxs055sd1yG0nqMaBEJ7lajc4S8WuZAaD3YtxoIFiOUDQFL/fYNf+t39PNs0VV1yhj3zkIwMCBOOdflaNc21Bg0T243pwgNUBABd/ABgl6NF1NNyalg1ds25YfTivs7ND11zzc7W0tur97z9LVZUV6ujoNLNuOpHWM889rbvuvEMvLlmuTKBKkWFTVTPiAJWVVVj6pDEdn7E60NC3D6x+vgcSyB8HeCRaVivR8oIKqVZFAxnFyyqMhlKZrBLJXmuPG43H9YEPnqvPfvYzBhruu+8+tbS06OyzzxYdU4esCHt+JwESlrQu0O1Lb1Jnus3cDblCTrFwXDPrDtPhjUdreFmDxSYgenp603rk6bX66/1LFS6JaESD5xKg3oHROZqqnwqTy+RVWV6iMSMq9eAjK7V4eYtGj65WbW2pKitLlEpLzRsSamtJqTeTUHTUGqlmmUKVrQqG8R9gzOdmnknc+i2E01K+VKlVByqzboIK6TJzMVjegzV+8sbgAVgP8BJTEKbCYXmJWTZqa2KqrY2roqzEzt3Y0qOX1rVrU2uPjjt0tI48bJw6U55pPpnJauLIcs0YV+2nbe6+NWIGMft/Y0G35rVlFA9InzywXJuyeV23qleEWVolS+R8NqdgtqB4WIpEg9aNNZmWpT/mwwGziFidiqLDC+koiGDMcw+Ia0M6r/eNLtXM6qhfhnrgd9tnAcLTTz+t733ve3rXu96lkSNHbjE+AMYGAwUUoE3hVkDIF8cgOK3PWRX6m3WLQQLT6JiZcz/saElirkdAIGTuvvtunXjiiTrjjDP2eBMi3seh0yFGvX1MgGDZSy65xNpRI6D7WxDc3Rwdou07S5UDrHzmsms434EER6uDjYj7YIHg+dA112Ol+N311+vZZ5/T6447TrNmHSSYdm8vGpnU0dauxYvm67nnn9eqNeu1saVb6WC1ouXVCpVSaa5MoUiJgmGi22kFDZDOKJfuUT6dUCbdoUxPh9TbppJIQvFwRNHSiPLRkLKpvJKphIHwdCqtysoqnXnW2fr85z+nsWNG2xy5+IttfcfB5mDo+x2bAUDC0k0LdPeKv2hdzxpFQsRaAQBz5mqYXDNd4yon2u94tNzSB+ct3Kg771+u1s6khjdUKhaP+v0R/KBWHxQTq4JGPq6xSg8+ulyPPrVB+UxQ0VhS1SOyGjEprer6vErLAoqVhKRQXpkcDY/ySmZ6lcr1KpNPKpPvUSYTVX7TOGWax6u3Ff6NRl3wtOYQQhHljVojIZVEw5ZWWV5eYjUarLy4L1hxd3R0UUeBmg4JdXUlVVUe0eknTdXrj5qgNZsSautCcZSl4h4xpU7Dq3d/LBbZClcv79HvlvVqQiyk90yIW8bC79YklDSrh+eKiRek4+vCOnZUqeZUhy3dkqM7W9DTbWndsy6phzdllA4EDSj0BwlYeEqCBb0VS8LEMtWWbL0s9D4LEJ599lldfvnlesc73mHd/QY78AGTEsYLE/CFduYCv4pN+g4MDOR/Lz7PkHMuZ/fYnjRIJ0DcvWhj/Le//U0XXnih3vjGN76igNNg7zX0/as7A8TCfPe737UgRZduuyWQBb0QNNvW1mY0g9UGS4GLN3A04X5vK1iDphG0WJ+Kr43F4nr44Yf0gx/8SOUVFTrrzPeYlYNYCMynaBWMqXXTJjWtWWv9ExYtWqCmje1KZ/1aB74lwYCxeX+tgq7i0aAqaqpVVl5tPmUa1VAyGWCSTieVTAAOUqqorNInPvFJferT56vWt3BsCUS9uiv53/t0TO8dyTarkfD0xsdUEiqxuAQDcoWsMtmUKRDD46N0VMMxGl8zRZlkUI/+u1sP/GejmeiHN1ZafIE1Y7IAQ9LxyKbJqK4qqsbxVXpo+T+1JvNPhSO0/k4pk8QlQaEf6hYg3OMqJc08FFVlrEbVlaWqCkxQRWq2IiKjCktBVjkrjeyVCPcjCryKiAookcqJYk9dnb1qbUuoszOpTDpv1izM7FYKmcyiVFa9vVnNnjZcnzhrjsaOqtZLrQmtbOq2FNxUNq9xw8s0fWylF4S5Gw8CgB9tTenLz3UJOP612VXmYvj+oi7lLNPIC6qP5gv69NRyvWt0zMrr9z/Yz52ZvG5Z06url/UqTefKLYCEkxoi+srUcquPsLVjnwQIvBDtfy+66CKdfvrpVm52ML+90+AonARYcP0aYKwuSty5FbaVFgYCCFtj6sVjXL9+vW6++WYr5PTJT35SBx98cJ85eVufP3Teqz8DuLq++c1vWrtnTOUmSLfidmLDYc0CJOBqQNt38QeuJLMDp9saJNofIBQ/H2sZz7v3vvt17z/vV21tlQ46aIa5JDLZjNJpL4uCuIAcLoN0xvZHd1enurq61dvdpd5U0s9OI6jMT0OjgU06bVaCpKUO9yqRTCqVSFi8AW39XvOa1+qDHzxXb3nLKaqqrHz1F2toBFuZgYJ60j16fuPTeqrp31rfTdlklpHMGa9gUTafMZohQLC8pFzVsWq1tubVtD6lbDao0hgVakMqBDPKKa28UsoqqWS+W/HINE2uf5e6Uk9qbfs91jchEMASYH4BcxNYhj+ZC5lyFTrZPS3SAAAgAElEQVTGqNA+VoXu4cpRtzuYMy2aroo5WlD7DWmIfyFQlutzWb/7ExZR+/FrfrggPup3JMmAyGlEfZlOeO0Enfjaiaqrjqm9J62FazrVm6ShWECRYECzD6hWbYWX9bY7j/Z0Xj9d3q0Fm7I6b1KZVvfmdPWSHvX4FVOZo/JAwWIHSFmMD9IMCpBww+pe/WpFUomClwFRfOASigcL+u7MCr1+WInVc9jSsc8ChEWLFulrX/ua3vSmN1lXO0yWWwvkcilkrsQy58PgOFxhpO2t3gZAAFygCRZrbgMRlLNMcA2pZwRYYhJG+2xsbNztRLg7Cfy/+d7PPfecvvCFL+i8887T2LFjTSPfmmB3Qa/QCMLV07jTpiFAh1i2EN7bw5QcQHAuhuIAWtbGfQ8QuPzSK/Svhx/WtGlTdeCUSSqPlxuDTmTTNo50CsCQ8tIvs1nlM7TH9fZKIpVSMt2rZDqpLMCCv5MeOOjpTVhMRTadVXVNrd5++hn63GfP14SJE/ZIGdr/Zhrcle8On+rJdGte85N6bN1D2pBYZ707QhYE4PfwcMWzrCuol8K4qT1h7ZcR5iXRiAX5cYlXBZHMhG5FwqM0adi5Smc2aEXbTcrker00W8BCtkzB3gaF2qcr0zbKgl4LkaQXyGjNmAoKuPobZDH4qbU0dbK9YimNxB1QsMulInpNnqjVkE1klUmmLS3z9XPH6z1vmqYRw8ptr9LOeem6Lqv3gBZO06nxI8o1dUyl1TzYnQfTM68jrZ8s7dG548vsUV+d16WmdMFcBGbFyeV1fENU35peodqtZBy4cfIO6xI5fWNBlx5tzdgcF/MTi1fM5XXW+Jg+M6lMsf0tSJGJQPMmvQxLAoGKaG8wZzcRWxPSxd858+72MGS3ENsLEBAGDz/8sP785z9bdTmECjUctlVT3J2EOnTvHZsBLEGf//znLQ4Ga5YLRByMDt3THP0VP317adHMj9GouRicBeNlDMGvYU/sQzaXE4WVHvnPf3T7bbcpEo2qitbelZUqi5cqEopYq1DumUljYUhbqmQqnVbKWQtSSSV7k+rt6VEimfJMt9GoDpo+Xccec6yOPnquDj/8MAM7Q7S9Y3T1al9FsauudKeWty/WS92rtaZzhTqSm5TKp6wQlmfh90ok43xCS6XDovVr6EkpnfHiA0L0KfBTG/OFjEqCIzWu6v2qKE2pqeV+tTZVSInhCmaqFMiQGYEtIK3eZFrZvIXmecW6LKfSC4KkPHiO1uG4J/wASYSg1+DJC1a0niGZvPKprPAQ1FbHdOiMBh0xu1EzJg1TWTxi987kc2pqTWhFM3EOnlutLBbSQeOqVVm2ubrk7lqPbF5a0p1RZ7ZggvqKRd1W4RBgYlUhKeusgr4yvVxvbSwdtLmSG2c6L936UkI/XtKrHopb9bMi0J56ZkVIl8+u1FgqRO5PdRDcJNCMCTfDmjVrrCeDczUUa2lbWtj+LontZcrc1wEEVyBnIObsLAf4nv/+979bad5zzjlH73znOy1+YejYt2cAGiBg9otf/KKOOuoonXLKKeY2KC52tCXa2t5Ygy3NlLM+kIWyNRp01gRSLf/yl79YFciTTz5F7R2d1jq6q6vHwAC1DCinG45E/ZoweXMbJBMpJdIAgrxKwhHFyuIaO2aMXvOao3X4YXM0Z84hqq+vG3KV7dsk/bLRI3QRxslcQq29G7Wua7Wae9erPdmi1mSrEtmERyMWekD5b/hiQd3dGXX1ZNXZkVN3Z1CFZFzlpSMsliCcbdDxs2do6ugqPf5Cq15YuUHZnBdX4Ep7Aza6e9MeQLA+IH61TxqOhYJeQTcaFVGDw29nbKDAXBBZi9YvCQc1vD6u18wZrWMOH6tRwyssiJF9B3CFjls6U1qyrkupjAcuwsGApoyq0PCa2CuE6u5YVt6LktM0X7pmRa+uW5GwhntmBfRbTxNI+K3p5ZpdGfaqnm7DQJjHZ9sz+s6iHjUl86/oNEmlxhER6UeHVGlGZWSLDZv2WReD0SSNRdatE4F+RJPPmTNHc+fONU3KuRS2psltwzxv9RSegf/YFcgpZs6O+UPIa9eu1U033aSFCxda3jeBlUPgYGdnf++5HnM8lT1/9KMfGS3g9hozZowNsBgoOPrY1SN3AMGlOQ7kanNZO0uXLrXYF0AMtRtmz55t7oQNzc3q7OjUylWrtHTZCrW3bbKgw3QyrSQWg2TC0mBHjmzUsGH1mjhhgoYNH6a62hrV1taptLTkFZUed/V7Dt3v1Z0BeBrZDblCXslsQr1ZGjZlvPgBvyU4Eh4Nn9gFZP6GdRk9O69DLyxu05p13erNFBQISfGysA6dMUKHHtRgqYjPL96klzZ0WTyBC3pt78Za4cUVlEZJLw+aaRwtn1Q/KiIST8APbgQsFuWxqBqGlWnSuBrNmDxM40dXaURdmWU2FAN1MiXIVljV3K3uRMbiDhC8Y4fHNXaY16BqTx20Y6bXwhWLerQpQxaTX8/Ar19A1sHMyrA1VXLVH7c2NusxIaknR7nmnBJ5zxVUfDCvFSHp0pkVOro+usU4hH0aIDiQgO+TvOpf//rX5sc9+eSTdcABB1hkNy/ohPWuNnc63y5CoT8Q4W8YL/EG1113nWVQfPrTn9brXvc6AxVDx/41A9ACYJXMmnnz5llGypFHHmlmdmOsvpl/a3EyOzojWwIIznrFfQmIZFy33XabgRjcIpMnT35FrAP3AtS6Hzd2/naNzKwjZL+yzzs69qHr9u8ZQMvPZPPq6klpbXOnnpnfpKWrN2nlmi61tvdqTGOV3vS6A1RbHde8pS2at7hZnd1py+PHipDK5Ex4RcxqQF8T4gy8PiC4zuOkM5ZF1TiiQuNGV+mgA+rtN4WconRa7GdaZ7bRntu7klrZnFBvKqsA9wsENKKqRONGlKu0ZM8VicOCsLgro2++2K3n2ze7FoqpAkDEHHrFzrft8Po3kerIHLzS6uAFKkpfnVamUxpKLShzoGOfBwjupRDGL730kv7xj3/YD8GDhx12mGbMmNGX/tXfqrCzGl1/gAAAcWCE8RDAhikXze7cc8/VQQcdNGR+3Tb63ifPYu3JTiCz4Q9/+INwgWHVOvzww037dhaF/q6FHXFvvZyBeAGO/S0IDiCQxUDPCPYFwOWss86y8uS7GjDvk4s2NOg9MgOuUA+CjiBAUhHbO1Na19xtVokJo2ssgHDl2nY9+fx6C3j0lDvAQcDiGLBMILyJJxheG1NtVcwyECiAVFVRqlgsrCjBkX7zMVMgi8oQsx8AHC2daW3YlFAi4wGNQKCg4VUxjRkWtwZUO7sft2dCuzN5XbuiV79ZkVCBbquuGmLRTVxcxfbct/jcgeILMMyUBqUvTonrtMaYovs7QHDWBAQzMQl//etfzd+PBgdImDlzpjFFGGl/jW5HgQJaFVYKNLLi6oNYNB5//HETEmiR5MgTRDnEkHeUxPet62BsWIwofkXcCfQwa9YsS2WFBtHEd6ULzFkQcK0VZ+LwOYCFoFjAKnE6b33rW/uaSu1bszo02v1tBizDgEJ2vnWNGp6Y+unbkM7kzZ3A9wh9AIKVSfaFKBH+Hq1vLa2Y+/nxjaQXJ7Jqbk+qrdtrN46QJElheFWpRtaVqjS6+8spF68h7pTn2jP6yvwurUrkrNiTyaJicOC3V3etr7cpAGFbCKWABSGgr0wv05saYvu/BaF4TiAqoq/x/RNA9q9//ctAAwx02rRpBhjIHnDNlxyztlSabch5dec4gEDxGSf8ySGHIVNAh+51+KOdZrct6zZ0zv4xA5aelM2qqampjwYXL15sfUOgP36wKrhgKecK2xoNbok2iwGCA6rcB5on9oWyzsS+vOY1rxlyb+0f5LX/vYXrDGqZCB4QQLunnJeX6ejXNSgGBH5b8pcJ1D4bvJeRQMBkbyqnjt60OnrSFoyIxQJMEouG1VAbU11lyW4vhjTQglH/4IeLu/XHl5IKWNbCK838uALKwtIJw6OqiXjdLXf2cG2iowHp5IYSTSoPbzEVeb9xMWxp0mDSCO0XX3zRGDVNnjC5YlmgkxztZ2HauCRcjQRnjRjod/EiwoSdBYFzSXnDcoGr48wzz9Qb3vCGoZbJO0vN+8H1AElo8IUXXjDLEj/UQACkAhSgQUAktOToqzh+oDjjpn+KLtPTHyBgRVuwYIF+//vf232JfSHeYKjHxn5ATPvxKzg6dxkLBCdmDWgTGAlg8NLYzYrgtyf3MYLfO8QrsOj57HMGDLoTWaWzeaVzflokmQp0b4xHLFOhrCS8R7IV+i8b1ouHW1K64LkOdeVxoXidJ/ofxF1UR6XvzKjQEbUlW8w22F6ycK6XMGmj+2OhpO2dEBfFjcmVYDICtii29PzzzxvRARBwA0yYMMFy2nEbuMZFDji4ADOn5bkYBIIOudctt9xiWiGNe6ZMmTLUEXF7F2k/Px96IViQUsfLli0z2qNkOJYuACtAddKkSRo9erTREXTlAgL7W8j6g1fOAwxwf1pQU777uOOOM6BKIa4h99Z+Tlz74+sVuSBwCWRyWWVzFPnBquCaMhG45xUUsuyGXN4yHzK4EAhqpIGRr3fjZq+MRVRTWaJ4SdhrarQNFuPdMbW92YIuWdilW1YnFYl42QkO9BQ/j3cKKa/PTynTu0fHLQ1zWw6bj77W7QNf4apNbu1++70FYaCXd+ZftDg6yuEvRuPCyrBhwwazMOCicB31cCFQ64DURPzHMG5+46LgZ+XKlZZm+drXvtYCwOguOcSQt4WM/3vPcYCVgl+4IQAMWLhwC1CngO8BqfR3QPAX0yCWBkd70Bk//I2lgkBELBU0MXvzm9/cVzzpv3emh958X58BZ1mgiBLxCrSKJtgxk/W6LpImiSA1l4LfAhkXglVjDsjcBzSDKisNq4TCTf0qC+7p+eF9KI70f091ak2qoLJIQPRMas9sLg3txmR1EnJ5za0L69szKtUYGzz9ErCxKZXTU+0ZtWWI6njlgRvn4JqwJpdtuQaCs05eddVV+vKXv2yZT1Qv5ghcdtllhW9/+9v6+te/bn3b91fzZHG9AtcKGnMwTBrwAGBAw4OJ8zmgwnXfc35jgMOpp56qk046yZj6q4VK9zShDz1v18yAC5p19Afttba2GlhYsWKFAVDXu4FzoDvXnhzrlvsh1gAgQX2DQw89tK9l+a4Z5dBdhmZgb5gBv62zH7NgwMDcCgQdesWOHDAgzY+aAtbx0Y9h2LYyQ7v3PTP5gv64ulcXL+hWIRzQySNLNLwkqOtXpehZ9Qr5YdUUA9L7x8V0zriYKqMDuyPcqLsyeaui+MsVCXVlaOjw8vchpqMqErBeDEfXbd1t8V9pQdiW5Xc+YJcPDihwgMBpf/h6+RxXBAGQaHFDx9AM7IoZsOjuXK6vLTI0R6lugAIAArAKICBDAmsXtAhQpZojRZoADUPH0Azs/zPgedOL43TcO++tilpnOq+vzOvQfRsyqowF9fVpZQYQvjq/W6sSeatd0D/wEpAQCxasf8LbGkvVUBKy1ETnIeH9cas0p3L6x4aUblydUFPKK3f9ssOAlfSWkSW6YArdHPfDds/7P9EPveHQDAw8A5sDuTbHMxfXVdgdhZiG1mJoBoZmYNfNwPpEVu/+d5uaswXNqA7r0oMqNKIkqGtXJPTblQkr2tS/HoIFXxbyIqhwekVIJ40o1ezqiCojtNKSOrIFvdCR0d3NKc1rzyqZ97o4vjyo3itNPSIa0MUzK3VYbWSrAYq88ZAFYdet+9CdhmZgaAaGZmBoBoZmYKszsLAzozMf2qR0JKBTR5XqggPLVREOakl3Vhcv7NITm7J9Da6Kb2R1I+iNkcurJBhQXUlAlVRKDMiaPW1M5ZXKe30mBiq4hDsmksvrowfGdfbYMpWCNgY5hgDCYDM09P3QDAzNwNAMDM3A0Azskhko6D8taX3kP+0KlAb1yclxvX9s3AoVUTjpmba0LlzQrSU9OSsv3b+HghsCbbCtkWVRYQTryB3o557wL7CKkdm83jOmVB87sEzV0cGDHYcsCLtkwYduMjQDQzMwNANDMzA0A9syAwU9sCGl/3usQ5F4SJ+dEtc7R8cU8YMJaNz0QHNKP1naqxW9ub7KkVu981Y6OGFxoNtlpCCdOCKqjx9YpjHx8DYXZPyvtyAwAbu646NrzLOvpDr2L8TTP+Bnbw322ZbtuCvOGSgAivu6ehjbMz8EtRJQCG2QKjvQtdAPgYeuEFcxHQ1UNMkF1O4MvbmgSMZGsO1gQY77UlDYrqCBff0exXxuoHdh3flh3Vn/naWl/s8YbI/sDj68rWtWHNez+2N4sCCk9JF/tytUFtJnDyzTu8ZsBgiMmWZST7dndOmL3VrUnVXA7+6IdWBbD1fGmhTQeEh6z+iYzp0QV01JqH9Sw1ZvuUsAAhNMPjfNaZxwLH4q0dUUgYEh7okD5kp6ImOh4Aw1DPofjJnxUtWOjTFq1Cirl7+znRaJMqdaI+lorqRze3u71VQgn31HMh3c/HJvMibIjWfMpMKxkV19/x2ZW9I2KdZDGicFepgHij5RzIeDNaN4z8SJE/fY+u3Ie+yua5h7SiRTI6M/bfPd2LFjjW6oTTDYQRbCHXfcYX0RoMt3vvOdlnFQzDxZV8p008cBOqYa57HHHmvrTsYCBb5Iu2WdaP7FvuN+XEevB9Zwe5k778H6MzbSKqdPn77Fng2cS90QGlJB48UHNALN7wiNDzZ3Q9/v+AxQ14V25GS/FANbd0fomq6zpNNCV/TsgK4HE+oDjQieBG2QZeOupwAdabcD7RHoiXFB84yTGjJHHHHEHqMh3n3VqlVWOwR6prou5fgHA8g7vhrSsq60znqkXd0B6T1jY/rkAWWqjGwW/hgE0rmCnm1P6+crevXYJlpq403YnK6JwQEQsDlt0/M12HmW7ilLjZxcHtLbx5TqpOGlqh4kPXKgd9ppgMBgWFiKKTz44IMmYIs1Gh5AlTgaFpGCVcy8+pctLh5gccnZ/gPf0nV8joZ2zz336PrrrzeGSi+ED3zgA68gOMb8wx/+UL/61a9szIAI6j7AkIu7MnLP4ihxt8EGGhMMndbO3/ve9+wehxxyiLWdhvjYJNTDp2lU8f1tiYuqeQ2kvZPO9pOf/ERPPPGEpVN+/OMf1/z583XnnXea0P7gBz+o17/+9VarYksa5kDj5VzGdv7552v58uUG4tggCBwOGD0AAiH2uc99zlpVu2ZX7n6DrVPx3G2PpWJvsWLw/hQHoSsnNS4cSHBVEWFo11xzjYEo9x1jZ57cOvM5KYsU42IfwABZS+jhnHPO6WNGDox89rOf7SvSBYBl7amKCPBkrQC2VEe86KKL9O9//9toHYAAY//iF79otMzziufeFVTiM8bjxuo0Jke3gAwA4s9//nMT9nxf3NqZPfXjH//Y9g3A3/WSYJ4YEwVVjj766L59zvM4x9GmG5cbD7/5zNV24HnFY3OaJdcXX7u/1mXZGcEz0LXMP+CWiprwCjfXbl2Yb0AmvAsaA3x+4QtfMD5YXMWzP924NS1+JvemOdlXvvIV+9itLXvhxhtvNCWj+HCy4JlnnrG9AA2zj37xi1/09Slx43V80q17MX0X89BivsG/+7+Du59Xsjlo7/3LX/5SP/3pT43XnXHGGfrqV79qe317gfa2rl13JqdLF3br1lVJDa8I6VOTy/S6+qhKg0GLK+jK5rWqN6u/b0hpSVdWE8vD6s4V9FhrWp0ZL53R4g2KHQV+5UQiEEpC0piyoE4cXqpTG0o1Khbc5gqM/d9hlwCEJUuWGOOjte3s2bNNsMA8QIYQH82LIDiqu7lKhUw+zBUBynncw9Uc4Ds+h6DRaECjzuzFokNEaOP0PKBsMgsLU0S4sfDveMc7rFwy47n99tuN2fGdIy5eGkT9mc98xjYOTBEmzD2uuOIKQ7owc56L5obmx5gQlGho9FwAbbv7QdiMh2d+5zvfMQY3d+5cXXjhhXbd6aefLjbBaaedZgTIuJ2GzhxQ3pnnuOI4fMd7QqSMGw2fYlUAAXo9jB8/3sbAeNDmmCuEGJ8xH1wLKONz7rF06VI7j/lkrhg3GgIMnfn5zW9+Y1X3fvCDHxhIOO+886zgDsKA3wAu7vutb33L7kcBH+aENXa9LNBAQeLOPM56oSVTbIp5BZXzPffh2YydOWQuuAbgw7tyT8AK92Mt2cAAONe2e0e0mm3duAOdBzijlwFjpNmRA070NoCWAZkwFLQPaNgdVNUEILKWWAMQ6rwvAv9nP/uZLr30UmsD/bGPfawPvDKn1157rTHZyy67zGgCZgtdQUsAkT/96U/GTPlNLwcqMLK3WFu6l0LTzC1VGQHBjlHTVRQ6Z/4B8lijoBPWBoHuGoxdcMEF+uQnP6lTTjnFLFWsP8ADCxgH7/OJT3zCrBcAfvYn6wMApvcDgPO9732vMXsHprkP+4H3d5YYxks5cn7QONFgoWtXtpxx8YPAYj+ecMIJeuqpp4zGoWsA8UCWwZ1Z6/3xWuiWkt7vf//79X//9399vAFLAbTD/oIm4U/QIvwF+mGO2bNYr1y1WMAo688eZG+zBsUWMJSzP/7xj/rtb39rvJ61ffjhh3Xrrbda8S72UjGIhqaOP/54KwtOO3LoDPqn4Bz3Zgz33nuv8QgO9gP7Cpq86667jL4dPwCEQCeO5t1awltRbOCH0CoVb+GzXAfvheZ+97vfmezhnQDH0PVb3vIWTZ06dbeABAo6Le/J6tJF3XpqU1YV4YCmV4Y1kv7LkjpzBdFIaVhJUIfVRjWrMqJMoaCl3Tk915nRqp6c2tJ5tWcKyvptHuPhgDVz4pppFWG737h4yEDHzlST3iUAgU2L1oMwYCFYxJNPPtmYHAQFYSCsWRgWG8KAMBFUEK5rzwzDggggNBYWJoKmDEG48sd8BkNDE6dTHUIcwuA3n2Me/dKXvmQa79vf/na97W1vM0Dx/e9/38xnHDDzSy65RPfdd5+BB5gSGh3jxRICYEE7Yzyci/CC4UFAdGiEaGHArkgSz4fA3v3udxsTg+iOOeYYezfe86Mf/agRJgIBwMD1zIG7P+OEiNkcABPHjHFNsFkQ8AgjtDa0xauvvtqEN2OBsSIouPfNN99shM8ccS1MGVACOkbgMhbmkt8AATQFgBIMgrkD3LCRYca8PwKPv9EsOJdqkYAVBDiCnDVhE33oQx8yJoCGCwBhvlzFSeaGdT733HOt/TWCEpB14oknWu8KxsI5jBeQwsZkHJzHmiJ4+Ddzy1h21gW0vUKANYZGGCsH6wB9o8nzPghzgA2CD2bJ2gHGuA6wSSfRYm2czy+++GJ997vftT3hAAK0wFoCBGGsWL0ADDA11g/6vfzyy21uOQdGzH2ZO54DQOUcmD7nOAYIvQEKWC8E/2233WYCmf3FXHJ/ruUHmsICwVqxBxgf96N8M+vAAbDAgoVljmd/85vftHuz56A7rmUPAyCgAdxf0BH3R1ngb8bHffgBROHC4f35m/kBuMIr4CsIKfgDVhfAB/PLOQB6xre7tLztpZO99XzmFWAOP2TeWBPmkJLw8Dt4hyu6hWIA/2Id2Jd8juKBIIUfQJ8oBPBCeADAFEDJPaA3eCC8hJK80Bf8j+twwcH3uacrYQ+NAFxYV8Z32GGHmQIEj+MeCGl4FXsMoACtQQ8oKIAHeCVjYT/C39l/8DgUVN4TeuM3tP+Nb3zDFAx+Q88oKAg+6IpxMyfwMJ4D8KaXCfyO8ewuVwMgYU0ip4da0lrQmVVPtmDllieUhTS1IqwpFRHVlQQNKGy20sprXpWXEvm8OjIFpf1CifFQQJXhgGVDRGjAtI09Gwaj250GCDyAhUBggkJhpAhIGBzMDySJQGDSIVaIivNZfIQ/DBRBA6CAqQAoWGhMnhAZhAxxsJgwKYj217/+tb0XQhgG44Q+SNCVokWIIrwgUBAqYAJC5UArQdigVSH80JARtmwGCBPihfGzYfD5wtBgbJyHr8wxQpgTY+f92ABcAxGfffbZhrz5zTkwT76DiGF+CEG0H+aDd0V7cwya+XIWGAQEGwbQAONGA2ADo1WyufjNc9FQIWSABsIFRo9QRmgjXBk/IAUNDqHAhmadmF/OZUzMKxoqG4WNgWUBUMMYYRAIf+aAtQVMONcL78X6ME+8L+cyJzwX0x2aLxor6wx4Y54p3814eVfux8G7ooEyJjYxTIa55Fi4cKExJDRvJ6gGI+xd+T3Al/dDQCM4sRgw7zfccIMxFWgCCxoAFDqFhmBgrDe0xJwCyHDdcA50C03gl3UAwZlnAQ4wXQQ3QhL6Z53ZG2g3PI9nMe+Y+rk/jB4tnfnBlAtdI8Rh6NAfzBHrEIKacWARQVjzw3i4DrpiXREkrBm0xB4FfKBVunkHyDFmLAzQw49+9CPbD4APvmNsAFPmCrqFQbNvnBUMGmB9AVN8j7bJO0Db7EvAFRZAnuvcKw899JCBX4ArP4yX+xe7Mnbleu9v90Kgs/ddR1H2OfyP3whCaAR+izIF72ENoDf4KWsMz2D/A9KhGQAhgoM1AShDCy7uhL0P70XhwiKAhQ3BzJoRcwM4gXex76F5rJKMD6sYlid4GdYE5Ak8ksZ3PIuxQ6vQN3sPmoFGUHAAHYBYFCnonPvyvvB/aA9eCM+DnzEmZAw0C99irA4I4QKB1pAVPHd3AgRojDiBdL6g7iy5BnRVLCgWCopwBGvctBVCdNmN7jfnDl7VYPspe5cABB7LjSAOtBsOAALmThgIzADhC1EgWBAYLBSokYVAEOC3hwCIA4DY0HLwZyLAITDujWYJMbFwCCKIAd8w94OpwpCvvPJKOxfCxZz/1re+1RgmFgOIHXACc8XEC5PBLIuAhqFjDsOvD4OHOfN8zO8ADIgbhs59IUA2F0KNMSBgMbuiwSFYGQtCAIEJk0VQwgjZcAgXGBtaJITNxmnkmlMAABDKSURBVOA7iBdtH60IQQkjRTuD8fJ8LARcz3PZJBA9GwRBzCbnXREKvBOomusQ/gADQBkaF/dlwyCgQe1ooJzDGrDR2JhOuwDZswm5P3PMvPAuvCObD6SNsGejMU60DuaK+cUKg7WFezI2p71CD7wHmgVziWCDPtjwCEYEEe/EOVhKGC8aLyZ25phxM4Y9ffBuMDiC+HgHGAvrh+sIWkPwMwcIbP4NrTMvMDzeE9qCrpkPBBz3gA6KAQLAg3sCMKAfhDQCl+cCRKBZmDbaNtfC2ADDrDXzyVrBsGF2aFloUjyPPcXYuAdzzf5k7yHkea83vvGNBkawamHuhWGzH2Gu3Jf3gGECYDkcQADQo8kBnJyGg5CBwbJ/2Bc8F6btWluz56BfLHdYYaB93hPhg0UCmoVW2I/88H6AacbFd4wd4QUNY1UBDO9pl9Oepr1d+TzAvtPwAXLwHfgu/Bb+CM9iLVhDQC3AATAHL4RnQffscYQt37NfWQNoCcsxB7wRPgVfBehB+/Bt9jV8G37CXgCowifYCzyHdYceUOgAtIwByxwA2fFaeBznsT9Q9uB17AUXBM+78R4oo9A7Mog9gzIEnwPgMD7eG/DBuAH37CX2BHyGfYBlAuWwf8zcrlyLfeVeuwwg8MIwSwQlm5bFQVOBaUJQaAgINRYWIcTkw/RBsggrBA+LCNFAFAgImAcaCEQJ6oNBYHJk8RAiMGKIAaaKxo7AxfQKYICYIEjuBZN10dUQuzOHAjwQvjB1TKM8HyELYmacEBBBZIASwAUMDsaENoTAZTMRUMP5CDs+5zdE7wACzNoBBMADGwYEjcCF2cF4GRMCgvkAELFh2Rwgehgjmh+bE8JmDLhsQPK8H/PCJuG5XMecgYT5N58jxJhrNhMbCyACqmdDsyYIXEAPG8qNh3mEqWMZAWBxPWuJQOF90WQBY4AY1hogxTtg7WA9eD/mGCbB8wAJaMGMByHGu0MfvBtzAqjgvTEhM0aAI+/K/GP9gBkh6ACYezo4DZpg/RB+0DYMkffgvbHqQD+sB+8LswE0Mm8IUsAZ78XcA8IQeIzfAQYHEPgMGuS+0C3uF8AINAFTA0BxL2gYLZtnQdMwP6xwPAP6QHC6oDOACMKd8QNuWV9oFhDCfVhz5hbrCNdgoUEQAyLYcwBwaA2rIJYo554rtiBwPfsbGobxsj78wKihQ9aduA2eAehg//KOCAmugZmzn9AaoSX+BlgiUHhP9iACCmAIzcLEoTGewb1fDbC4rzD2gcYJQIBnYZ2D78JXHUBgraFHBDPrRbwK88yehKbhI1ipUA6gNQQ8exmeBW+Az3HAK7kvFkNomfUFEEB77HkAI/wZ6xFAgjWHftk7nI+CB31zHTwQmsQShsURmoFO4SWMD/7teAt7DnkAz8CagLIHD8Z1iyyBd7mYMN6BvcHYOZf9yB6Bx7PX4Ku4sIca7+3iUsvFAAHBiqB0gh/GBKOHkUA8CB20VJguC4bGAaMF7UEgaJQIbdAhqBJGh3bDInIfGAqMhGAV5/9Fe2IMCCn85ZwHYfNvghG5BuYFUuVeMFgCbxCIMETcFWwUmCnAAsJHYMG8ASQIBLQi5xdGUIKMAUCMBcGHVg7RoiE5CwJCFYGH1g3hI9z5zcaDMLGWsEEw76L5AXIAUTyPe/F+gBDuAaNE6DJm3gFmi4CG8cL4iQVBm2TTYfqDqTIWhBT35zncAwSN0MFiAdJnPGwITMtsHuYB8IFVg43IPKC98i4wDTYgDAOmg4bp3CEIKdwmCDC0SxgRG5r1Q6BwLw5AAIwKJgG4gBkxr9wL2oDJuPFxPQzi1dAWYWgwNjRcNGqYiQsQRNPgHaEd5hdmA62whrwvc4iQ4114LzQu6JH78U4uBsGZa6E7rgEQomW7WBzHOBHUuBjYDzBnwAHM0wUmMjYYHGAEMz9rinbG2vFsGDXrwb6CtrA+wAxh1oAgrAKcw9iwDqA1sgbEhrBWgE4Xg8BnThsDaLIvAaa4g3ABss48g70HbbCv4QFoaLwHIAjrAEyd94U2uR5QBBhhPhkDAIz34b2hR/Yb94X57y7/8L4MArY29i0BBOYRBQN6xDUAH3VgDx4HKETQsv+gfQ7+jWKGmxDg5zJ82C+sKUABOkcoA3Lhu9Ae38PP4LuAPQACcVbIBGQGfAy+Am0jH9gv0BO0Bi1DA+wxvoMXIysAOdAf+4BnsHfgqfBz+CB7D7qC7wPSoUVXiwQgCuhgbwNIoE3exWVt/bfHuOwWCwKEiECGMSGMWBynwSIkXLARCwJB8Dcbn/NYPBYc5gYzYtEhRAQ/rgI+g2GwwBAHKNDFJ8B8+BzhBWHwfIQ2zA+rAwQIo0SYoynxbwQmDB7hxPlcj2aLYEXwgnZhcDAviBYGyvkgYgQpzBXTFEIZTQftmQ0DA+OZEBsmLJg/SBam6EARGxNNHjDEfbg3Ghf+YEAE90C48A4IdKwrzC2gCDcDwgQmz0YBQXMfNH82OGAIgYGGzn0QKswXG5W1YFyME03T+dH5jPfnc4Q890YIYlngGjYnFhbGyKZiIzuBwHc8jzXgfAACAo45wH8NU4chwAhgCGxamAfaM+fDkHApMF7M2zAFtFw2Oe/3agkD1hMhCtNzKaswGZf+B71iysfdAs0BctGCYaTQIcKOd0D4okUDhgCmaN7MPRoP88Tc4eLhPqw5gVfQGfd3bjjWnwAr9gRzync8B1AHg8MSB61xf5gyawhDZm5h8uwrtDCEvnO3AWQAtQALMjNYL94VMMCeZFz8G9pFc2T8jJl3glaYH+dSgjZ5B8A+oIE9xj4CMLG3GAdAi/3EAa1A28wrc4xbwVkaAJrMHcoDcw2tsI8ZJ3TP3LwagHFfBg8OIMDXoAHAPsCAvQVtACpRPuCx8GYXD8T6s84IfGjfBZizXgBglBKsOdAx7kj2Lu41+DX0yT2hP5QdwCCgA74LbSEf2AfsfUAlvACg7VyaAFPGx75yrmf2BwobssNZT7FosC/grdAgAAQlhD2JNY49iYKDDIA/8h7cF9cdP1gq/r+9e8lpJAiCAOq5DEfgWCxYszMSEiuW3IFjcApuwmo8erZCKvWYmUaywajCEsLdrq5PZFZkVPbP8XjNfLC4I6S/i3cuxc9OKhAEJxkD540FVIEbeVgNM77UlcDF2AILkmIQxkISHCypIqkmQdspBeJAwLRqESgFZwTB2ZAa5/Q7oYHgCA2OisQoTw4nyCBNpMTprLY5KrKzYkVACFU2ALFTxiZRrsg1Nn3miPov4Em/Eg36pC/EijEgat/ts22yIT6kb0zw8N1HnQKzfZS1NF/u3kCAyNRYkbNxwUMKmNJXL2xgx+llE0zYXLmOTK3gTDaBXlsMLkioz7aJox3ETUiwn+2cphAQ4GQS62PqgoO2CRttOr1inzZlLAgSbSARdcLb+GRmZDaIGcHLeLIylU52qsiqke2QEvytoL9LyfMJqwm+m7tL0hc4JeDnFsfcFotYBHb2FzAJQWKIjbLaIiit0vmoNDuSZh/25q9sQ5gRjIIxwsvzFNTBD4k0fZNhSn9ykav/hJs69QupChLIM68nR9zsB2/Erg59lblzLL8XGPK8BtvmJrvCgX+ZQ+rXDhKGl/6qhx/wT6lrop/PmC/6nrsdrPaUNxYY8yH94vv28RECwpxzyouA/6qHrl0KUZ+iHxEIONKpMsEYP/NLi4dcDIhP+TUfw1O54wHH4m92xzf4gwDkH/wltzkK/EQ+n2TH3BbtWjQ2JfwEcXNdHTJWFgzmhn7hG3yhTgsKdfEVcQLf4FJjMR/wL3/EPfgaf5sPeQW6xRtfseghRrTBn3CT8eAg88x4xCNjJ16UJ9YrEH7vfYSoxMUWD/sM0uPj486KFokBa825X0aTspEi5xhWDlZOQGYIwZmBbJv4CIhxOKGAx5DKC2bIAFkgBOfNHCPNhZg4hfS6gCJIIxcGR4BUK5KTHeBovqtPqpzz6BdFmYAu+CBLwcsx6hLETQ6kxPkRqD4676XfAh5MrOQFMeTKEa2MfQgkzixQmhAI0O/GZsxOgeQ5CPqW+9hNGjiZqCaRScrRBW9YED1WfCZLUvLsAiP9dbwx+9h2AZr6BVzjJShypW6eJwFDH0TvN+UIJJNQP5C81KM/NpCBYCuBwjbCkFFI2pANpQUFBdgLCPqtX1a/TmfoG3KCQ0RL7nFGDASd8jAg6nJ+8xQk+dk6ckU0UbZcscIQCcIN2eTpnQjUCp/YdTzByJbKwweRwpU9+K39/MRqWT0EArupB9kR0dq2ostta7ldTDuOiT/xZT6RZ2nwmzwchs8QDeYosZnnZeincvzefu0rJ1A71jzORWi5HVGffIyd4Aw25g8fNs9y1ws/0V8Ywsj44YDU9Vd/CAbtwlM5V7ETkQiJaDY3ZUwEH3P8uwTjZ/3n0sqzqVOVeITdneL0MUfzsDR+hlfZSRC2ujZfZVPZNn6PD6X6cTh72M+H8X+e2sgvBGSBF4/7uLYKhxAObC7b7LvFh3nAB2TF+LbsA4GsL/yagODHufuN6LCY42PGQEDwKZzsOPwjLuBYYl8fiFj15Voz/M73CWe8LU7g1OVTTi/Nll/Rn5NmEHSYkyAJFTNaFFj2I5ykZ3NeieEdYz/i8N05VulSgZUwsJ8BBSJpbiksxzG0uh2L1PLENvv9pa3x8a/qT9v2K6O/9vvLFfSColSnVKkgqG4BjZISvBCbUwa5ijxtIEMf2+rVDxPItr7att/3YKQP6Vf2p4yx+53z+i1PMTOGtON323lATdqzX3t+y1PFUiZPp0sdmeSxX9oan82unvRf3fqvnuCnLv0NgWe8meDB2/7UtWwnthvH8BWT4aM29C8+Npaxz2cca34fxUTKLes/JjiWx4/HKr+s69i+f2H1UR2Zu2P747jX9DXHLvt8bL99qfPYGM11Ily2gXgkgqzoCPaIle/0iZ/aduap/+ZtOCvcYx9/Ngd9Umacx7FdeGH0jbH+lEud4Z2I5HBSeDG8kzigH+G0zL/wTd5Vcqx/4Q31hUuzwB05JzFD+ZG/bOdJqD/Vzqfq98kFwik6xqi52NBpg6hRKScrVor2XE9R0zY16Vy4c3EUKzWrbb9R3kSDrADlTGlStF3RnMLyraMIHBAwz6wAnbpC6slUyXQsxUoxKwJF4DwIXKRAyGpmXNXbR2mOWYnzQHK4tYP6TCp0zD5k5ZsLdbK6P1dfWm8RmBWBZN+ykl1zmnNWrDruInAOBC5WIJxjsK2zCBSBIlAEikARWIdABcI6nFqqCBSBIlAEisBUCFQgTGXuDrYIFIEiUASKwDoEKhDW4dRSRaAIFIEiUASmQqACYSpzd7BFoAgUgSJQBNYhUIGwDqeWKgJFoAgUgSIwFQIVCFOZu4MtAkWgCBSBIrAOgQqEdTi1VBEoAkWgCBSBqRCoQJjK3B1sESgCRaAIFIF1CFQgrMOppYpAESgCRaAITIXAfwWC1zR7vWofczqVX3SwRaAIFIEiMDkCBMLz8/Pfr3vebre7h4eH/cuIvG64nyJQBIpAESgCRWAeBLwYzcsJX15eNre3t5vtdrsf/K+7u7vd09PT/uVI3qD20Str54GqIy0CRaAIFIEiMA8CBML7+/v+5YU3Nzeb+/v7g0B4e3vbvb6+7t/F7q+fIlAEikARKAJFYC4EiANvL76+vt5cXV0dBMKuKYO5vKCjLQJFoAgUgSKwAoEKhBUgtUgRKAJFoAgUgdkQ+ANziGeD9u0uHAAAAABJRU5ErkJggg==;" vertex="1" parent="WIyWlLk6GJQsqaUBKTNV-1">
          <mxGeometry x="490" y="710" width="520" height="348" as="geometry" />
        </mxCell>
      </root>
    </mxGraphModel>
  </diagram>
</mxfile>
